G04*
G04 #@! TF.GenerationSoftware,Altium Limited,Altium Designer,22.6.1 (34)*
G04*
G04 Layer_Color=8388736*
%FSLAX25Y25*%
%MOIN*%
G70*
G04*
G04 #@! TF.SameCoordinates,BE1EFFB1-D3A5-4C51-9803-2DA18C35BCD8*
G04*
G04*
G04 #@! TF.FilePolarity,Negative*
G04*
G01*
G75*
%ADD21R,0.09400X0.07100*%
%ADD22R,0.01000X0.02800*%
%ADD23R,0.03500X0.03500*%
%ADD24R,0.03500X0.05900*%
%ADD25R,0.05900X0.03500*%
G04:AMPARAMS|DCode=31|XSize=9.55mil|YSize=44.53mil|CornerRadius=4.77mil|HoleSize=0mil|Usage=FLASHONLY|Rotation=90.000|XOffset=0mil|YOffset=0mil|HoleType=Round|Shape=RoundedRectangle|*
%AMROUNDEDRECTD31*
21,1,0.00955,0.03498,0,0,90.0*
21,1,0.00000,0.04453,0,0,90.0*
1,1,0.00955,0.01749,0.00000*
1,1,0.00955,0.01749,0.00000*
1,1,0.00955,-0.01749,0.00000*
1,1,0.00955,-0.01749,0.00000*
%
%ADD31ROUNDEDRECTD31*%
G04:AMPARAMS|DCode=32|XSize=44.53mil|YSize=9.55mil|CornerRadius=4.77mil|HoleSize=0mil|Usage=FLASHONLY|Rotation=90.000|XOffset=0mil|YOffset=0mil|HoleType=Round|Shape=RoundedRectangle|*
%AMROUNDEDRECTD32*
21,1,0.04453,0.00000,0,0,90.0*
21,1,0.03498,0.00955,0,0,90.0*
1,1,0.00955,0.00000,0.01749*
1,1,0.00955,0.00000,-0.01749*
1,1,0.00955,0.00000,-0.01749*
1,1,0.00955,0.00000,0.01749*
%
%ADD32ROUNDEDRECTD32*%
%ADD33R,0.00955X0.04453*%
%ADD35R,0.00800X0.02700*%
%ADD38R,0.08280X0.08280*%
%ADD39R,0.06312X0.07099*%
%ADD40R,0.06115X0.02000*%
%ADD41R,0.04343X0.03950*%
G04:AMPARAMS|DCode=42|XSize=65.09mil|YSize=31.23mil|CornerRadius=6.9mil|HoleSize=0mil|Usage=FLASHONLY|Rotation=90.000|XOffset=0mil|YOffset=0mil|HoleType=Round|Shape=RoundedRectangle|*
%AMROUNDEDRECTD42*
21,1,0.06509,0.01742,0,0,90.0*
21,1,0.05128,0.03123,0,0,90.0*
1,1,0.01381,0.00871,0.02564*
1,1,0.01381,0.00871,-0.02564*
1,1,0.01381,-0.00871,-0.02564*
1,1,0.01381,-0.00871,0.02564*
%
%ADD42ROUNDEDRECTD42*%
%ADD43R,0.03950X0.04343*%
%ADD44R,0.03950X0.04343*%
%ADD45R,0.03950X0.03162*%
%ADD46R,0.04895X0.02611*%
%ADD47R,0.03950X0.03950*%
%ADD48R,0.13189X0.13189*%
G04:AMPARAMS|DCode=49|XSize=65.09mil|YSize=31.23mil|CornerRadius=6.9mil|HoleSize=0mil|Usage=FLASHONLY|Rotation=0.000|XOffset=0mil|YOffset=0mil|HoleType=Round|Shape=RoundedRectangle|*
%AMROUNDEDRECTD49*
21,1,0.06509,0.01742,0,0,0.0*
21,1,0.05128,0.03123,0,0,0.0*
1,1,0.01381,0.02564,-0.00871*
1,1,0.01381,-0.02564,-0.00871*
1,1,0.01381,-0.02564,0.00871*
1,1,0.01381,0.02564,0.00871*
%
%ADD49ROUNDEDRECTD49*%
%ADD50R,0.06000X0.03000*%
%ADD51R,0.07099X0.14580*%
%ADD52C,0.05682*%
%ADD53R,0.05682X0.05682*%
%ADD54O,0.07887X0.04343*%
%ADD55C,0.06824*%
%ADD56R,0.06824X0.06824*%
%ADD57R,0.05950X0.05950*%
%ADD58C,0.05950*%
%ADD59C,0.20485*%
G36*
X259459Y105350D02*
X258659D01*
Y108050D01*
X256900D01*
Y105350D01*
X256100D01*
Y116250D01*
X256900D01*
Y113550D01*
X258659D01*
Y116250D01*
X259459D01*
Y105350D01*
D02*
G37*
G36*
X263456Y81936D02*
X263464D01*
X263476Y81932D01*
X263484D01*
X263495Y81928D01*
X263503Y81924D01*
X263515Y81920D01*
X263523Y81913D01*
X263531Y81909D01*
X263539Y81901D01*
X263546Y81897D01*
X263554Y81889D01*
X263562Y81881D01*
X263570Y81873D01*
X263578Y81865D01*
X263582Y81858D01*
X263590Y81850D01*
X263594Y81842D01*
X263602Y81834D01*
X263605Y81822D01*
X263610Y81814D01*
X263613Y81802D01*
Y81795D01*
X263617Y81783D01*
Y81775D01*
X263621Y81763D01*
Y81755D01*
Y81743D01*
Y80956D01*
Y80944D01*
Y80936D01*
X263617Y80924D01*
Y80917D01*
X263613Y80905D01*
Y80897D01*
X263610Y80885D01*
X263605Y80877D01*
X263602Y80865D01*
X263594Y80857D01*
X263590Y80850D01*
X263582Y80842D01*
X263578Y80834D01*
X263570Y80826D01*
X263562Y80818D01*
X263554Y80810D01*
X263546Y80802D01*
X263539Y80798D01*
X263531Y80791D01*
X263523Y80787D01*
X263515Y80779D01*
X263503Y80775D01*
X263495Y80771D01*
X263484Y80767D01*
X263476D01*
X263464Y80763D01*
X263456D01*
X263444Y80759D01*
X261436D01*
X261424Y80763D01*
X261417D01*
X261405Y80767D01*
X261397D01*
X261385Y80771D01*
X261377Y80775D01*
X261365Y80779D01*
X261357Y80787D01*
X261350Y80791D01*
X261342Y80798D01*
X261334Y80802D01*
X261326Y80810D01*
X261318Y80818D01*
X261310Y80826D01*
X261302Y80834D01*
X261298Y80842D01*
X261291Y80850D01*
X261287Y80857D01*
X261279Y80865D01*
X261275Y80877D01*
X261271Y80885D01*
X261267Y80897D01*
Y80905D01*
X261263Y80917D01*
Y80924D01*
X261259Y80936D01*
Y80944D01*
Y80956D01*
Y81743D01*
Y81755D01*
Y81763D01*
X261263Y81775D01*
Y81783D01*
X261267Y81795D01*
Y81802D01*
X261271Y81814D01*
X261275Y81822D01*
X261279Y81834D01*
X261287Y81842D01*
X261291Y81850D01*
X261298Y81858D01*
X261302Y81865D01*
X261310Y81873D01*
X261318Y81881D01*
X261326Y81889D01*
X261334Y81897D01*
X261342Y81901D01*
X261350Y81909D01*
X261357Y81913D01*
X261365Y81920D01*
X261377Y81924D01*
X261385Y81928D01*
X261397Y81932D01*
X261405D01*
X261417Y81936D01*
X261424D01*
X261436Y81940D01*
X263444D01*
X263456Y81936D01*
D02*
G37*
G36*
X255976D02*
X255983D01*
X255995Y81932D01*
X256003D01*
X256015Y81928D01*
X256023Y81924D01*
X256035Y81920D01*
X256043Y81913D01*
X256050Y81909D01*
X256058Y81901D01*
X256066Y81897D01*
X256074Y81889D01*
X256082Y81881D01*
X256090Y81873D01*
X256098Y81865D01*
X256102Y81858D01*
X256109Y81850D01*
X256113Y81842D01*
X256121Y81834D01*
X256125Y81822D01*
X256129Y81814D01*
X256133Y81802D01*
Y81795D01*
X256137Y81783D01*
Y81775D01*
X256141Y81763D01*
Y81755D01*
Y81743D01*
Y80956D01*
Y80944D01*
Y80936D01*
X256137Y80924D01*
Y80917D01*
X256133Y80905D01*
Y80897D01*
X256129Y80885D01*
X256125Y80877D01*
X256121Y80865D01*
X256113Y80857D01*
X256109Y80850D01*
X256102Y80842D01*
X256098Y80834D01*
X256090Y80826D01*
X256082Y80818D01*
X256074Y80810D01*
X256066Y80802D01*
X256058Y80798D01*
X256050Y80791D01*
X256043Y80787D01*
X256035Y80779D01*
X256023Y80775D01*
X256015Y80771D01*
X256003Y80767D01*
X255995D01*
X255983Y80763D01*
X255976D01*
X255964Y80759D01*
X253956D01*
X253944Y80763D01*
X253936D01*
X253924Y80767D01*
X253917D01*
X253905Y80771D01*
X253897Y80775D01*
X253885Y80779D01*
X253877Y80787D01*
X253869Y80791D01*
X253861Y80798D01*
X253854Y80802D01*
X253846Y80810D01*
X253838Y80818D01*
X253830Y80826D01*
X253822Y80834D01*
X253818Y80842D01*
X253810Y80850D01*
X253806Y80857D01*
X253798Y80865D01*
X253795Y80877D01*
X253790Y80885D01*
X253787Y80897D01*
Y80905D01*
X253783Y80917D01*
Y80924D01*
X253779Y80936D01*
Y80944D01*
Y80956D01*
Y81743D01*
Y81755D01*
Y81763D01*
X253783Y81775D01*
Y81783D01*
X253787Y81795D01*
Y81802D01*
X253790Y81814D01*
X253795Y81822D01*
X253798Y81834D01*
X253806Y81842D01*
X253810Y81850D01*
X253818Y81858D01*
X253822Y81865D01*
X253830Y81873D01*
X253838Y81881D01*
X253846Y81889D01*
X253854Y81897D01*
X253861Y81901D01*
X253869Y81909D01*
X253877Y81913D01*
X253885Y81920D01*
X253897Y81924D01*
X253905Y81928D01*
X253917Y81932D01*
X253924D01*
X253936Y81936D01*
X253944D01*
X253956Y81940D01*
X255964D01*
X255976Y81936D01*
D02*
G37*
G36*
X263456Y80361D02*
X263464D01*
X263476Y80357D01*
X263484D01*
X263495Y80353D01*
X263503Y80350D01*
X263515Y80346D01*
X263523Y80338D01*
X263531Y80334D01*
X263539Y80326D01*
X263546Y80322D01*
X263554Y80314D01*
X263562Y80306D01*
X263570Y80298D01*
X263578Y80291D01*
X263582Y80283D01*
X263590Y80275D01*
X263594Y80267D01*
X263602Y80259D01*
X263605Y80247D01*
X263610Y80239D01*
X263613Y80228D01*
Y80220D01*
X263617Y80208D01*
Y80200D01*
X263621Y80188D01*
Y80180D01*
Y80168D01*
Y79381D01*
Y79369D01*
Y79361D01*
X263617Y79350D01*
Y79342D01*
X263613Y79330D01*
Y79322D01*
X263610Y79310D01*
X263605Y79302D01*
X263602Y79290D01*
X263594Y79283D01*
X263590Y79275D01*
X263582Y79267D01*
X263578Y79259D01*
X263570Y79251D01*
X263562Y79243D01*
X263554Y79235D01*
X263546Y79228D01*
X263539Y79224D01*
X263531Y79216D01*
X263523Y79212D01*
X263515Y79204D01*
X263503Y79200D01*
X263495Y79196D01*
X263484Y79192D01*
X263476D01*
X263464Y79188D01*
X263456D01*
X263444Y79184D01*
X261436D01*
X261424Y79188D01*
X261417D01*
X261405Y79192D01*
X261397D01*
X261385Y79196D01*
X261377Y79200D01*
X261365Y79204D01*
X261357Y79212D01*
X261350Y79216D01*
X261342Y79224D01*
X261334Y79228D01*
X261326Y79235D01*
X261318Y79243D01*
X261310Y79251D01*
X261302Y79259D01*
X261298Y79267D01*
X261291Y79275D01*
X261287Y79283D01*
X261279Y79290D01*
X261275Y79302D01*
X261271Y79310D01*
X261267Y79322D01*
Y79330D01*
X261263Y79342D01*
Y79350D01*
X261259Y79361D01*
Y79369D01*
Y79381D01*
Y80168D01*
Y80180D01*
Y80188D01*
X261263Y80200D01*
Y80208D01*
X261267Y80220D01*
Y80228D01*
X261271Y80239D01*
X261275Y80247D01*
X261279Y80259D01*
X261287Y80267D01*
X261291Y80275D01*
X261298Y80283D01*
X261302Y80291D01*
X261310Y80298D01*
X261318Y80306D01*
X261326Y80314D01*
X261334Y80322D01*
X261342Y80326D01*
X261350Y80334D01*
X261357Y80338D01*
X261365Y80346D01*
X261377Y80350D01*
X261385Y80353D01*
X261397Y80357D01*
X261405D01*
X261417Y80361D01*
X261424D01*
X261436Y80365D01*
X263444D01*
X263456Y80361D01*
D02*
G37*
G36*
X255976D02*
X255983D01*
X255995Y80357D01*
X256003D01*
X256015Y80353D01*
X256023Y80350D01*
X256035Y80346D01*
X256043Y80338D01*
X256050Y80334D01*
X256058Y80326D01*
X256066Y80322D01*
X256074Y80314D01*
X256082Y80306D01*
X256090Y80298D01*
X256098Y80291D01*
X256102Y80283D01*
X256109Y80275D01*
X256113Y80267D01*
X256121Y80259D01*
X256125Y80247D01*
X256129Y80239D01*
X256133Y80228D01*
Y80220D01*
X256137Y80208D01*
Y80200D01*
X256141Y80188D01*
Y80180D01*
Y80168D01*
Y79381D01*
Y79369D01*
Y79361D01*
X256137Y79350D01*
Y79342D01*
X256133Y79330D01*
Y79322D01*
X256129Y79310D01*
X256125Y79302D01*
X256121Y79290D01*
X256113Y79283D01*
X256109Y79275D01*
X256102Y79267D01*
X256098Y79259D01*
X256090Y79251D01*
X256082Y79243D01*
X256074Y79235D01*
X256066Y79228D01*
X256058Y79224D01*
X256050Y79216D01*
X256043Y79212D01*
X256035Y79204D01*
X256023Y79200D01*
X256015Y79196D01*
X256003Y79192D01*
X255995D01*
X255983Y79188D01*
X255976D01*
X255964Y79184D01*
X253956D01*
X253944Y79188D01*
X253936D01*
X253924Y79192D01*
X253917D01*
X253905Y79196D01*
X253897Y79200D01*
X253885Y79204D01*
X253877Y79212D01*
X253869Y79216D01*
X253861Y79224D01*
X253854Y79228D01*
X253846Y79235D01*
X253838Y79243D01*
X253830Y79251D01*
X253822Y79259D01*
X253818Y79267D01*
X253810Y79275D01*
X253806Y79283D01*
X253798Y79290D01*
X253795Y79302D01*
X253790Y79310D01*
X253787Y79322D01*
Y79330D01*
X253783Y79342D01*
Y79350D01*
X253779Y79361D01*
Y79369D01*
Y79381D01*
Y80168D01*
Y80180D01*
Y80188D01*
X253783Y80200D01*
Y80208D01*
X253787Y80220D01*
Y80228D01*
X253790Y80239D01*
X253795Y80247D01*
X253798Y80259D01*
X253806Y80267D01*
X253810Y80275D01*
X253818Y80283D01*
X253822Y80291D01*
X253830Y80298D01*
X253838Y80306D01*
X253846Y80314D01*
X253854Y80322D01*
X253861Y80326D01*
X253869Y80334D01*
X253877Y80338D01*
X253885Y80346D01*
X253897Y80350D01*
X253905Y80353D01*
X253917Y80357D01*
X253924D01*
X253936Y80361D01*
X253944D01*
X253956Y80365D01*
X255964D01*
X255976Y80361D01*
D02*
G37*
G36*
X263456Y78787D02*
X263464D01*
X263476Y78783D01*
X263484D01*
X263495Y78779D01*
X263503Y78775D01*
X263515Y78771D01*
X263523Y78763D01*
X263531Y78759D01*
X263539Y78751D01*
X263546Y78747D01*
X263554Y78739D01*
X263562Y78732D01*
X263570Y78724D01*
X263578Y78716D01*
X263582Y78708D01*
X263590Y78700D01*
X263594Y78692D01*
X263602Y78684D01*
X263605Y78672D01*
X263610Y78665D01*
X263613Y78653D01*
Y78645D01*
X263617Y78633D01*
Y78625D01*
X263621Y78613D01*
Y78606D01*
Y78594D01*
Y77806D01*
Y77794D01*
Y77787D01*
X263617Y77775D01*
Y77767D01*
X263613Y77755D01*
Y77747D01*
X263610Y77735D01*
X263605Y77728D01*
X263602Y77716D01*
X263594Y77708D01*
X263590Y77700D01*
X263582Y77692D01*
X263578Y77684D01*
X263570Y77676D01*
X263562Y77668D01*
X263554Y77661D01*
X263546Y77653D01*
X263539Y77649D01*
X263531Y77641D01*
X263523Y77637D01*
X263515Y77629D01*
X263503Y77625D01*
X263495Y77621D01*
X263484Y77617D01*
X263476D01*
X263464Y77613D01*
X263456D01*
X263444Y77609D01*
X261436D01*
X261424Y77613D01*
X261417D01*
X261405Y77617D01*
X261397D01*
X261385Y77621D01*
X261377Y77625D01*
X261365Y77629D01*
X261357Y77637D01*
X261350Y77641D01*
X261342Y77649D01*
X261334Y77653D01*
X261326Y77661D01*
X261318Y77668D01*
X261310Y77676D01*
X261302Y77684D01*
X261298Y77692D01*
X261291Y77700D01*
X261287Y77708D01*
X261279Y77716D01*
X261275Y77728D01*
X261271Y77735D01*
X261267Y77747D01*
Y77755D01*
X261263Y77767D01*
Y77775D01*
X261259Y77787D01*
Y77794D01*
Y77806D01*
Y78594D01*
Y78606D01*
Y78613D01*
X261263Y78625D01*
Y78633D01*
X261267Y78645D01*
Y78653D01*
X261271Y78665D01*
X261275Y78672D01*
X261279Y78684D01*
X261287Y78692D01*
X261291Y78700D01*
X261298Y78708D01*
X261302Y78716D01*
X261310Y78724D01*
X261318Y78732D01*
X261326Y78739D01*
X261334Y78747D01*
X261342Y78751D01*
X261350Y78759D01*
X261357Y78763D01*
X261365Y78771D01*
X261377Y78775D01*
X261385Y78779D01*
X261397Y78783D01*
X261405D01*
X261417Y78787D01*
X261424D01*
X261436Y78790D01*
X263444D01*
X263456Y78787D01*
D02*
G37*
G36*
X255976D02*
X255983D01*
X255995Y78783D01*
X256003D01*
X256015Y78779D01*
X256023Y78775D01*
X256035Y78771D01*
X256043Y78763D01*
X256050Y78759D01*
X256058Y78751D01*
X256066Y78747D01*
X256074Y78739D01*
X256082Y78732D01*
X256090Y78724D01*
X256098Y78716D01*
X256102Y78708D01*
X256109Y78700D01*
X256113Y78692D01*
X256121Y78684D01*
X256125Y78672D01*
X256129Y78665D01*
X256133Y78653D01*
Y78645D01*
X256137Y78633D01*
Y78625D01*
X256141Y78613D01*
Y78606D01*
Y78594D01*
Y77806D01*
Y77794D01*
Y77787D01*
X256137Y77775D01*
Y77767D01*
X256133Y77755D01*
Y77747D01*
X256129Y77735D01*
X256125Y77728D01*
X256121Y77716D01*
X256113Y77708D01*
X256109Y77700D01*
X256102Y77692D01*
X256098Y77684D01*
X256090Y77676D01*
X256082Y77668D01*
X256074Y77661D01*
X256066Y77653D01*
X256058Y77649D01*
X256050Y77641D01*
X256043Y77637D01*
X256035Y77629D01*
X256023Y77625D01*
X256015Y77621D01*
X256003Y77617D01*
X255995D01*
X255983Y77613D01*
X255976D01*
X255964Y77609D01*
X253956D01*
X253944Y77613D01*
X253936D01*
X253924Y77617D01*
X253917D01*
X253905Y77621D01*
X253897Y77625D01*
X253885Y77629D01*
X253877Y77637D01*
X253869Y77641D01*
X253861Y77649D01*
X253854Y77653D01*
X253846Y77661D01*
X253838Y77668D01*
X253830Y77676D01*
X253822Y77684D01*
X253818Y77692D01*
X253810Y77700D01*
X253806Y77708D01*
X253798Y77716D01*
X253795Y77728D01*
X253790Y77735D01*
X253787Y77747D01*
Y77755D01*
X253783Y77767D01*
Y77775D01*
X253779Y77787D01*
Y77794D01*
Y77806D01*
Y78594D01*
Y78606D01*
Y78613D01*
X253783Y78625D01*
Y78633D01*
X253787Y78645D01*
Y78653D01*
X253790Y78665D01*
X253795Y78672D01*
X253798Y78684D01*
X253806Y78692D01*
X253810Y78700D01*
X253818Y78708D01*
X253822Y78716D01*
X253830Y78724D01*
X253838Y78732D01*
X253846Y78739D01*
X253854Y78747D01*
X253861Y78751D01*
X253869Y78759D01*
X253877Y78763D01*
X253885Y78771D01*
X253897Y78775D01*
X253905Y78779D01*
X253917Y78783D01*
X253924D01*
X253936Y78787D01*
X253944D01*
X253956Y78790D01*
X255964D01*
X255976Y78787D01*
D02*
G37*
G36*
X263456Y77212D02*
X263464D01*
X263476Y77208D01*
X263484D01*
X263495Y77204D01*
X263503Y77200D01*
X263515Y77196D01*
X263523Y77188D01*
X263531Y77184D01*
X263539Y77176D01*
X263546Y77172D01*
X263554Y77165D01*
X263562Y77157D01*
X263570Y77149D01*
X263578Y77141D01*
X263582Y77133D01*
X263590Y77125D01*
X263594Y77117D01*
X263602Y77109D01*
X263605Y77098D01*
X263610Y77090D01*
X263613Y77078D01*
Y77070D01*
X263617Y77058D01*
Y77050D01*
X263621Y77039D01*
Y77031D01*
Y77019D01*
Y76231D01*
Y76220D01*
Y76212D01*
X263617Y76200D01*
Y76192D01*
X263613Y76180D01*
Y76172D01*
X263610Y76161D01*
X263605Y76153D01*
X263602Y76141D01*
X263594Y76133D01*
X263590Y76125D01*
X263582Y76117D01*
X263578Y76109D01*
X263570Y76102D01*
X263562Y76094D01*
X263554Y76086D01*
X263546Y76078D01*
X263539Y76074D01*
X263531Y76066D01*
X263523Y76062D01*
X263515Y76054D01*
X263503Y76050D01*
X263495Y76047D01*
X263484Y76042D01*
X263476D01*
X263464Y76039D01*
X263456D01*
X263444Y76035D01*
X261436D01*
X261424Y76039D01*
X261417D01*
X261405Y76042D01*
X261397D01*
X261385Y76047D01*
X261377Y76050D01*
X261365Y76054D01*
X261357Y76062D01*
X261350Y76066D01*
X261342Y76074D01*
X261334Y76078D01*
X261326Y76086D01*
X261318Y76094D01*
X261310Y76102D01*
X261302Y76109D01*
X261298Y76117D01*
X261291Y76125D01*
X261287Y76133D01*
X261279Y76141D01*
X261275Y76153D01*
X261271Y76161D01*
X261267Y76172D01*
Y76180D01*
X261263Y76192D01*
Y76200D01*
X261259Y76212D01*
Y76220D01*
Y76231D01*
Y77019D01*
Y77031D01*
Y77039D01*
X261263Y77050D01*
Y77058D01*
X261267Y77070D01*
Y77078D01*
X261271Y77090D01*
X261275Y77098D01*
X261279Y77109D01*
X261287Y77117D01*
X261291Y77125D01*
X261298Y77133D01*
X261302Y77141D01*
X261310Y77149D01*
X261318Y77157D01*
X261326Y77165D01*
X261334Y77172D01*
X261342Y77176D01*
X261350Y77184D01*
X261357Y77188D01*
X261365Y77196D01*
X261377Y77200D01*
X261385Y77204D01*
X261397Y77208D01*
X261405D01*
X261417Y77212D01*
X261424D01*
X261436Y77216D01*
X263444D01*
X263456Y77212D01*
D02*
G37*
G36*
X255976D02*
X255983D01*
X255995Y77208D01*
X256003D01*
X256015Y77204D01*
X256023Y77200D01*
X256035Y77196D01*
X256043Y77188D01*
X256050Y77184D01*
X256058Y77176D01*
X256066Y77172D01*
X256074Y77165D01*
X256082Y77157D01*
X256090Y77149D01*
X256098Y77141D01*
X256102Y77133D01*
X256109Y77125D01*
X256113Y77117D01*
X256121Y77109D01*
X256125Y77098D01*
X256129Y77090D01*
X256133Y77078D01*
Y77070D01*
X256137Y77058D01*
Y77050D01*
X256141Y77039D01*
Y77031D01*
Y77019D01*
Y76231D01*
Y76220D01*
Y76212D01*
X256137Y76200D01*
Y76192D01*
X256133Y76180D01*
Y76172D01*
X256129Y76161D01*
X256125Y76153D01*
X256121Y76141D01*
X256113Y76133D01*
X256109Y76125D01*
X256102Y76117D01*
X256098Y76109D01*
X256090Y76102D01*
X256082Y76094D01*
X256074Y76086D01*
X256066Y76078D01*
X256058Y76074D01*
X256050Y76066D01*
X256043Y76062D01*
X256035Y76054D01*
X256023Y76050D01*
X256015Y76047D01*
X256003Y76042D01*
X255995D01*
X255983Y76039D01*
X255976D01*
X255964Y76035D01*
X253956D01*
X253944Y76039D01*
X253936D01*
X253924Y76042D01*
X253917D01*
X253905Y76047D01*
X253897Y76050D01*
X253885Y76054D01*
X253877Y76062D01*
X253869Y76066D01*
X253861Y76074D01*
X253854Y76078D01*
X253846Y76086D01*
X253838Y76094D01*
X253830Y76102D01*
X253822Y76109D01*
X253818Y76117D01*
X253810Y76125D01*
X253806Y76133D01*
X253798Y76141D01*
X253795Y76153D01*
X253790Y76161D01*
X253787Y76172D01*
Y76180D01*
X253783Y76192D01*
Y76200D01*
X253779Y76212D01*
Y76220D01*
Y76231D01*
Y77019D01*
Y77031D01*
Y77039D01*
X253783Y77050D01*
Y77058D01*
X253787Y77070D01*
Y77078D01*
X253790Y77090D01*
X253795Y77098D01*
X253798Y77109D01*
X253806Y77117D01*
X253810Y77125D01*
X253818Y77133D01*
X253822Y77141D01*
X253830Y77149D01*
X253838Y77157D01*
X253846Y77165D01*
X253854Y77172D01*
X253861Y77176D01*
X253869Y77184D01*
X253877Y77188D01*
X253885Y77196D01*
X253897Y77200D01*
X253905Y77204D01*
X253917Y77208D01*
X253924D01*
X253936Y77212D01*
X253944D01*
X253956Y77216D01*
X255964D01*
X255976Y77212D01*
D02*
G37*
G36*
X260503Y81346D02*
X260511D01*
X260523Y81342D01*
X260531D01*
X260542Y81338D01*
X260550Y81334D01*
X260562Y81330D01*
X260570Y81322D01*
X260578Y81318D01*
X260586Y81310D01*
X260594Y81306D01*
X260602Y81298D01*
X260610Y81291D01*
X260617Y81283D01*
X260625Y81275D01*
X260629Y81267D01*
X260637Y81259D01*
X260641Y81251D01*
X260649Y81243D01*
X260653Y81231D01*
X260657Y81224D01*
X260661Y81212D01*
Y81204D01*
X260665Y81192D01*
Y81184D01*
X260668Y81172D01*
Y81165D01*
Y81153D01*
Y75247D01*
Y75235D01*
Y75228D01*
X260665Y75216D01*
Y75208D01*
X260661Y75196D01*
Y75188D01*
X260657Y75176D01*
X260653Y75169D01*
X260649Y75157D01*
X260641Y75149D01*
X260637Y75141D01*
X260629Y75133D01*
X260625Y75125D01*
X260617Y75117D01*
X260610Y75109D01*
X260602Y75102D01*
X260594Y75094D01*
X260586Y75090D01*
X260578Y75082D01*
X260570Y75078D01*
X260562Y75070D01*
X260550Y75066D01*
X260542Y75062D01*
X260531Y75058D01*
X260523D01*
X260511Y75054D01*
X260503D01*
X260491Y75050D01*
X256909D01*
X256897Y75054D01*
X256889D01*
X256877Y75058D01*
X256869D01*
X256857Y75062D01*
X256850Y75066D01*
X256838Y75070D01*
X256830Y75078D01*
X256822Y75082D01*
X256814Y75090D01*
X256806Y75094D01*
X256798Y75102D01*
X256790Y75109D01*
X256783Y75117D01*
X256775Y75125D01*
X256771Y75133D01*
X256763Y75141D01*
X256759Y75149D01*
X256751Y75157D01*
X256747Y75169D01*
X256743Y75176D01*
X256739Y75188D01*
Y75196D01*
X256735Y75208D01*
Y75216D01*
X256732Y75228D01*
Y75235D01*
Y75247D01*
Y81153D01*
Y81165D01*
Y81172D01*
X256735Y81184D01*
Y81192D01*
X256739Y81204D01*
Y81212D01*
X256743Y81224D01*
X256747Y81231D01*
X256751Y81243D01*
X256759Y81251D01*
X256763Y81259D01*
X256771Y81267D01*
X256775Y81275D01*
X256783Y81283D01*
X256790Y81291D01*
X256798Y81298D01*
X256806Y81306D01*
X256814Y81310D01*
X256822Y81318D01*
X256830Y81322D01*
X256838Y81330D01*
X256850Y81334D01*
X256857Y81338D01*
X256869Y81342D01*
X256877D01*
X256889Y81346D01*
X256897D01*
X256909Y81350D01*
X260491D01*
X260503Y81346D01*
D02*
G37*
G36*
X263456Y75637D02*
X263464D01*
X263476Y75633D01*
X263484D01*
X263495Y75629D01*
X263503Y75625D01*
X263515Y75621D01*
X263523Y75613D01*
X263531Y75609D01*
X263539Y75602D01*
X263546Y75598D01*
X263554Y75590D01*
X263562Y75582D01*
X263570Y75574D01*
X263578Y75566D01*
X263582Y75558D01*
X263590Y75550D01*
X263594Y75542D01*
X263602Y75535D01*
X263605Y75523D01*
X263610Y75515D01*
X263613Y75503D01*
Y75495D01*
X263617Y75484D01*
Y75476D01*
X263621Y75464D01*
Y75456D01*
Y75444D01*
Y74657D01*
Y74645D01*
Y74637D01*
X263617Y74625D01*
Y74617D01*
X263613Y74606D01*
Y74598D01*
X263610Y74586D01*
X263605Y74578D01*
X263602Y74566D01*
X263594Y74558D01*
X263590Y74550D01*
X263582Y74542D01*
X263578Y74535D01*
X263570Y74527D01*
X263562Y74519D01*
X263554Y74511D01*
X263546Y74503D01*
X263539Y74499D01*
X263531Y74491D01*
X263523Y74487D01*
X263515Y74480D01*
X263503Y74476D01*
X263495Y74472D01*
X263484Y74468D01*
X263476D01*
X263464Y74464D01*
X263456D01*
X263444Y74460D01*
X261436D01*
X261424Y74464D01*
X261417D01*
X261405Y74468D01*
X261397D01*
X261385Y74472D01*
X261377Y74476D01*
X261365Y74480D01*
X261357Y74487D01*
X261350Y74491D01*
X261342Y74499D01*
X261334Y74503D01*
X261326Y74511D01*
X261318Y74519D01*
X261310Y74527D01*
X261302Y74535D01*
X261298Y74542D01*
X261291Y74550D01*
X261287Y74558D01*
X261279Y74566D01*
X261275Y74578D01*
X261271Y74586D01*
X261267Y74598D01*
Y74606D01*
X261263Y74617D01*
Y74625D01*
X261259Y74637D01*
Y74645D01*
Y74657D01*
Y75444D01*
Y75456D01*
Y75464D01*
X261263Y75476D01*
Y75484D01*
X261267Y75495D01*
Y75503D01*
X261271Y75515D01*
X261275Y75523D01*
X261279Y75535D01*
X261287Y75542D01*
X261291Y75550D01*
X261298Y75558D01*
X261302Y75566D01*
X261310Y75574D01*
X261318Y75582D01*
X261326Y75590D01*
X261334Y75598D01*
X261342Y75602D01*
X261350Y75609D01*
X261357Y75613D01*
X261365Y75621D01*
X261377Y75625D01*
X261385Y75629D01*
X261397Y75633D01*
X261405D01*
X261417Y75637D01*
X261424D01*
X261436Y75641D01*
X263444D01*
X263456Y75637D01*
D02*
G37*
G36*
X255976D02*
X255983D01*
X255995Y75633D01*
X256003D01*
X256015Y75629D01*
X256023Y75625D01*
X256035Y75621D01*
X256043Y75613D01*
X256050Y75609D01*
X256058Y75602D01*
X256066Y75598D01*
X256074Y75590D01*
X256082Y75582D01*
X256090Y75574D01*
X256098Y75566D01*
X256102Y75558D01*
X256109Y75550D01*
X256113Y75542D01*
X256121Y75535D01*
X256125Y75523D01*
X256129Y75515D01*
X256133Y75503D01*
Y75495D01*
X256137Y75484D01*
Y75476D01*
X256141Y75464D01*
Y75456D01*
Y75444D01*
Y74657D01*
Y74645D01*
Y74637D01*
X256137Y74625D01*
Y74617D01*
X256133Y74606D01*
Y74598D01*
X256129Y74586D01*
X256125Y74578D01*
X256121Y74566D01*
X256113Y74558D01*
X256109Y74550D01*
X256102Y74542D01*
X256098Y74535D01*
X256090Y74527D01*
X256082Y74519D01*
X256074Y74511D01*
X256066Y74503D01*
X256058Y74499D01*
X256050Y74491D01*
X256043Y74487D01*
X256035Y74480D01*
X256023Y74476D01*
X256015Y74472D01*
X256003Y74468D01*
X255995D01*
X255983Y74464D01*
X255976D01*
X255964Y74460D01*
X253956D01*
X253944Y74464D01*
X253936D01*
X253924Y74468D01*
X253917D01*
X253905Y74472D01*
X253897Y74476D01*
X253885Y74480D01*
X253877Y74487D01*
X253869Y74491D01*
X253861Y74499D01*
X253854Y74503D01*
X253846Y74511D01*
X253838Y74519D01*
X253830Y74527D01*
X253822Y74535D01*
X253818Y74542D01*
X253810Y74550D01*
X253806Y74558D01*
X253798Y74566D01*
X253795Y74578D01*
X253790Y74586D01*
X253787Y74598D01*
Y74606D01*
X253783Y74617D01*
Y74625D01*
X253779Y74637D01*
Y74645D01*
Y74657D01*
Y75444D01*
Y75456D01*
Y75464D01*
X253783Y75476D01*
Y75484D01*
X253787Y75495D01*
Y75503D01*
X253790Y75515D01*
X253795Y75523D01*
X253798Y75535D01*
X253806Y75542D01*
X253810Y75550D01*
X253818Y75558D01*
X253822Y75566D01*
X253830Y75574D01*
X253838Y75582D01*
X253846Y75590D01*
X253854Y75598D01*
X253861Y75602D01*
X253869Y75609D01*
X253877Y75613D01*
X253885Y75621D01*
X253897Y75625D01*
X253905Y75629D01*
X253917Y75633D01*
X253924D01*
X253936Y75637D01*
X253944D01*
X253956Y75641D01*
X255964D01*
X255976Y75637D01*
D02*
G37*
D21*
X205300Y101100D02*
D03*
D22*
X200576Y107000D02*
D03*
X202150D02*
D03*
X203725D02*
D03*
X205300D02*
D03*
X206875D02*
D03*
X208450D02*
D03*
X210024D02*
D03*
Y95200D02*
D03*
X208450D02*
D03*
X206875D02*
D03*
X205300D02*
D03*
X203725D02*
D03*
X202150D02*
D03*
X200576D02*
D03*
D23*
X125990Y86510D02*
D03*
X131500D02*
D03*
Y81000D02*
D03*
X125990D02*
D03*
X120480D02*
D03*
Y86510D02*
D03*
Y92020D02*
D03*
X125990D02*
D03*
X131500D02*
D03*
D24*
X156390Y46150D02*
D03*
X151390D02*
D03*
X146390D02*
D03*
X141390D02*
D03*
X136390D02*
D03*
X131390D02*
D03*
X126390D02*
D03*
X121390D02*
D03*
X116390D02*
D03*
X111390D02*
D03*
X106390D02*
D03*
X101390D02*
D03*
X96390D02*
D03*
X91390D02*
D03*
Y115050D02*
D03*
X96390D02*
D03*
X101390D02*
D03*
X106390D02*
D03*
X111390D02*
D03*
X116390D02*
D03*
X121390D02*
D03*
X126390D02*
D03*
X131390D02*
D03*
X136390D02*
D03*
X141390D02*
D03*
X146390D02*
D03*
X151390D02*
D03*
X156390D02*
D03*
D25*
X86465Y58100D02*
D03*
Y63100D02*
D03*
Y68100D02*
D03*
Y73100D02*
D03*
Y78100D02*
D03*
Y83100D02*
D03*
Y88100D02*
D03*
Y93100D02*
D03*
Y98100D02*
D03*
Y103100D02*
D03*
D31*
X208688Y14295D02*
D03*
Y16263D02*
D03*
Y18232D02*
D03*
Y20200D02*
D03*
Y22169D02*
D03*
Y24137D02*
D03*
Y26105D02*
D03*
X227512D02*
D03*
Y24137D02*
D03*
Y22169D02*
D03*
Y20200D02*
D03*
Y18232D02*
D03*
Y16263D02*
D03*
Y14295D02*
D03*
D32*
X212194Y29612D02*
D03*
X214163D02*
D03*
X216131D02*
D03*
X218100D02*
D03*
X220069D02*
D03*
X222037D02*
D03*
X224006D02*
D03*
Y10789D02*
D03*
X222037D02*
D03*
X220069D02*
D03*
X218100D02*
D03*
X216131D02*
D03*
X214163D02*
D03*
D33*
X212194D02*
D03*
D35*
X253941Y114900D02*
D03*
X256500D02*
D03*
X259059D02*
D03*
Y106700D02*
D03*
X256500D02*
D03*
X253941D02*
D03*
D38*
X289300Y57024D02*
D03*
Y47576D02*
D03*
D39*
X279654Y64898D02*
D03*
Y39702D02*
D03*
D40*
X278768Y57418D02*
D03*
Y54859D02*
D03*
Y52300D02*
D03*
Y49741D02*
D03*
Y47182D02*
D03*
D41*
X247100Y69956D02*
D03*
Y64444D02*
D03*
X241200Y69956D02*
D03*
Y64444D02*
D03*
X247100Y75444D02*
D03*
Y80956D02*
D03*
X199438Y71604D02*
D03*
Y77116D02*
D03*
X232538Y77616D02*
D03*
Y72104D02*
D03*
X226638Y74772D02*
D03*
Y69260D02*
D03*
X247200Y8688D02*
D03*
Y14200D02*
D03*
X235100Y8644D02*
D03*
Y14156D02*
D03*
X133300Y25844D02*
D03*
Y31356D02*
D03*
X247300Y28256D02*
D03*
Y22744D02*
D03*
X143700Y25644D02*
D03*
Y31156D02*
D03*
X179500Y6144D02*
D03*
Y11656D02*
D03*
X235100Y28256D02*
D03*
Y22744D02*
D03*
X191600Y35156D02*
D03*
Y29644D02*
D03*
X267100Y140644D02*
D03*
Y146156D02*
D03*
X27800Y16956D02*
D03*
Y11444D02*
D03*
X27900Y140744D02*
D03*
Y146256D02*
D03*
D42*
X262572Y66638D02*
D03*
X258832D02*
D03*
X255091D02*
D03*
X262572Y56362D02*
D03*
X258832D02*
D03*
X255091D02*
D03*
D43*
X269300Y76100D02*
D03*
X274812D02*
D03*
X274756Y82000D02*
D03*
X269244D02*
D03*
X274756Y87900D02*
D03*
X269244D02*
D03*
X230856Y50800D02*
D03*
X225344D02*
D03*
X207656D02*
D03*
X202144D02*
D03*
X208482Y85560D02*
D03*
X213994D02*
D03*
X66756Y67000D02*
D03*
X61244D02*
D03*
X66756Y99000D02*
D03*
X61244D02*
D03*
X66756Y130000D02*
D03*
X61244D02*
D03*
X66756Y36000D02*
D03*
X61244D02*
D03*
X66756Y8000D02*
D03*
X61244D02*
D03*
X247556Y92700D02*
D03*
X242044D02*
D03*
X276644Y129800D02*
D03*
X282156D02*
D03*
X138988Y131800D02*
D03*
X144500D02*
D03*
X121500Y123900D02*
D03*
X115988D02*
D03*
X155300Y139900D02*
D03*
X160812D02*
D03*
X155300Y147600D02*
D03*
X160812D02*
D03*
X133556Y37100D02*
D03*
X128044D02*
D03*
X216644Y97600D02*
D03*
X222156D02*
D03*
X216644Y107200D02*
D03*
X222156D02*
D03*
X222156Y113100D02*
D03*
X216644D02*
D03*
X288156Y26700D02*
D03*
X282644D02*
D03*
X201544Y113100D02*
D03*
X207056D02*
D03*
X108744Y25200D02*
D03*
X114256D02*
D03*
X152100Y123800D02*
D03*
X157612D02*
D03*
X152100Y131800D02*
D03*
X157612D02*
D03*
X144400Y123800D02*
D03*
X138888D02*
D03*
X197444Y85600D02*
D03*
X202956D02*
D03*
D44*
X263160Y19963D02*
D03*
X270640D02*
D03*
X266900Y27837D02*
D03*
D45*
X182976Y36440D02*
D03*
Y28960D02*
D03*
X175024Y32700D02*
D03*
X196000Y9200D02*
D03*
X188047Y12940D02*
D03*
Y5460D02*
D03*
D46*
X271685Y37200D02*
D03*
X262315D02*
D03*
X271685Y43500D02*
D03*
X262315D02*
D03*
X274815Y122600D02*
D03*
X284185D02*
D03*
D47*
X224752Y43800D02*
D03*
X231248D02*
D03*
X201608D02*
D03*
X208104D02*
D03*
X241452Y99800D02*
D03*
X247948D02*
D03*
X115752Y131700D02*
D03*
X122248D02*
D03*
X167152Y139900D02*
D03*
X173648D02*
D03*
X167108Y147700D02*
D03*
X173604D02*
D03*
D48*
X218100Y20200D02*
D03*
D49*
X208500Y78500D02*
D03*
Y74760D02*
D03*
Y71020D02*
D03*
X218776Y78500D02*
D03*
Y74760D02*
D03*
Y71020D02*
D03*
D50*
X71400Y112700D02*
D03*
Y105300D02*
D03*
X60600D02*
D03*
Y109000D02*
D03*
Y112700D02*
D03*
X71400Y143700D02*
D03*
Y136300D02*
D03*
X60600D02*
D03*
Y140000D02*
D03*
Y143700D02*
D03*
X71400Y49700D02*
D03*
Y42300D02*
D03*
X60600D02*
D03*
Y46000D02*
D03*
Y49700D02*
D03*
X71400Y80700D02*
D03*
Y73300D02*
D03*
X60600D02*
D03*
Y77000D02*
D03*
Y80700D02*
D03*
X71400Y21700D02*
D03*
Y14300D02*
D03*
X60600D02*
D03*
Y18000D02*
D03*
Y21700D02*
D03*
D51*
X241800Y149024D02*
D03*
Y126976D02*
D03*
X204000Y149024D02*
D03*
Y126976D02*
D03*
D52*
X49500Y124500D02*
D03*
Y114500D02*
D03*
Y104500D02*
D03*
Y94500D02*
D03*
Y84500D02*
D03*
Y74500D02*
D03*
Y64500D02*
D03*
Y54500D02*
D03*
Y44500D02*
D03*
D53*
Y34500D02*
D03*
D54*
X289300Y65292D02*
D03*
Y39308D02*
D03*
D55*
X106500Y15200D02*
D03*
X142500Y143500D02*
D03*
X106500D02*
D03*
D56*
X116500Y15200D02*
D03*
X132500Y143500D02*
D03*
X116500D02*
D03*
D57*
X270400Y100326D02*
D03*
D58*
Y108200D02*
D03*
D59*
X283000Y146000D02*
D03*
Y12000D02*
D03*
X12500D02*
D03*
Y146000D02*
D03*
M02*
