G04*
G04 #@! TF.GenerationSoftware,Altium Limited,Altium Designer,22.6.1 (34)*
G04*
G04 Layer_Physical_Order=1*
G04 Layer_Color=255*
%FSLAX25Y25*%
%MOIN*%
G70*
G04*
G04 #@! TF.SameCoordinates,BE1EFFB1-D3A5-4C51-9803-2DA18C35BCD8*
G04*
G04*
G04 #@! TF.FilePolarity,Positive*
G04*
G01*
G75*
%ADD10C,0.00500*%
G04:AMPARAMS|DCode=15|XSize=19.68mil|YSize=7.87mil|CornerRadius=1.97mil|HoleSize=0mil|Usage=FLASHONLY|Rotation=0.000|XOffset=0mil|YOffset=0mil|HoleType=Round|Shape=RoundedRectangle|*
%AMROUNDEDRECTD15*
21,1,0.01968,0.00394,0,0,0.0*
21,1,0.01575,0.00787,0,0,0.0*
1,1,0.00394,0.00787,-0.00197*
1,1,0.00394,-0.00787,-0.00197*
1,1,0.00394,-0.00787,0.00197*
1,1,0.00394,0.00787,0.00197*
%
%ADD15ROUNDEDRECTD15*%
%ADD16R,0.07480X0.07480*%
%ADD17R,0.05512X0.06299*%
%ADD18R,0.05315X0.01200*%
%ADD19R,0.03543X0.03150*%
G04:AMPARAMS|DCode=20|XSize=57.09mil|YSize=23.23mil|CornerRadius=2.9mil|HoleSize=0mil|Usage=FLASHONLY|Rotation=90.000|XOffset=0mil|YOffset=0mil|HoleType=Round|Shape=RoundedRectangle|*
%AMROUNDEDRECTD20*
21,1,0.05709,0.01742,0,0,90.0*
21,1,0.05128,0.02323,0,0,90.0*
1,1,0.00581,0.00871,0.02564*
1,1,0.00581,0.00871,-0.02564*
1,1,0.00581,-0.00871,-0.02564*
1,1,0.00581,-0.00871,0.02564*
%
%ADD20ROUNDEDRECTD20*%
%ADD21R,0.09400X0.07100*%
%ADD22R,0.01000X0.02800*%
%ADD23R,0.03500X0.03500*%
%ADD24R,0.03500X0.05900*%
%ADD25R,0.05900X0.03500*%
%ADD26R,0.03150X0.03543*%
%ADD27R,0.03150X0.03543*%
%ADD28R,0.03150X0.02362*%
%ADD29R,0.04095X0.01811*%
%ADD30R,0.03150X0.03150*%
G04:AMPARAMS|DCode=31|XSize=9.55mil|YSize=44.53mil|CornerRadius=4.77mil|HoleSize=0mil|Usage=FLASHONLY|Rotation=90.000|XOffset=0mil|YOffset=0mil|HoleType=Round|Shape=RoundedRectangle|*
%AMROUNDEDRECTD31*
21,1,0.00955,0.03498,0,0,90.0*
21,1,0.00000,0.04453,0,0,90.0*
1,1,0.00955,0.01749,0.00000*
1,1,0.00955,0.01749,0.00000*
1,1,0.00955,-0.01749,0.00000*
1,1,0.00955,-0.01749,0.00000*
%
%ADD31ROUNDEDRECTD31*%
G04:AMPARAMS|DCode=32|XSize=44.53mil|YSize=9.55mil|CornerRadius=4.77mil|HoleSize=0mil|Usage=FLASHONLY|Rotation=90.000|XOffset=0mil|YOffset=0mil|HoleType=Round|Shape=RoundedRectangle|*
%AMROUNDEDRECTD32*
21,1,0.04453,0.00000,0,0,90.0*
21,1,0.03498,0.00955,0,0,90.0*
1,1,0.00955,0.00000,0.01749*
1,1,0.00955,0.00000,-0.01749*
1,1,0.00955,0.00000,-0.01749*
1,1,0.00955,0.00000,0.01749*
%
%ADD32ROUNDEDRECTD32*%
%ADD33R,0.00955X0.04453*%
G04:AMPARAMS|DCode=34|XSize=57.09mil|YSize=23.23mil|CornerRadius=2.9mil|HoleSize=0mil|Usage=FLASHONLY|Rotation=0.000|XOffset=0mil|YOffset=0mil|HoleType=Round|Shape=RoundedRectangle|*
%AMROUNDEDRECTD34*
21,1,0.05709,0.01742,0,0,0.0*
21,1,0.05128,0.02323,0,0,0.0*
1,1,0.00581,0.02564,-0.00871*
1,1,0.00581,-0.02564,-0.00871*
1,1,0.00581,-0.02564,0.00871*
1,1,0.00581,0.02564,0.00871*
%
%ADD34ROUNDEDRECTD34*%
%ADD35R,0.00800X0.02700*%
%ADD36R,0.05200X0.02200*%
%ADD37R,0.06299X0.13780*%
%ADD48R,0.13189X0.13189*%
%ADD60R,0.00394X0.00394*%
%ADD61R,0.00900X0.03400*%
%ADD62C,0.01000*%
%ADD63C,0.01575*%
%ADD64C,0.04882*%
%ADD65R,0.04882X0.04882*%
%ADD66O,0.07087X0.03543*%
%ADD67C,0.06024*%
%ADD68R,0.06024X0.06024*%
%ADD69R,0.05150X0.05150*%
%ADD70C,0.05150*%
%ADD71C,0.19685*%
%ADD72C,0.01968*%
%ADD73C,0.02362*%
%ADD74C,0.03150*%
G36*
X272500Y127200D02*
X279600D01*
Y121600D01*
X277862D01*
Y122100D01*
X271768D01*
Y121600D01*
X251800D01*
Y113000D01*
X252436D01*
Y111300D01*
X253886D01*
Y110300D01*
X252436D01*
Y108100D01*
X252541D01*
Y107200D01*
X253941D01*
Y106700D01*
X254441D01*
Y104350D01*
X254697D01*
Y102200D01*
X238500D01*
Y93500D01*
X221100D01*
Y94828D01*
X221656D01*
Y97600D01*
Y100372D01*
X221100D01*
Y102000D01*
X222495D01*
X222496Y101998D01*
X223148Y101728D01*
X223852D01*
X224504Y101998D01*
X224505Y102000D01*
X226000D01*
Y104710D01*
X226058Y105000D01*
Y112000D01*
X226000Y112290D01*
Y138300D01*
X264541D01*
Y138282D01*
X269659D01*
Y138300D01*
X272500D01*
Y127200D01*
D02*
G37*
G36*
X295276Y136303D02*
X288454D01*
X288337Y136789D01*
X288571Y136908D01*
X289925Y137892D01*
X291108Y139075D01*
X292091Y140429D01*
X292851Y141920D01*
X293368Y143511D01*
X293630Y145163D01*
Y146837D01*
X293368Y148489D01*
X292851Y150081D01*
X292091Y151571D01*
X291108Y152925D01*
X289925Y154108D01*
X288571Y155092D01*
X287081Y155851D01*
X285489Y156368D01*
X283837Y156630D01*
X282163D01*
X280511Y156368D01*
X278920Y155851D01*
X277429Y155092D01*
X276075Y154108D01*
X274892Y152925D01*
X273908Y151571D01*
X273149Y150081D01*
X272632Y148489D01*
X272446Y147313D01*
X269659D01*
Y148518D01*
X264541D01*
Y143794D01*
X269659D01*
Y144687D01*
X272446D01*
X272632Y143511D01*
X273149Y141920D01*
X273908Y140429D01*
X274892Y139075D01*
X276075Y137892D01*
X277429Y136908D01*
X278920Y136149D01*
X279844Y135848D01*
X279858Y135807D01*
X279797Y135500D01*
Y132572D01*
X279831Y132404D01*
X279794Y132359D01*
X279794D01*
Y128603D01*
X279294Y128244D01*
X279219Y128270D01*
Y129300D01*
X276644D01*
X274069D01*
Y128003D01*
X273303D01*
Y138300D01*
X273242Y138607D01*
X273068Y138868D01*
X272807Y139042D01*
X272500Y139103D01*
X269872D01*
Y140144D01*
X267100D01*
X264328D01*
Y139103D01*
X226000D01*
X225693Y139042D01*
X225601Y139068D01*
X225503Y139133D01*
X225412Y139208D01*
X225373Y139220D01*
X225340Y139242D01*
X225225Y139265D01*
X225112Y139299D01*
X225072Y139295D01*
X225033Y139303D01*
X187300D01*
X186993Y139242D01*
X186732Y139068D01*
X186558Y138807D01*
X186497Y138500D01*
Y117186D01*
X186427Y117096D01*
X185997Y116830D01*
X185880Y116853D01*
X161480D01*
X161173Y116792D01*
X160912Y116618D01*
X160738Y116357D01*
X160677Y116050D01*
Y45150D01*
X160738Y44843D01*
X160912Y44582D01*
X161173Y44408D01*
X161480Y44347D01*
X185880D01*
X186187Y44408D01*
X186448Y44582D01*
X186622Y44843D01*
X186683Y45150D01*
Y80343D01*
X187183Y80701D01*
X187200Y80697D01*
X205081D01*
X205233Y80197D01*
X205159Y80148D01*
X204921Y79792D01*
X204837Y79371D01*
Y77629D01*
X204921Y77208D01*
X204968Y77138D01*
X205006Y76561D01*
X204720Y76134D01*
X204620Y75631D01*
Y75260D01*
X212380D01*
Y75631D01*
X212280Y76134D01*
X211994Y76561D01*
X212032Y77138D01*
X212079Y77208D01*
X212163Y77629D01*
Y79371D01*
X212079Y79792D01*
X211841Y80148D01*
X211485Y80386D01*
X211064Y80470D01*
X209813D01*
Y83001D01*
X210844D01*
Y88119D01*
X209794D01*
Y89701D01*
X210295Y90108D01*
X210400Y90087D01*
X215000D01*
X215502Y90187D01*
X215928Y90472D01*
X217572Y92116D01*
X217857Y92542D01*
X217957Y93044D01*
Y95041D01*
X219006D01*
Y100159D01*
X214282D01*
Y95041D01*
X215332D01*
Y93588D01*
X214456Y92713D01*
X211988D01*
X211524Y92800D01*
Y94700D01*
X210024D01*
Y95700D01*
X211524D01*
Y97600D01*
X211000D01*
Y100600D01*
X205300D01*
Y101600D01*
X211000D01*
Y104813D01*
X211312D01*
Y108287D01*
X213897D01*
X214282Y107903D01*
Y104641D01*
X219006D01*
Y104697D01*
X219581D01*
X219697Y104720D01*
X219794Y104641D01*
Y104641D01*
X222509D01*
X222681Y104141D01*
X222523Y103905D01*
X222442Y103500D01*
X222481Y103303D01*
X222201Y102864D01*
X222117Y102803D01*
X221100D01*
X220793Y102742D01*
X220532Y102568D01*
X220358Y102307D01*
X220297Y102000D01*
Y100372D01*
X220123Y100159D01*
X219794D01*
Y95041D01*
X220123D01*
X220297Y94828D01*
Y93500D01*
X220358Y93193D01*
X220532Y92932D01*
X220793Y92758D01*
X221100Y92697D01*
X238500D01*
X238807Y92758D01*
X239068Y92932D01*
X239182Y93103D01*
X239614Y93047D01*
X239682Y93020D01*
Y90903D01*
X238200D01*
X237893Y90842D01*
X237632Y90668D01*
X237458Y90407D01*
X237397Y90100D01*
Y87188D01*
X236897Y86920D01*
X236869Y86939D01*
X236862Y86958D01*
Y87470D01*
X236503Y88338D01*
X235838Y89003D01*
X234970Y89362D01*
X234030D01*
X233162Y89003D01*
X232497Y88338D01*
X232138Y87470D01*
Y86530D01*
X232497Y85662D01*
X233162Y84997D01*
X234030Y84638D01*
X234687D01*
Y79978D01*
X229979D01*
Y79813D01*
X222341D01*
X222116Y80148D01*
X221760Y80386D01*
X221340Y80470D01*
X216212D01*
X215791Y80386D01*
X215435Y80148D01*
X215196Y79792D01*
X215113Y79371D01*
Y77629D01*
X215196Y77208D01*
X215362Y76961D01*
X215405Y76630D01*
X215362Y76299D01*
X215196Y76051D01*
X215113Y75631D01*
Y73889D01*
X215196Y73468D01*
X215362Y73220D01*
X215405Y72890D01*
X215362Y72559D01*
X215196Y72311D01*
X215113Y71891D01*
Y70149D01*
X215196Y69728D01*
X215435Y69372D01*
X215791Y69133D01*
X216212Y69050D01*
X221340D01*
X221760Y69133D01*
X222116Y69372D01*
X222355Y69728D01*
X222438Y70149D01*
Y70273D01*
X222722Y70329D01*
X223148Y70614D01*
X223326Y70791D01*
X223866D01*
Y69760D01*
X226638D01*
X229409D01*
Y70791D01*
X229979D01*
Y69742D01*
X235097D01*
Y73524D01*
X235274Y73559D01*
X235700Y73843D01*
X236928Y75072D01*
X237213Y75498D01*
X237313Y76000D01*
Y78479D01*
X237813Y78712D01*
X237893Y78658D01*
X238200Y78597D01*
X244328D01*
X244496Y78631D01*
X244541Y78594D01*
Y78594D01*
X248126D01*
X248433Y78094D01*
X248395Y78019D01*
X247600D01*
Y75444D01*
X247100D01*
Y74944D01*
X244328D01*
Y73758D01*
X244141D01*
X243736Y73677D01*
X243393Y73448D01*
X242263Y72318D01*
X238641D01*
Y67594D01*
X243759D01*
Y70809D01*
X244097Y71086D01*
X244541Y70895D01*
Y67594D01*
X249659D01*
Y68898D01*
X250156D01*
X250561Y68979D01*
X250904Y69208D01*
X253116Y71420D01*
X253577Y71174D01*
X253542Y71000D01*
X253623Y70595D01*
X253443Y69979D01*
X253205Y69622D01*
X253121Y69202D01*
Y64074D01*
X253205Y63653D01*
X253443Y63297D01*
X253800Y63059D01*
X254220Y62975D01*
X255205D01*
X255605Y62575D01*
X255414Y62113D01*
X252500D01*
X251998Y62013D01*
X251572Y61728D01*
X246086Y56242D01*
X245801Y55817D01*
X245702Y55314D01*
X245801Y54812D01*
X246086Y54386D01*
X246512Y54102D01*
X247014Y54001D01*
X247516Y54102D01*
X247883Y54346D01*
X248201Y53958D01*
X226583Y32340D01*
X226299Y31914D01*
X226199Y31411D01*
Y27558D01*
X226195Y27557D01*
X225694Y27795D01*
Y27795D01*
X225351D01*
X225295Y27862D01*
Y31361D01*
X225197Y31854D01*
X224917Y32273D01*
X224499Y32552D01*
X224006Y32650D01*
X223512Y32552D01*
X223094Y32273D01*
X222949D01*
X222531Y32552D01*
X222037Y32650D01*
X221544Y32552D01*
X221459Y32496D01*
X221140Y32884D01*
X229669Y41413D01*
X230173D01*
X230300Y41438D01*
X233610D01*
Y46162D01*
X228886D01*
Y43990D01*
X228623Y43938D01*
X228197Y43653D01*
X227576Y43032D01*
X227114Y43224D01*
Y46162D01*
X226065D01*
Y48241D01*
X227706D01*
Y53359D01*
X222982D01*
Y48241D01*
X223439D01*
Y46162D01*
X222390D01*
Y41438D01*
X225328D01*
X225519Y40976D01*
X217571Y33027D01*
X217073Y33076D01*
X217060Y33097D01*
X209417Y40740D01*
Y41438D01*
X210466D01*
Y46162D01*
X205742D01*
Y41438D01*
X206791D01*
Y40196D01*
X206891Y39694D01*
X207176Y39268D01*
X213341Y33102D01*
X213247Y32571D01*
X212884Y32421D01*
X212688Y32552D01*
X212194Y32650D01*
X211701Y32552D01*
X211283Y32273D01*
X211003Y31854D01*
X210905Y31361D01*
Y27862D01*
X210849Y27795D01*
X210506D01*
Y27451D01*
X210438Y27395D01*
X206939D01*
X206446Y27297D01*
X206027Y27017D01*
X205748Y26599D01*
X205650Y26105D01*
X205748Y25612D01*
X205352Y25304D01*
X195214Y35442D01*
X194788Y35727D01*
X194286Y35827D01*
X194159D01*
Y37518D01*
X189041D01*
Y36469D01*
X185339D01*
Y38409D01*
X180614D01*
Y34472D01*
X183482D01*
X183726Y34228D01*
X183924Y34096D01*
X184152Y33943D01*
X184152Y33943D01*
X184152Y33943D01*
X184354Y33903D01*
X184654Y33843D01*
X189041D01*
Y32794D01*
X194150D01*
X203969Y22975D01*
X203778Y22513D01*
X203071D01*
X202715Y22869D01*
X201992Y23168D01*
X201208D01*
X200485Y22869D01*
X199931Y22315D01*
X199632Y21592D01*
Y20808D01*
X199931Y20085D01*
X200485Y19531D01*
X200631Y19471D01*
Y18929D01*
X200485Y18869D01*
X199931Y18315D01*
X199632Y17592D01*
Y16808D01*
X199931Y16085D01*
X200485Y15531D01*
X201208Y15232D01*
X201992D01*
X202715Y15531D01*
X203071Y15887D01*
X204600D01*
X205102Y15987D01*
X205184Y16042D01*
X205739Y15812D01*
X205748Y15769D01*
X205817Y15667D01*
X205989Y15290D01*
X205761Y14928D01*
X198824Y7990D01*
X198362Y8182D01*
Y11169D01*
X193638D01*
Y11053D01*
X193138Y10846D01*
X193115Y10869D01*
X192392Y11169D01*
X191608D01*
X190915Y10881D01*
X190885Y10869D01*
X190830Y10852D01*
X190410Y11100D01*
X190409Y11418D01*
Y14909D01*
X189360D01*
Y25745D01*
X190897Y27282D01*
X194159D01*
Y32006D01*
X189041D01*
Y29138D01*
X187119Y27216D01*
X186835Y26790D01*
X186735Y26288D01*
Y14909D01*
X185685D01*
Y10972D01*
X189928D01*
X190281Y10972D01*
X190543Y10527D01*
X190331Y10315D01*
X190032Y9592D01*
Y8808D01*
X190331Y8085D01*
X190543Y7873D01*
X190281Y7428D01*
X185685D01*
Y6772D01*
X182059D01*
Y8506D01*
X176941D01*
Y3782D01*
X182059D01*
Y4147D01*
X185685D01*
Y3491D01*
X190409D01*
Y4147D01*
X198150D01*
X198652Y4247D01*
X199078Y4532D01*
X207528Y12982D01*
X208688D01*
X208805Y13005D01*
X210438D01*
X210506Y12949D01*
Y12606D01*
X210930D01*
Y7774D01*
X213459D01*
X213459Y7774D01*
X213959Y7790D01*
X214163Y7750D01*
X214192Y7756D01*
X214438Y7295D01*
X213717Y6573D01*
X211261D01*
X210758Y6473D01*
X210332Y6189D01*
X210048Y5763D01*
X209948Y5261D01*
X210048Y4758D01*
X210332Y4332D01*
X210758Y4048D01*
X211261Y3948D01*
X214261D01*
X214763Y4048D01*
X215189Y4332D01*
X216294Y5438D01*
X216756Y5246D01*
Y5203D01*
X216856Y4701D01*
X217140Y4275D01*
X220143Y1272D01*
X220569Y987D01*
X221072Y887D01*
X260900D01*
X261402Y987D01*
X261828Y1272D01*
X266232Y5676D01*
X266517Y6102D01*
X266617Y6604D01*
Y6733D01*
X267069Y7185D01*
X267369Y7908D01*
Y8692D01*
X267185Y9134D01*
X267399Y9679D01*
X267444Y9715D01*
X267828Y9972D01*
X268428Y10572D01*
X268713Y10998D01*
X268813Y11500D01*
Y12487D01*
X269600D01*
X270102Y12587D01*
X270528Y12872D01*
X271568Y13912D01*
X271853Y14338D01*
X271953Y14840D01*
Y17404D01*
X273002D01*
Y22522D01*
X271713D01*
Y23989D01*
X272069Y24345D01*
X272369Y25069D01*
Y25852D01*
X272069Y26576D01*
X271515Y27129D01*
X270792Y27429D01*
X270008D01*
X269890Y27380D01*
X269475Y27658D01*
Y30609D01*
X267400D01*
Y27837D01*
Y25065D01*
X268433D01*
X268731Y24345D01*
X269087Y23989D01*
Y22522D01*
X268278D01*
Y17404D01*
X269327D01*
Y15384D01*
X269056Y15113D01*
X268100D01*
X267598Y15013D01*
X267525Y14964D01*
X267046Y15109D01*
X267026Y15157D01*
X266670Y15514D01*
Y17568D01*
X266570Y18071D01*
X266286Y18496D01*
X265522Y19260D01*
Y22522D01*
X264721D01*
Y22708D01*
X264713Y22749D01*
Y24029D01*
X265069Y24385D01*
X265351Y25065D01*
X266400D01*
Y27837D01*
Y30609D01*
X264325D01*
Y27698D01*
X263910Y27420D01*
X263792Y27468D01*
X263008D01*
X262285Y27169D01*
X261731Y26615D01*
X261432Y25892D01*
Y25108D01*
X261731Y24385D01*
X262087Y24029D01*
Y22716D01*
X261642Y22522D01*
X260798D01*
Y17404D01*
X263666D01*
X264045Y17025D01*
Y15514D01*
X263689Y15157D01*
X263389Y14434D01*
Y13651D01*
X263689Y12927D01*
X263916Y12700D01*
X263747Y12162D01*
X263498Y12113D01*
X263072Y11828D01*
X262272Y11028D01*
X261987Y10602D01*
X261887Y10100D01*
Y9244D01*
X261556Y8913D01*
X260000D01*
X259498Y8813D01*
X259072Y8528D01*
X257772Y7228D01*
X257487Y6802D01*
X257387Y6300D01*
Y5513D01*
X222444D01*
X221381Y6575D01*
Y7401D01*
X221881Y7781D01*
X222037Y7750D01*
X222531Y7848D01*
X222633Y7917D01*
X223021Y8094D01*
X223409Y7917D01*
X223512Y7848D01*
X224006Y7750D01*
X224499Y7848D01*
X224917Y8127D01*
X225197Y8546D01*
X225295Y9039D01*
Y9476D01*
X226794D01*
X226831Y9385D01*
X227385Y8831D01*
X228108Y8531D01*
X228892D01*
X229615Y8831D01*
X230169Y9385D01*
X230469Y10108D01*
Y10892D01*
X230169Y11615D01*
X229615Y12169D01*
X228892Y12468D01*
X228108D01*
X227385Y12169D01*
X227317Y12101D01*
X225458D01*
X225457Y12105D01*
X225694Y12606D01*
X225694D01*
Y12949D01*
X225762Y13005D01*
X227395D01*
X227512Y12982D01*
X232541D01*
Y11794D01*
X237659D01*
Y12843D01*
X244641D01*
Y11838D01*
X249759D01*
Y16562D01*
X244641D01*
Y15469D01*
X237659D01*
Y16518D01*
X232541D01*
Y15607D01*
X231517D01*
X231325Y16069D01*
X232444Y17187D01*
X243056D01*
X243558Y17287D01*
X243984Y17572D01*
X246794Y20382D01*
X249859D01*
Y25106D01*
X244741D01*
Y22041D01*
X242512Y19813D01*
X231900D01*
X231496Y19732D01*
X231255Y20027D01*
X231201Y20145D01*
X232041Y20985D01*
X232541Y20777D01*
Y20382D01*
X237659D01*
Y25106D01*
X232713D01*
Y25681D01*
X234600D01*
Y28256D01*
Y30831D01*
X232713D01*
Y31556D01*
X249735Y48579D01*
X250197Y48388D01*
Y39500D01*
X250258Y39193D01*
X250432Y38932D01*
X250693Y38758D01*
X251000Y38697D01*
X259268D01*
Y37700D01*
X262315D01*
Y37200D01*
X262815D01*
Y35294D01*
X264397D01*
Y33500D01*
X264458Y33193D01*
X264632Y32932D01*
X264893Y32758D01*
X265200Y32697D01*
X284800D01*
X285107Y32758D01*
X285368Y32932D01*
X285542Y33193D01*
X285603Y33500D01*
Y36726D01*
X286051Y36948D01*
X286131Y36887D01*
X286805Y36608D01*
X287528Y36512D01*
X288800D01*
Y39308D01*
Y42103D01*
X287528D01*
X286805Y42008D01*
X286131Y41729D01*
X286051Y41668D01*
X285603Y41889D01*
Y42835D01*
X288800D01*
Y47576D01*
X289300D01*
Y48076D01*
X294040D01*
Y52284D01*
Y56524D01*
X289300D01*
X284560D01*
Y52284D01*
Y49003D01*
X282426D01*
X282213Y49177D01*
Y50913D01*
Y55818D01*
X282426D01*
Y56918D01*
X278768D01*
X275111D01*
Y55818D01*
X275324D01*
Y55254D01*
X274862Y55063D01*
X274760Y55165D01*
X274334Y55449D01*
X273832Y55549D01*
X272193D01*
X272004Y55739D01*
X271352Y56008D01*
X270648D01*
X269996Y55739D01*
X269498Y55240D01*
X269228Y54589D01*
Y53884D01*
X269498Y53233D01*
X269774Y52957D01*
X269498Y52681D01*
X269228Y52030D01*
Y51325D01*
X269498Y50674D01*
X269996Y50176D01*
X270648Y49906D01*
X271352D01*
X272004Y50176D01*
X272557Y50036D01*
X273128Y49465D01*
X272937Y49003D01*
X265203D01*
Y50000D01*
X265142Y50307D01*
X264968Y50568D01*
X264707Y50742D01*
X264400Y50803D01*
X261215D01*
X261023Y51265D01*
X262458Y52699D01*
X263443D01*
X263863Y52783D01*
X264220Y53021D01*
X264458Y53378D01*
X264542Y53798D01*
Y58926D01*
X264458Y59347D01*
X264220Y59703D01*
X263863Y59941D01*
X263443Y60025D01*
X261701D01*
X261280Y59941D01*
X261209Y59894D01*
X260633Y59856D01*
X260206Y60142D01*
X259703Y60242D01*
X258901D01*
X258697Y60498D01*
X258915Y60987D01*
X267500D01*
X268002Y61087D01*
X268428Y61372D01*
X275398Y68342D01*
X275898Y68135D01*
Y65398D01*
X279154D01*
Y69048D01*
X276522D01*
X276112Y69548D01*
X276124Y69612D01*
Y73541D01*
X277174D01*
Y78659D01*
X272450D01*
Y73541D01*
X273499D01*
Y70156D01*
X266956Y63613D01*
X264960D01*
X264542Y64074D01*
Y65325D01*
X265107D01*
X265609Y65425D01*
X266035Y65710D01*
X270228Y69902D01*
X270513Y70328D01*
X270613Y70831D01*
Y73541D01*
X271662D01*
Y78659D01*
X270557D01*
Y79441D01*
X271606D01*
Y84559D01*
X268418D01*
X268215Y85022D01*
X268467Y85341D01*
X271606D01*
Y89697D01*
X272394D01*
Y85341D01*
X277118D01*
Y86587D01*
X288229D01*
X288585Y86231D01*
X289308Y85931D01*
X290092D01*
X290815Y86231D01*
X291369Y86785D01*
X291669Y87508D01*
Y88292D01*
X291369Y89015D01*
X290815Y89569D01*
X290092Y89868D01*
X289308D01*
X288585Y89569D01*
X288229Y89213D01*
X281127D01*
X281078Y89713D01*
X281307Y89758D01*
X281568Y89932D01*
X281742Y90193D01*
X281803Y90500D01*
Y112197D01*
X295276D01*
Y0D01*
X0D01*
Y157480D01*
X295276D01*
Y136303D01*
D02*
G37*
G36*
X295300Y113000D02*
X281803D01*
Y119000D01*
X281742Y119307D01*
X281568Y119568D01*
X281562Y119623D01*
X282634Y120694D01*
X283685D01*
Y122600D01*
Y124505D01*
X281138D01*
Y122624D01*
X281100Y122599D01*
X280600Y122866D01*
Y127028D01*
X281656D01*
Y129800D01*
Y132572D01*
X280600D01*
Y135500D01*
X281343D01*
X282163Y135370D01*
X283837D01*
X284657Y135500D01*
X295300D01*
Y113000D01*
D02*
G37*
G36*
X225197Y138300D02*
Y114367D01*
X224697Y114083D01*
X224518Y114191D01*
Y115659D01*
X219794D01*
Y110541D01*
X223942D01*
Y109972D01*
X222656D01*
Y107200D01*
X222156D01*
Y106700D01*
X219581D01*
Y105500D01*
X219006D01*
Y109759D01*
X217957D01*
Y110541D01*
X219006D01*
Y115659D01*
X214282D01*
Y110913D01*
X209522D01*
X209418Y110998D01*
Y115659D01*
X204694D01*
Y110541D01*
X205562D01*
Y109400D01*
X204225D01*
Y107000D01*
X203225D01*
Y109400D01*
X202650D01*
Y107000D01*
X201650D01*
Y109400D01*
X201076D01*
Y107000D01*
X200576D01*
Y106500D01*
X199076D01*
Y104600D01*
X199100D01*
Y101800D01*
X187300D01*
Y138500D01*
X225033D01*
X225197Y138300D01*
D02*
G37*
G36*
X281000Y90500D02*
X266600D01*
Y86555D01*
X265852Y85807D01*
X265623Y85464D01*
X265542Y85059D01*
Y80832D01*
X264711D01*
X264697Y80850D01*
X263686D01*
X263612Y80899D01*
X263228Y80975D01*
X262440D01*
Y81350D01*
X261940D01*
Y82767D01*
X261653D01*
X261500Y82736D01*
X261000Y83105D01*
X261000Y90100D01*
X250484Y90100D01*
X250131Y90454D01*
Y92200D01*
X247556D01*
Y93200D01*
X250131D01*
Y95000D01*
X255500Y95000D01*
Y104350D01*
X256000D01*
Y106700D01*
X256100D01*
Y114900D01*
X256000D01*
Y117250D01*
X255500D01*
Y119000D01*
X281000D01*
Y90500D01*
D02*
G37*
G36*
X199100Y97600D02*
X199076D01*
Y95700D01*
X200576D01*
Y95200D01*
X201076D01*
Y92800D01*
X201650D01*
Y95200D01*
X202650D01*
Y92800D01*
X203225D01*
Y95200D01*
X204225D01*
Y92800D01*
X205562D01*
Y92525D01*
X205662Y92023D01*
X205947Y91597D01*
X206100Y91444D01*
Y81500D01*
X187200D01*
Y100915D01*
X187300Y100997D01*
X199100D01*
Y97600D01*
D02*
G37*
G36*
X249563Y89886D02*
X249917Y89532D01*
X250177Y89358D01*
X250484Y89297D01*
X259844Y89297D01*
X260197Y88944D01*
X260197Y83500D01*
X255486D01*
Y82767D01*
X255460D01*
Y81350D01*
X254460D01*
Y82767D01*
X254172D01*
X253706Y82674D01*
X253688Y82662D01*
X249872D01*
Y83531D01*
X247600D01*
Y80956D01*
X247100D01*
Y80456D01*
X244328D01*
Y79400D01*
X238200D01*
Y90100D01*
X249420D01*
X249563Y89886D01*
D02*
G37*
G36*
X260306Y81149D02*
X260314D01*
X260326Y81145D01*
X260334D01*
X260346Y81141D01*
X260353Y81137D01*
X260365Y81133D01*
X260373Y81125D01*
X260381Y81121D01*
X260389Y81113D01*
X260397Y81109D01*
X260405Y81102D01*
X260413Y81094D01*
X260420Y81086D01*
X260428Y81078D01*
X260432Y81070D01*
X260440Y81062D01*
X260444Y81054D01*
X260452Y81046D01*
X260456Y81035D01*
X260460Y81027D01*
X260464Y81015D01*
Y81007D01*
X260468Y80995D01*
Y80987D01*
X260472Y80976D01*
Y80968D01*
Y80956D01*
Y75444D01*
Y75432D01*
Y75424D01*
X260468Y75413D01*
Y75405D01*
X260464Y75393D01*
Y75385D01*
X260460Y75373D01*
X260456Y75365D01*
X260452Y75353D01*
X260444Y75346D01*
X260440Y75338D01*
X260432Y75330D01*
X260428Y75322D01*
X260420Y75314D01*
X260413Y75306D01*
X260405Y75298D01*
X260397Y75291D01*
X260389Y75287D01*
X260381Y75279D01*
X260373Y75275D01*
X260365Y75267D01*
X260353Y75263D01*
X260346Y75259D01*
X260334Y75255D01*
X260326D01*
X260314Y75251D01*
X260306D01*
X260295Y75247D01*
X257105D01*
X257094Y75251D01*
X257086D01*
X257074Y75255D01*
X257066D01*
X257054Y75259D01*
X257047Y75263D01*
X257035Y75267D01*
X257027Y75275D01*
X257019Y75279D01*
X257011Y75287D01*
X257003Y75291D01*
X256995Y75298D01*
X256987Y75306D01*
X256979Y75314D01*
X256972Y75322D01*
X256968Y75330D01*
X256960Y75338D01*
X256956Y75346D01*
X256948Y75353D01*
X256944Y75365D01*
X256940Y75373D01*
X256936Y75385D01*
Y75393D01*
X256932Y75405D01*
Y75413D01*
X256928Y75424D01*
Y75432D01*
Y75444D01*
Y80956D01*
Y80968D01*
Y80976D01*
X256932Y80987D01*
Y80995D01*
X256936Y81007D01*
Y81015D01*
X256940Y81027D01*
X256944Y81035D01*
X256948Y81046D01*
X256956Y81054D01*
X256960Y81062D01*
X256968Y81070D01*
X256972Y81078D01*
X256979Y81086D01*
X256987Y81094D01*
X256995Y81102D01*
X257003Y81109D01*
X257011Y81113D01*
X257019Y81121D01*
X257027Y81125D01*
X257035Y81133D01*
X257047Y81137D01*
X257054Y81141D01*
X257066Y81145D01*
X257074D01*
X257086Y81149D01*
X257094D01*
X257105Y81153D01*
X260295D01*
X260306Y81149D01*
D02*
G37*
G36*
X284772Y43048D02*
X284800D01*
Y40620D01*
X283198D01*
Y43639D01*
X276111D01*
Y35765D01*
X283198D01*
Y37995D01*
X284800D01*
Y33500D01*
X265200D01*
Y48200D01*
X275111D01*
Y47682D01*
X278768D01*
X282426D01*
Y48200D01*
X284772D01*
Y43048D01*
D02*
G37*
G36*
X264400Y48214D02*
X264397Y48200D01*
Y45406D01*
X262815D01*
Y43500D01*
Y41594D01*
X264397D01*
Y39500D01*
X251000D01*
Y49844D01*
X251156Y50000D01*
X264400D01*
Y48214D01*
D02*
G37*
%LPC*%
G36*
X245950Y134866D02*
X242300D01*
Y127476D01*
X245950D01*
Y134866D01*
D02*
G37*
G36*
X241300D02*
X237650D01*
Y127476D01*
X241300D01*
Y134866D01*
D02*
G37*
G36*
X277862Y124505D02*
X275315D01*
Y123100D01*
X277862D01*
Y124505D01*
D02*
G37*
G36*
X274315D02*
X271768D01*
Y123100D01*
X274315D01*
Y124505D01*
D02*
G37*
G36*
X245950Y126476D02*
X242300D01*
Y119087D01*
X245950D01*
Y126476D01*
D02*
G37*
G36*
X241300D02*
X237650D01*
Y119087D01*
X241300D01*
Y126476D01*
D02*
G37*
G36*
X253441Y106200D02*
X252541D01*
Y104350D01*
X253441D01*
Y106200D01*
D02*
G37*
G36*
X224731Y100372D02*
X222656D01*
Y98100D01*
X224731D01*
Y100372D01*
D02*
G37*
G36*
Y97100D02*
X222656D01*
Y94828D01*
X224731D01*
Y97100D01*
D02*
G37*
G36*
X245950Y156913D02*
X242300D01*
Y149524D01*
X245950D01*
Y156913D01*
D02*
G37*
G36*
X208150D02*
X204500D01*
Y149524D01*
X208150D01*
Y156913D01*
D02*
G37*
G36*
X241300D02*
X237650D01*
Y149524D01*
X241300D01*
Y156913D01*
D02*
G37*
G36*
X203500D02*
X199850D01*
Y149524D01*
X203500D01*
Y156913D01*
D02*
G37*
G36*
X157662Y150159D02*
X152938D01*
Y148913D01*
X151571D01*
X151215Y149269D01*
X150492Y149568D01*
X149708D01*
X148985Y149269D01*
X148431Y148715D01*
X148132Y147992D01*
Y147208D01*
X148431Y146485D01*
X148985Y145931D01*
X149708Y145632D01*
X150492D01*
X151215Y145931D01*
X151571Y146287D01*
X152938D01*
Y145041D01*
X157662D01*
Y150159D01*
D02*
G37*
G36*
X176179Y150275D02*
X174104D01*
Y148200D01*
X176179D01*
Y150275D01*
D02*
G37*
G36*
X173104D02*
X171029D01*
Y148200D01*
X173104D01*
Y150275D01*
D02*
G37*
G36*
X163174Y150159D02*
X158450D01*
Y145041D01*
X163174D01*
Y146287D01*
X164746D01*
Y145338D01*
X169470D01*
Y150062D01*
X164746D01*
Y148913D01*
X163174D01*
Y150159D01*
D02*
G37*
G36*
X176179Y147200D02*
X174104D01*
Y145125D01*
X176179D01*
Y147200D01*
D02*
G37*
G36*
X173104D02*
X171029D01*
Y145125D01*
X173104D01*
Y147200D01*
D02*
G37*
G36*
X120512Y147512D02*
X117000D01*
Y144000D01*
X120512D01*
Y147512D01*
D02*
G37*
G36*
X136512D02*
X133000D01*
Y144000D01*
X136512D01*
Y147512D01*
D02*
G37*
G36*
X132000D02*
X128488D01*
Y144000D01*
X132000D01*
Y147512D01*
D02*
G37*
G36*
X116000D02*
X112488D01*
Y144000D01*
X116000D01*
Y147512D01*
D02*
G37*
G36*
X13337Y156630D02*
X11663D01*
X10011Y156368D01*
X8420Y155851D01*
X6929Y155092D01*
X5575Y154108D01*
X4392Y152925D01*
X3409Y151571D01*
X2649Y150081D01*
X2132Y148489D01*
X1870Y146837D01*
Y145163D01*
X2132Y143511D01*
X2649Y141920D01*
X3409Y140429D01*
X4392Y139075D01*
X5575Y137892D01*
X6929Y136908D01*
X8420Y136149D01*
X10011Y135632D01*
X11663Y135370D01*
X13337D01*
X14989Y135632D01*
X16580Y136149D01*
X18071Y136908D01*
X19425Y137892D01*
X20608Y139075D01*
X21591Y140429D01*
X22351Y141920D01*
X22868Y143511D01*
X23054Y144687D01*
X25341D01*
Y143894D01*
X30459D01*
Y148618D01*
X25341D01*
Y147313D01*
X23054D01*
X22868Y148489D01*
X22351Y150081D01*
X21591Y151571D01*
X20608Y152925D01*
X19425Y154108D01*
X18071Y155092D01*
X16580Y155851D01*
X14989Y156368D01*
X13337Y156630D01*
D02*
G37*
G36*
X30672Y143319D02*
X28400D01*
Y141244D01*
X30672D01*
Y143319D01*
D02*
G37*
G36*
X27400D02*
X25128D01*
Y141244D01*
X27400D01*
Y143319D01*
D02*
G37*
G36*
X269872Y143219D02*
X267600D01*
Y141144D01*
X269872D01*
Y143219D01*
D02*
G37*
G36*
X266600D02*
X264328D01*
Y141144D01*
X266600D01*
Y143219D01*
D02*
G37*
G36*
X245950Y148524D02*
X242300D01*
Y141134D01*
X245950D01*
Y148524D01*
D02*
G37*
G36*
X241300D02*
X237650D01*
Y141134D01*
X241300D01*
Y148524D01*
D02*
G37*
G36*
X208150D02*
X204500D01*
Y141134D01*
X208150D01*
Y148524D01*
D02*
G37*
G36*
X203500D02*
X199850D01*
Y141134D01*
X203500D01*
Y148524D01*
D02*
G37*
G36*
X176223Y142475D02*
X174148D01*
Y140400D01*
X176223D01*
Y142475D01*
D02*
G37*
G36*
X173148D02*
X171073D01*
Y140400D01*
X173148D01*
Y142475D01*
D02*
G37*
G36*
X136512Y143000D02*
X133000D01*
Y139488D01*
X136512D01*
Y143000D01*
D02*
G37*
G36*
X132000D02*
X128488D01*
Y139488D01*
X132000D01*
Y143000D01*
D02*
G37*
G36*
X120512D02*
X117000D01*
Y139488D01*
X120512D01*
Y143000D01*
D02*
G37*
G36*
X116000D02*
X112488D01*
Y139488D01*
X116000D01*
Y143000D01*
D02*
G37*
G36*
X30672Y140244D02*
X28400D01*
Y138169D01*
X30672D01*
Y140244D01*
D02*
G37*
G36*
X27400D02*
X25128D01*
Y138169D01*
X27400D01*
Y140244D01*
D02*
G37*
G36*
X163174Y142459D02*
X158450D01*
Y137341D01*
X163174D01*
Y138587D01*
X164790D01*
Y137538D01*
X169514D01*
Y142262D01*
X164790D01*
Y141213D01*
X163174D01*
Y142459D01*
D02*
G37*
G36*
X150392Y143968D02*
X149608D01*
X148885Y143669D01*
X148331Y143115D01*
X148031Y142392D01*
Y141608D01*
X148331Y140885D01*
X148885Y140331D01*
X149608Y140032D01*
X150392D01*
X150455Y140058D01*
X151344Y139169D01*
X151769Y138884D01*
X152272Y138784D01*
X152938D01*
Y137341D01*
X157662D01*
Y142459D01*
X152938D01*
Y141994D01*
X152438Y141787D01*
X151969Y142256D01*
Y142392D01*
X151669Y143115D01*
X151115Y143669D01*
X150392Y143968D01*
D02*
G37*
G36*
X176223Y139400D02*
X174148D01*
Y137325D01*
X176223D01*
Y139400D01*
D02*
G37*
G36*
X173148D02*
X171073D01*
Y137325D01*
X173148D01*
Y139400D01*
D02*
G37*
G36*
X160187Y134572D02*
X158112D01*
Y132300D01*
X160187D01*
Y134572D01*
D02*
G37*
G36*
X157112D02*
X155037D01*
Y132300D01*
X157112D01*
Y134572D01*
D02*
G37*
G36*
X124823Y134275D02*
X122748D01*
Y132200D01*
X124823D01*
Y134275D01*
D02*
G37*
G36*
X121748D02*
X119673D01*
Y132200D01*
X121748D01*
Y134275D01*
D02*
G37*
G36*
X69331Y132772D02*
X67256D01*
Y130500D01*
X69331D01*
Y132772D01*
D02*
G37*
G36*
X66256D02*
X64181D01*
Y130500D01*
X66256D01*
Y132772D01*
D02*
G37*
G36*
X279219Y132572D02*
X277144D01*
Y130300D01*
X279219D01*
Y132572D01*
D02*
G37*
G36*
X276144D02*
X274069D01*
Y130300D01*
X276144D01*
Y132572D01*
D02*
G37*
G36*
X138892Y138469D02*
X138108D01*
X137385Y138169D01*
X136831Y137615D01*
X136531Y136892D01*
Y136108D01*
X136831Y135385D01*
X137357Y134859D01*
X137346Y134722D01*
X137218Y134359D01*
X136626D01*
Y129241D01*
X141350D01*
Y134359D01*
X140301D01*
Y135704D01*
X140469Y136108D01*
Y136892D01*
X140169Y137615D01*
X139615Y138169D01*
X138892Y138469D01*
D02*
G37*
G36*
X124823Y131200D02*
X122748D01*
Y129125D01*
X124823D01*
Y131200D01*
D02*
G37*
G36*
X121748D02*
X119673D01*
Y129125D01*
X121748D01*
Y131200D01*
D02*
G37*
G36*
X157112Y131300D02*
X155037D01*
Y129028D01*
X157112D01*
Y131300D01*
D02*
G37*
G36*
X64200Y139500D02*
X57000D01*
Y137900D01*
X56619Y137613D01*
X54800D01*
X54298Y137513D01*
X53872Y137228D01*
X48572Y131928D01*
X48287Y131502D01*
X48187Y131000D01*
Y127470D01*
X47518Y127083D01*
X46917Y126482D01*
X46492Y125746D01*
X46272Y124925D01*
Y124075D01*
X46492Y123254D01*
X46917Y122518D01*
X47518Y121917D01*
X48254Y121492D01*
X49075Y121272D01*
X49925D01*
X50746Y121492D01*
X51482Y121917D01*
X52083Y122518D01*
X52508Y123254D01*
X52728Y124075D01*
Y124925D01*
X52508Y125746D01*
X52083Y126482D01*
X51482Y127083D01*
X50813Y127470D01*
Y130456D01*
X55344Y134987D01*
X57213D01*
Y134413D01*
X59287D01*
Y132559D01*
X58882D01*
Y127441D01*
X63606D01*
Y132559D01*
X61913D01*
Y134413D01*
X63987D01*
Y137900D01*
X64200D01*
Y139500D01*
D02*
G37*
G36*
X69331Y129500D02*
X67256D01*
Y127228D01*
X69331D01*
Y129500D01*
D02*
G37*
G36*
X66256D02*
X64181D01*
Y127228D01*
X66256D01*
Y129500D01*
D02*
G37*
G36*
X141463Y126572D02*
X139388D01*
Y124300D01*
X141463D01*
Y126572D01*
D02*
G37*
G36*
X160187D02*
X158112D01*
Y124300D01*
X160187D01*
Y126572D01*
D02*
G37*
G36*
X157112D02*
X155037D01*
Y124300D01*
X157112D01*
Y126572D01*
D02*
G37*
G36*
X138388D02*
X136313D01*
Y124300D01*
X138388D01*
Y126572D01*
D02*
G37*
G36*
X118114Y134062D02*
X113390D01*
Y129338D01*
X114557D01*
Y126459D01*
X113626D01*
Y121341D01*
X118350D01*
Y126459D01*
X117183D01*
Y129338D01*
X118114D01*
Y134062D01*
D02*
G37*
G36*
X141463Y123300D02*
X139388D01*
Y121028D01*
X141463D01*
Y123300D01*
D02*
G37*
G36*
X138388D02*
X136313D01*
Y121028D01*
X138388D01*
Y123300D01*
D02*
G37*
G36*
X143000Y147299D02*
X142000D01*
X141034Y147040D01*
X140167Y146540D01*
X139460Y145833D01*
X138960Y144966D01*
X138701Y144000D01*
Y143000D01*
X138960Y142034D01*
X139460Y141167D01*
X140167Y140460D01*
X141034Y139960D01*
X142000Y139701D01*
X143000D01*
X143187Y139557D01*
Y134359D01*
X142138D01*
Y129241D01*
X143137D01*
Y126359D01*
X142038D01*
Y121241D01*
X145077D01*
Y118787D01*
X122758D01*
Y121341D01*
X123862D01*
Y126459D01*
X119138D01*
Y121341D01*
X120132D01*
Y118787D01*
X107758D01*
Y139904D01*
X107966Y139960D01*
X108833Y140460D01*
X109540Y141167D01*
X110040Y142034D01*
X110299Y143000D01*
Y144000D01*
X110040Y144966D01*
X109540Y145833D01*
X108833Y146540D01*
X107966Y147040D01*
X107000Y147299D01*
X106000D01*
X105034Y147040D01*
X104167Y146540D01*
X103460Y145833D01*
X102960Y144966D01*
X102701Y144000D01*
Y143000D01*
X102960Y142034D01*
X103460Y141167D01*
X104167Y140460D01*
X105034Y139960D01*
X105132Y139933D01*
Y118787D01*
X91703D01*
Y119110D01*
X91603Y119612D01*
X91318Y120038D01*
X74787Y136569D01*
Y138187D01*
X70802D01*
Y138211D01*
X70702Y138713D01*
X70417Y139139D01*
X68244Y141313D01*
X68451Y141813D01*
X74787D01*
Y142537D01*
X77179D01*
X77385Y142331D01*
X78108Y142032D01*
X78892D01*
X79615Y142331D01*
X80169Y142885D01*
X80468Y143608D01*
Y144392D01*
X80169Y145115D01*
X79615Y145669D01*
X78892Y145968D01*
X78108D01*
X77385Y145669D01*
X76879Y145163D01*
X74787D01*
Y145587D01*
X68013D01*
Y142251D01*
X67513Y142044D01*
X65042Y144514D01*
X64617Y144799D01*
X64114Y144898D01*
X63987D01*
Y145587D01*
X57213D01*
Y142100D01*
X57000D01*
Y140500D01*
X64200D01*
Y140990D01*
X64662Y141182D01*
X68013Y137831D01*
Y134413D01*
X73231D01*
X88522Y119121D01*
X88853Y118787D01*
X88853D01*
X88853Y118787D01*
Y111313D01*
X145687D01*
Y104821D01*
X145331Y104465D01*
X145031Y103741D01*
Y102958D01*
X145331Y102234D01*
X145885Y101681D01*
X146608Y101381D01*
X147392D01*
X148115Y101681D01*
X148669Y102234D01*
X148969Y102958D01*
Y103741D01*
X148669Y104465D01*
X148313Y104821D01*
Y111313D01*
X153640D01*
Y111100D01*
X155890D01*
Y115050D01*
X156390D01*
Y115550D01*
X159140D01*
Y119000D01*
X158924D01*
Y121028D01*
X160187D01*
Y123300D01*
X157612D01*
X155037D01*
Y121028D01*
X156299D01*
Y119000D01*
X153640D01*
Y118787D01*
X153058D01*
Y121241D01*
X154462D01*
Y126359D01*
X153413D01*
Y129241D01*
X154462D01*
Y134359D01*
X153413D01*
Y134900D01*
X153313Y135402D01*
X153028Y135828D01*
X152469Y136388D01*
Y136892D01*
X152169Y137615D01*
X151615Y138169D01*
X150892Y138469D01*
X150108D01*
X149385Y138169D01*
X148831Y137615D01*
X148531Y136892D01*
Y136108D01*
X148831Y135385D01*
X149385Y134831D01*
X149528Y134772D01*
X149738Y134359D01*
Y129241D01*
X150787D01*
Y126359D01*
X149738D01*
Y121241D01*
X150432D01*
Y118787D01*
X147703D01*
Y121810D01*
X147603Y122312D01*
X147318Y122738D01*
X146762Y123294D01*
Y126359D01*
X145763D01*
Y129241D01*
X146862D01*
Y134359D01*
X145813D01*
Y140360D01*
X145713Y140862D01*
X145521Y141148D01*
X145540Y141167D01*
X146040Y142034D01*
X146299Y143000D01*
Y144000D01*
X146040Y144966D01*
X145540Y145833D01*
X144833Y146540D01*
X143966Y147040D01*
X143000Y147299D01*
D02*
G37*
G36*
X160187Y131300D02*
X158112D01*
Y129028D01*
X158527D01*
X162087Y125468D01*
Y119900D01*
X162187Y119398D01*
X162472Y118972D01*
X162898Y118687D01*
X163400Y118587D01*
X163902Y118687D01*
X164328Y118972D01*
X164613Y119398D01*
X164713Y119900D01*
Y126012D01*
X164613Y126514D01*
X164328Y126940D01*
X160187Y131081D01*
Y131300D01*
D02*
G37*
G36*
X49925Y117728D02*
X49075D01*
X48254Y117508D01*
X47518Y117083D01*
X46917Y116482D01*
X46492Y115746D01*
X46272Y114925D01*
Y114075D01*
X46492Y113254D01*
X46917Y112518D01*
X47518Y111917D01*
X48254Y111492D01*
X49075Y111272D01*
X49925D01*
X50746Y111492D01*
X51482Y111917D01*
X52083Y112518D01*
X52508Y113254D01*
X52728Y114075D01*
Y114925D01*
X52508Y115746D01*
X52083Y116482D01*
X51482Y117083D01*
X50746Y117508D01*
X49925Y117728D01*
D02*
G37*
G36*
X159140Y114550D02*
X156890D01*
Y111100D01*
X159140D01*
Y114550D01*
D02*
G37*
G36*
X74787Y114587D02*
X68013D01*
Y111251D01*
X67513Y111044D01*
X65042Y113514D01*
X64617Y113798D01*
X64114Y113898D01*
X63987D01*
Y114587D01*
X57213D01*
Y111100D01*
X57000D01*
Y109500D01*
X64200D01*
Y109990D01*
X64662Y110182D01*
X68013Y106831D01*
Y103413D01*
X72731D01*
X78972Y97172D01*
X79398Y96887D01*
X79900Y96787D01*
X82728D01*
Y90563D01*
Y85563D01*
Y80563D01*
Y75563D01*
Y70563D01*
Y65859D01*
X82228Y65652D01*
X74787Y73092D01*
Y75187D01*
X70802D01*
Y75211D01*
X70702Y75713D01*
X70417Y76139D01*
X68244Y78313D01*
X68451Y78813D01*
X74787D01*
Y79287D01*
X76929D01*
X77385Y78831D01*
X78108Y78531D01*
X78892D01*
X79615Y78831D01*
X80169Y79385D01*
X80468Y80108D01*
Y80892D01*
X80169Y81615D01*
X79615Y82169D01*
X78892Y82468D01*
X78108D01*
X77385Y82169D01*
X77129Y81913D01*
X74787D01*
Y82587D01*
X68013D01*
Y79251D01*
X67513Y79044D01*
X65042Y81514D01*
X64617Y81798D01*
X64114Y81898D01*
X63987D01*
Y82587D01*
X57213D01*
Y79100D01*
X57000D01*
Y77500D01*
X64200D01*
Y77990D01*
X64662Y78182D01*
X68013Y74831D01*
Y71413D01*
X72754D01*
X81325Y62842D01*
X81751Y62558D01*
X82253Y62458D01*
X82728D01*
Y60563D01*
Y55563D01*
X84266D01*
Y51622D01*
X76606Y43963D01*
X74787D01*
Y44187D01*
X70802D01*
Y44211D01*
X70702Y44713D01*
X70417Y45139D01*
X68244Y47313D01*
X68451Y47813D01*
X74787D01*
Y48287D01*
X76929D01*
X77385Y47831D01*
X78108Y47532D01*
X78892D01*
X79615Y47831D01*
X80169Y48385D01*
X80468Y49108D01*
Y49892D01*
X80169Y50615D01*
X79615Y51169D01*
X78892Y51468D01*
X78108D01*
X77385Y51169D01*
X77129Y50913D01*
X74787D01*
Y51587D01*
X68013D01*
Y48251D01*
X67513Y48044D01*
X65042Y50514D01*
X64617Y50798D01*
X64114Y50898D01*
X63987D01*
Y51587D01*
X57213D01*
Y48100D01*
X57000D01*
Y46500D01*
X64200D01*
Y46990D01*
X64662Y47182D01*
X68013Y43831D01*
Y40413D01*
X74787D01*
Y41337D01*
X77150D01*
X77652Y41437D01*
X78078Y41722D01*
X86507Y50150D01*
X86791Y50576D01*
X86891Y51079D01*
Y55563D01*
X90202D01*
Y60563D01*
Y65563D01*
Y70563D01*
Y75563D01*
Y80563D01*
Y85563D01*
Y90563D01*
Y95563D01*
Y100350D01*
X90415D01*
Y102600D01*
X82515D01*
Y100350D01*
X82728D01*
Y99413D01*
X80444D01*
X74787Y105069D01*
Y107187D01*
X70802D01*
Y107211D01*
X70702Y107713D01*
X70417Y108139D01*
X68244Y110313D01*
X68451Y110813D01*
X74787D01*
Y111287D01*
X76929D01*
X77385Y110831D01*
X78108Y110531D01*
X78892D01*
X79615Y110831D01*
X80169Y111385D01*
X80468Y112108D01*
Y112892D01*
X80169Y113615D01*
X79615Y114169D01*
X78892Y114469D01*
X78108D01*
X77385Y114169D01*
X77129Y113913D01*
X74787D01*
Y114587D01*
D02*
G37*
G36*
X291392Y109468D02*
X290608D01*
X289885Y109169D01*
X289331Y108615D01*
X289032Y107892D01*
Y107108D01*
X289331Y106385D01*
X289885Y105831D01*
X290608Y105532D01*
X291392D01*
X292115Y105831D01*
X292669Y106385D01*
X292969Y107108D01*
Y107892D01*
X292669Y108615D01*
X292115Y109169D01*
X291392Y109468D01*
D02*
G37*
G36*
X90415Y105850D02*
X86965D01*
Y103600D01*
X90415D01*
Y105850D01*
D02*
G37*
G36*
X85965D02*
X82515D01*
Y103600D01*
X85965D01*
Y105850D01*
D02*
G37*
G36*
X49925Y107728D02*
X49075D01*
X48254Y107508D01*
X47518Y107083D01*
X46917Y106482D01*
X46492Y105746D01*
X46272Y104925D01*
Y104075D01*
X46492Y103254D01*
X46917Y102518D01*
X47518Y101917D01*
X48254Y101492D01*
X49075Y101272D01*
X49925D01*
X50746Y101492D01*
X51482Y101917D01*
X52083Y102518D01*
X52508Y103254D01*
X52728Y104075D01*
Y104925D01*
X52508Y105746D01*
X52083Y106482D01*
X51482Y107083D01*
X50746Y107508D01*
X49925Y107728D01*
D02*
G37*
G36*
X69331Y101772D02*
X67256D01*
Y99500D01*
X69331D01*
Y101772D01*
D02*
G37*
G36*
X66256D02*
X64181D01*
Y99500D01*
X66256D01*
Y101772D01*
D02*
G37*
G36*
X69331Y98500D02*
X67256D01*
Y96228D01*
X69331D01*
Y98500D01*
D02*
G37*
G36*
X66256D02*
X64181D01*
Y96228D01*
X66256D01*
Y98500D01*
D02*
G37*
G36*
X64200Y108500D02*
X57000D01*
Y106900D01*
X57213D01*
Y103413D01*
X59931D01*
Y101559D01*
X58882D01*
Y98494D01*
X56200Y95813D01*
X52470D01*
X52083Y96482D01*
X51482Y97083D01*
X50746Y97508D01*
X49925Y97728D01*
X49075D01*
X48254Y97508D01*
X47518Y97083D01*
X46917Y96482D01*
X46492Y95746D01*
X46272Y94925D01*
Y94075D01*
X46492Y93254D01*
X46917Y92518D01*
X47518Y91917D01*
X48254Y91492D01*
X49075Y91272D01*
X49925D01*
X50746Y91492D01*
X51482Y91917D01*
X52083Y92518D01*
X52470Y93187D01*
X56744D01*
X57246Y93287D01*
X57672Y93572D01*
X60541Y96441D01*
X63606D01*
Y101559D01*
X62557D01*
Y103413D01*
X63987D01*
Y106900D01*
X64200D01*
Y108500D01*
D02*
G37*
G36*
X128750Y94770D02*
X128250Y94770D01*
X126490D01*
Y92020D01*
X125490D01*
Y94770D01*
X123730D01*
X123240Y94770D01*
X122740Y94770D01*
X120980D01*
Y92020D01*
X120480D01*
Y91520D01*
X117730D01*
Y89760D01*
X117730Y89270D01*
X117730Y88770D01*
Y87010D01*
X120480D01*
Y86010D01*
X117730D01*
Y84250D01*
X117730Y83760D01*
X117730Y83260D01*
Y81500D01*
X120480D01*
Y81000D01*
X120980D01*
Y78250D01*
X122740D01*
X123230Y78250D01*
X123730Y78250D01*
X125490D01*
Y81000D01*
X126490D01*
Y78250D01*
X128250D01*
X128740Y78250D01*
X129240Y78250D01*
X131000D01*
Y81000D01*
X131500D01*
Y81500D01*
X134250D01*
Y83260D01*
X134250Y83750D01*
X134250Y84250D01*
Y86010D01*
X131500D01*
Y87010D01*
X134250D01*
Y88770D01*
X134250Y89260D01*
X134250Y89760D01*
Y91520D01*
X131500D01*
Y92020D01*
X131000D01*
Y94770D01*
X129240D01*
X128750Y94770D01*
D02*
G37*
G36*
X132000Y94770D02*
Y92520D01*
X134250D01*
Y94770D01*
X132000D01*
D02*
G37*
G36*
X119980D02*
X117730D01*
Y92520D01*
X119980D01*
Y94770D01*
D02*
G37*
G36*
X216568Y88332D02*
X214494D01*
Y86060D01*
X216568D01*
Y88332D01*
D02*
G37*
G36*
X213494D02*
X211419D01*
Y86060D01*
X213494D01*
Y88332D01*
D02*
G37*
G36*
X216568Y85060D02*
X214494D01*
Y82788D01*
X216568D01*
Y85060D01*
D02*
G37*
G36*
X213494D02*
X211419D01*
Y82788D01*
X213494D01*
Y85060D01*
D02*
G37*
G36*
X49925Y87728D02*
X49075D01*
X48254Y87508D01*
X47518Y87083D01*
X46917Y86482D01*
X46492Y85746D01*
X46272Y84925D01*
Y84075D01*
X46492Y83254D01*
X46917Y82518D01*
X47518Y81917D01*
X48254Y81492D01*
X49075Y81272D01*
X49925D01*
X50746Y81492D01*
X51482Y81917D01*
X52083Y82518D01*
X52508Y83254D01*
X52728Y84075D01*
Y84925D01*
X52508Y85746D01*
X52083Y86482D01*
X51482Y87083D01*
X50746Y87508D01*
X49925Y87728D01*
D02*
G37*
G36*
X277118Y84559D02*
X272394D01*
Y79441D01*
X277118D01*
Y80687D01*
X288329D01*
X288685Y80331D01*
X289408Y80032D01*
X290192D01*
X290915Y80331D01*
X291469Y80885D01*
X291769Y81608D01*
Y82392D01*
X291469Y83115D01*
X290915Y83669D01*
X290192Y83969D01*
X289408D01*
X288685Y83669D01*
X288329Y83313D01*
X277118D01*
Y84559D01*
D02*
G37*
G36*
X201997Y79478D02*
X196879D01*
Y78313D01*
X195971D01*
X195615Y78669D01*
X194892Y78969D01*
X194108D01*
X193385Y78669D01*
X192831Y78115D01*
X192532Y77392D01*
Y76608D01*
X192831Y75885D01*
X193385Y75331D01*
X194108Y75032D01*
X194892D01*
X195615Y75331D01*
X195971Y75687D01*
X196879D01*
Y74753D01*
X201997D01*
Y79478D01*
D02*
G37*
G36*
X134250Y80500D02*
X132000D01*
Y78250D01*
X134250D01*
Y80500D01*
D02*
G37*
G36*
X119980D02*
X117730D01*
Y78250D01*
X119980D01*
Y80500D01*
D02*
G37*
G36*
X246600Y78019D02*
X244328D01*
Y75944D01*
X246600D01*
Y78019D01*
D02*
G37*
G36*
X212380Y74260D02*
X204620D01*
Y73889D01*
X204720Y73385D01*
X205006Y72958D01*
X204968Y72382D01*
X204935Y72332D01*
X201997D01*
Y73966D01*
X196879D01*
Y69242D01*
X201997D01*
Y69707D01*
X204935D01*
X205159Y69372D01*
X205516Y69133D01*
X205936Y69050D01*
X211064D01*
X211485Y69133D01*
X211841Y69372D01*
X212079Y69728D01*
X212163Y70149D01*
Y71891D01*
X212079Y72311D01*
X212032Y72382D01*
X211994Y72958D01*
X212280Y73385D01*
X212380Y73889D01*
Y74260D01*
D02*
G37*
G36*
X69331Y69772D02*
X67256D01*
Y67500D01*
X69331D01*
Y69772D01*
D02*
G37*
G36*
X66256D02*
X64181D01*
Y67500D01*
X66256D01*
Y69772D01*
D02*
G37*
G36*
X229409Y68760D02*
X227138D01*
Y66685D01*
X229409D01*
Y68760D01*
D02*
G37*
G36*
X226138D02*
X223866D01*
Y66685D01*
X226138D01*
Y68760D01*
D02*
G37*
G36*
X291072Y68088D02*
X289800D01*
Y65792D01*
X293801D01*
X293772Y66016D01*
X293493Y66690D01*
X293048Y67269D01*
X292469Y67713D01*
X291795Y67992D01*
X291072Y68088D01*
D02*
G37*
G36*
X288800D02*
X287528D01*
X286805Y67992D01*
X286131Y67713D01*
X285552Y67269D01*
X285107Y66690D01*
X284828Y66016D01*
X284799Y65792D01*
X288800D01*
Y68088D01*
D02*
G37*
G36*
X283410Y69048D02*
X280154D01*
Y65398D01*
X283410D01*
Y69048D01*
D02*
G37*
G36*
X247600Y67019D02*
Y64944D01*
X249872D01*
Y67019D01*
X247600D01*
D02*
G37*
G36*
X240700D02*
X238428D01*
Y64944D01*
X240700D01*
Y67019D01*
D02*
G37*
G36*
X49925Y77728D02*
X49075D01*
X48254Y77508D01*
X47518Y77083D01*
X46917Y76482D01*
X46492Y75746D01*
X46272Y74925D01*
Y74075D01*
X46492Y73254D01*
X46917Y72518D01*
X47518Y71917D01*
X48254Y71492D01*
X49075Y71272D01*
X49925D01*
X50746Y71492D01*
X51482Y71917D01*
X51586Y72020D01*
X51750Y71987D01*
X57213D01*
Y71413D01*
X59287D01*
Y69559D01*
X58882D01*
Y64441D01*
X63606D01*
Y69559D01*
X61913D01*
Y71413D01*
X63987D01*
Y74900D01*
X64200D01*
Y76500D01*
X57000D01*
Y74900D01*
X56619Y74613D01*
X52728D01*
Y74925D01*
X52508Y75746D01*
X52083Y76482D01*
X51482Y77083D01*
X50746Y77508D01*
X49925Y77728D01*
D02*
G37*
G36*
X69331Y66500D02*
X67256D01*
Y64228D01*
X69331D01*
Y66500D01*
D02*
G37*
G36*
X66256D02*
X64181D01*
Y64228D01*
X66256D01*
Y66500D01*
D02*
G37*
G36*
X293801Y64792D02*
X289800D01*
Y62497D01*
X291072D01*
X291795Y62592D01*
X292469Y62871D01*
X293048Y63315D01*
X293493Y63894D01*
X293772Y64569D01*
X293801Y64792D01*
D02*
G37*
G36*
X288800D02*
X284799D01*
X284828Y64569D01*
X285107Y63894D01*
X285552Y63315D01*
X286131Y62871D01*
X286805Y62592D01*
X287528Y62497D01*
X288800D01*
Y64792D01*
D02*
G37*
G36*
X249872Y63944D02*
X247600D01*
Y61869D01*
X249872D01*
Y63944D01*
D02*
G37*
G36*
X240700D02*
X238428D01*
Y61869D01*
X240700D01*
Y63944D01*
D02*
G37*
G36*
X244328Y67019D02*
X243972D01*
X243828Y67019D01*
X241700D01*
Y64444D01*
Y61869D01*
X243828D01*
X243972Y61869D01*
X244328D01*
X244472Y61869D01*
X246600D01*
Y64444D01*
Y67019D01*
X244472D01*
X244328Y67019D01*
D02*
G37*
G36*
X49925Y67728D02*
X49075D01*
X48254Y67508D01*
X47518Y67083D01*
X46917Y66482D01*
X46492Y65746D01*
X46272Y64925D01*
Y64075D01*
X46492Y63254D01*
X46917Y62518D01*
X47518Y61917D01*
X48254Y61492D01*
X49075Y61272D01*
X49925D01*
X50746Y61492D01*
X51482Y61917D01*
X52083Y62518D01*
X52508Y63254D01*
X52728Y64075D01*
Y64925D01*
X52508Y65746D01*
X52083Y66482D01*
X51482Y67083D01*
X50746Y67508D01*
X49925Y67728D01*
D02*
G37*
G36*
X283410Y64398D02*
X280154D01*
Y60749D01*
X283410D01*
Y64398D01*
D02*
G37*
G36*
X279154D02*
X275898D01*
Y60749D01*
X279154D01*
Y64398D01*
D02*
G37*
G36*
X282426Y59018D02*
X279269D01*
Y57918D01*
X282426D01*
Y59018D01*
D02*
G37*
G36*
X278269D02*
X275111D01*
Y57918D01*
X278269D01*
Y59018D01*
D02*
G37*
G36*
X294040Y61765D02*
X289800D01*
Y57524D01*
X294040D01*
Y61765D01*
D02*
G37*
G36*
X288800D02*
X284560D01*
Y57524D01*
X288800D01*
Y61765D01*
D02*
G37*
G36*
X49925Y57728D02*
X49075D01*
X48254Y57508D01*
X47518Y57083D01*
X46917Y56482D01*
X46492Y55746D01*
X46272Y54925D01*
Y54075D01*
X46492Y53254D01*
X46917Y52518D01*
X47518Y51917D01*
X48254Y51492D01*
X49075Y51272D01*
X49925D01*
X50746Y51492D01*
X51482Y51917D01*
X52083Y52518D01*
X52508Y53254D01*
X52728Y54075D01*
Y54925D01*
X52508Y55746D01*
X52083Y56482D01*
X51482Y57083D01*
X50746Y57508D01*
X49925Y57728D01*
D02*
G37*
G36*
X230892Y58969D02*
X230108D01*
X229385Y58669D01*
X228831Y58115D01*
X228532Y57392D01*
Y56608D01*
X228831Y55885D01*
X229385Y55331D01*
X229543Y55266D01*
Y53359D01*
X228494D01*
Y48241D01*
X233218D01*
Y53359D01*
X232169D01*
Y55885D01*
X232169Y55885D01*
X232469Y56608D01*
Y57392D01*
X232169Y58115D01*
X231615Y58669D01*
X230892Y58969D01*
D02*
G37*
G36*
X207892D02*
X207108D01*
X206385Y58669D01*
X205831Y58115D01*
X205532Y57392D01*
Y56608D01*
X205831Y55885D01*
X206343Y55373D01*
Y53359D01*
X205294D01*
Y48241D01*
X210018D01*
Y53359D01*
X208968D01*
Y55685D01*
X209169Y55885D01*
X209469Y56608D01*
Y57392D01*
X209169Y58115D01*
X208615Y58669D01*
X207892Y58969D01*
D02*
G37*
G36*
X159140Y50100D02*
X156890D01*
Y46650D01*
X159140D01*
Y50100D01*
D02*
G37*
G36*
X294040Y47076D02*
X289800D01*
Y42835D01*
X294040D01*
Y47076D01*
D02*
G37*
G36*
X159140Y45650D02*
X156890D01*
Y42200D01*
X159140D01*
Y45650D01*
D02*
G37*
G36*
X155890Y50100D02*
X153640D01*
Y49887D01*
X88853D01*
Y42413D01*
X90132D01*
Y41416D01*
X89831Y41115D01*
X89531Y40392D01*
Y39608D01*
X89831Y38885D01*
X90385Y38331D01*
X91108Y38032D01*
X91892D01*
X92615Y38331D01*
X93169Y38885D01*
X93468Y39608D01*
Y40392D01*
X93169Y41115D01*
X92758Y41526D01*
Y42413D01*
X95077D01*
Y33934D01*
X76756Y15613D01*
X74787D01*
Y16187D01*
X70802D01*
Y16211D01*
X70702Y16713D01*
X70417Y17139D01*
X68244Y19313D01*
X68451Y19813D01*
X74787D01*
Y20287D01*
X76929D01*
X77385Y19831D01*
X78108Y19532D01*
X78892D01*
X79615Y19831D01*
X80169Y20385D01*
X80468Y21108D01*
Y21892D01*
X80169Y22615D01*
X79615Y23169D01*
X78892Y23469D01*
X78108D01*
X77385Y23169D01*
X77129Y22913D01*
X74787D01*
Y23587D01*
X68013D01*
Y20251D01*
X67513Y20044D01*
X65042Y22514D01*
X64617Y22798D01*
X64114Y22898D01*
X63987D01*
Y23587D01*
X57213D01*
Y20100D01*
X57000D01*
Y18500D01*
X64200D01*
Y18990D01*
X64662Y19182D01*
X68013Y15831D01*
Y12413D01*
X74787D01*
Y12987D01*
X77300D01*
X77802Y13087D01*
X78228Y13372D01*
X97318Y32462D01*
X97603Y32888D01*
X97703Y33390D01*
Y42413D01*
X132000D01*
X132243Y42116D01*
Y39659D01*
X131194D01*
Y34541D01*
X131987D01*
Y33718D01*
X130741D01*
Y28994D01*
X135859D01*
Y33718D01*
X134613D01*
Y34541D01*
X135918D01*
Y39659D01*
X134869D01*
Y41572D01*
X135709Y42413D01*
X142071D01*
X142387Y42096D01*
Y33518D01*
X141141D01*
Y28794D01*
X146259D01*
Y32877D01*
X146759Y33085D01*
X148072Y31772D01*
X148498Y31487D01*
X149000Y31387D01*
X172661D01*
Y30731D01*
X177386D01*
Y34668D01*
X172661D01*
Y34013D01*
X149544D01*
X148313Y35244D01*
Y35429D01*
X148669Y35785D01*
X148969Y36508D01*
Y37292D01*
X148669Y38015D01*
X148115Y38569D01*
X147392Y38868D01*
X146608D01*
X145885Y38569D01*
X145513Y38197D01*
X145013Y38404D01*
Y42413D01*
X153640D01*
Y42200D01*
X155890D01*
Y46150D01*
Y50100D01*
D02*
G37*
G36*
X204506Y53359D02*
X199782D01*
Y48241D01*
X200295D01*
Y46162D01*
X199246D01*
Y41438D01*
X203970D01*
Y46162D01*
X202921D01*
Y48241D01*
X204506D01*
Y53359D01*
D02*
G37*
G36*
X291072Y42103D02*
X289800D01*
Y39808D01*
X293801D01*
X293772Y40031D01*
X293493Y40706D01*
X293048Y41285D01*
X292469Y41729D01*
X291795Y42008D01*
X291072Y42103D01*
D02*
G37*
G36*
X247392Y42968D02*
X246608D01*
X245885Y42669D01*
X245331Y42115D01*
X245031Y41392D01*
Y40608D01*
X245331Y39885D01*
X245885Y39331D01*
X246608Y39031D01*
X247392D01*
X248115Y39331D01*
X248669Y39885D01*
X248969Y40608D01*
Y41392D01*
X248669Y42115D01*
X248115Y42669D01*
X247392Y42968D01*
D02*
G37*
G36*
X293801Y38808D02*
X289800D01*
Y36512D01*
X291072D01*
X291795Y36608D01*
X292469Y36887D01*
X293048Y37331D01*
X293493Y37910D01*
X293772Y38584D01*
X293801Y38808D01*
D02*
G37*
G36*
X69331Y38772D02*
X67256D01*
Y36500D01*
X69331D01*
Y38772D01*
D02*
G37*
G36*
X66256D02*
X64181D01*
Y36500D01*
X66256D01*
Y38772D01*
D02*
G37*
G36*
X261815Y36700D02*
X259268D01*
Y35294D01*
X261815D01*
Y36700D01*
D02*
G37*
G36*
X49925Y47728D02*
X49075D01*
X48254Y47508D01*
X47518Y47083D01*
X46917Y46482D01*
X46492Y45746D01*
X46272Y44925D01*
Y44075D01*
X46492Y43254D01*
X46917Y42518D01*
X47518Y41917D01*
X48254Y41492D01*
X49075Y41272D01*
X49925D01*
X50746Y41492D01*
X50894Y41577D01*
X51099Y41372D01*
X51524Y41087D01*
X52027Y40987D01*
X57213D01*
Y40413D01*
X59931D01*
Y38559D01*
X58882D01*
Y33441D01*
X63606D01*
Y38559D01*
X62557D01*
Y40413D01*
X63987D01*
Y43900D01*
X64200D01*
Y45500D01*
X57000D01*
Y43900D01*
X56619Y43613D01*
X53015D01*
X52711Y44009D01*
X52728Y44075D01*
Y44925D01*
X52508Y45746D01*
X52083Y46482D01*
X51482Y47083D01*
X50746Y47508D01*
X49925Y47728D01*
D02*
G37*
G36*
X69331Y35500D02*
X67256D01*
Y33228D01*
X69331D01*
Y35500D01*
D02*
G37*
G36*
X66256D02*
X64181D01*
Y33228D01*
X66256D01*
Y35500D01*
D02*
G37*
G36*
X130406Y39659D02*
X125682D01*
Y34541D01*
X126732D01*
Y33015D01*
X126331Y32615D01*
X126031Y31892D01*
Y31108D01*
X126331Y30385D01*
X126885Y29831D01*
X127608Y29531D01*
X128392D01*
X129115Y29831D01*
X129669Y30385D01*
X129969Y31108D01*
Y31892D01*
X129669Y32615D01*
X129357Y32927D01*
Y34541D01*
X130406D01*
Y39659D01*
D02*
G37*
G36*
X237872Y30831D02*
X235600D01*
Y28756D01*
X237872D01*
Y30831D01*
D02*
G37*
G36*
X290731Y29472D02*
X288656D01*
Y27200D01*
X290731D01*
Y29472D01*
D02*
G37*
G36*
X287656D02*
X285581D01*
Y27200D01*
X287656D01*
Y29472D01*
D02*
G37*
G36*
X111106Y27759D02*
X106382D01*
Y26513D01*
X104771D01*
X104415Y26869D01*
X103692Y27169D01*
X102908D01*
X102185Y26869D01*
X101631Y26315D01*
X101331Y25592D01*
Y24808D01*
X101631Y24085D01*
X102185Y23531D01*
X102908Y23232D01*
X103692D01*
X104415Y23531D01*
X104771Y23887D01*
X106382D01*
Y22641D01*
X106687D01*
Y18999D01*
X106000D01*
X105034Y18740D01*
X104167Y18240D01*
X103460Y17533D01*
X102960Y16666D01*
X102701Y15700D01*
Y14700D01*
X102960Y13734D01*
X103460Y12867D01*
X104167Y12160D01*
X105034Y11660D01*
X106000Y11401D01*
X107000D01*
X107966Y11660D01*
X108833Y12160D01*
X109540Y12867D01*
X110040Y13734D01*
X110299Y14700D01*
Y15700D01*
X110040Y16666D01*
X109540Y17533D01*
X109263Y17810D01*
X109313Y18059D01*
Y22641D01*
X111106D01*
Y27759D01*
D02*
G37*
G36*
X247392Y35969D02*
X246608D01*
X245885Y35669D01*
X245331Y35115D01*
X245031Y34392D01*
Y33608D01*
X245331Y32885D01*
X245885Y32331D01*
X245987Y32289D01*
Y30618D01*
X244741D01*
Y25894D01*
X249859D01*
Y30618D01*
X248613D01*
Y32829D01*
X248669Y32885D01*
X248969Y33608D01*
Y34392D01*
X248669Y35115D01*
X248115Y35669D01*
X247392Y35969D01*
D02*
G37*
G36*
X116831Y27972D02*
X114756D01*
Y25700D01*
X116831D01*
Y27972D01*
D02*
G37*
G36*
X113756D02*
X111681D01*
Y25700D01*
X113756D01*
Y27972D01*
D02*
G37*
G36*
X237872Y27756D02*
X235600D01*
Y25681D01*
X237872D01*
Y27756D01*
D02*
G37*
G36*
X290731Y26200D02*
X288656D01*
Y23928D01*
X290731D01*
Y26200D01*
D02*
G37*
G36*
X287656D02*
X285581D01*
Y23928D01*
X287656D01*
Y26200D01*
D02*
G37*
G36*
X116831Y24700D02*
X114756D01*
Y22428D01*
X116831D01*
Y24700D01*
D02*
G37*
G36*
X113756D02*
X111681D01*
Y22428D01*
X113756D01*
Y24700D01*
D02*
G37*
G36*
X135859Y28206D02*
X130741D01*
Y23482D01*
X131987D01*
Y22356D01*
X132087Y21854D01*
X132372Y21428D01*
X134072Y19728D01*
X134498Y19443D01*
X135000Y19343D01*
X136129D01*
X136485Y18987D01*
X137208Y18687D01*
X137992D01*
X138715Y18987D01*
X139269Y19541D01*
X139568Y20264D01*
Y21047D01*
X139269Y21771D01*
X138715Y22325D01*
X137992Y22624D01*
X137208D01*
X136485Y22325D01*
X136129Y21969D01*
X135544D01*
X134613Y22900D01*
Y23482D01*
X135859D01*
Y28206D01*
D02*
G37*
G36*
X30572Y19531D02*
X28300D01*
Y17456D01*
X30572D01*
Y19531D01*
D02*
G37*
G36*
X27300D02*
X25028D01*
Y17456D01*
X27300D01*
Y19531D01*
D02*
G37*
G36*
X120512Y19212D02*
X117000D01*
Y15700D01*
X120512D01*
Y19212D01*
D02*
G37*
G36*
X116000D02*
X112488D01*
Y15700D01*
X116000D01*
Y19212D01*
D02*
G37*
G36*
X146259Y28006D02*
X141141D01*
Y23282D01*
X142287D01*
Y18900D01*
X142387Y18398D01*
X142672Y17972D01*
X144372Y16272D01*
X144798Y15987D01*
X145300Y15887D01*
X148329D01*
X148685Y15531D01*
X149408Y15232D01*
X150192D01*
X150915Y15531D01*
X151469Y16085D01*
X151769Y16808D01*
Y17592D01*
X151469Y18315D01*
X150915Y18869D01*
X150192Y19169D01*
X149408D01*
X148685Y18869D01*
X148329Y18513D01*
X145844D01*
X144913Y19444D01*
Y23282D01*
X146259D01*
Y28006D01*
D02*
G37*
G36*
X30572Y16456D02*
X28300D01*
Y14381D01*
X30572D01*
Y16456D01*
D02*
G37*
G36*
X27300D02*
X25028D01*
Y14381D01*
X27300D01*
Y16456D01*
D02*
G37*
G36*
X120512Y14700D02*
X117000D01*
Y11188D01*
X120512D01*
Y14700D01*
D02*
G37*
G36*
X116000D02*
X112488D01*
Y11188D01*
X116000D01*
Y14700D01*
D02*
G37*
G36*
X185339Y30928D02*
X180614D01*
Y28454D01*
X178769Y26609D01*
X178484Y26183D01*
X178384Y25680D01*
Y14018D01*
X176941D01*
Y9294D01*
X182059D01*
Y14018D01*
X181009D01*
Y25137D01*
X182864Y26991D01*
X185339D01*
Y30928D01*
D02*
G37*
G36*
X237872Y11219D02*
X235600D01*
Y9144D01*
X237872D01*
Y11219D01*
D02*
G37*
G36*
X234600D02*
X232328D01*
Y9144D01*
X234600D01*
Y11219D01*
D02*
G37*
G36*
X13337Y22630D02*
X11663D01*
X10011Y22368D01*
X8420Y21851D01*
X6929Y21091D01*
X5575Y20108D01*
X4392Y18925D01*
X3409Y17571D01*
X2649Y16081D01*
X2132Y14489D01*
X1870Y12837D01*
Y11163D01*
X2132Y9511D01*
X2649Y7920D01*
X3409Y6429D01*
X4392Y5075D01*
X5575Y3892D01*
X6929Y2908D01*
X8420Y2149D01*
X10011Y1632D01*
X11663Y1370D01*
X13337D01*
X14989Y1632D01*
X16580Y2149D01*
X18071Y2908D01*
X19425Y3892D01*
X20608Y5075D01*
X21591Y6429D01*
X22351Y7920D01*
X22868Y9511D01*
X22966Y10131D01*
X25241D01*
Y9082D01*
X30359D01*
Y13806D01*
X25241D01*
Y12757D01*
X23130D01*
Y12837D01*
X22868Y14489D01*
X22351Y16081D01*
X21591Y17571D01*
X20608Y18925D01*
X19425Y20108D01*
X18071Y21091D01*
X16580Y21851D01*
X14989Y22368D01*
X13337Y22630D01*
D02*
G37*
G36*
X69331Y10772D02*
X67256D01*
Y8500D01*
X69331D01*
Y10772D01*
D02*
G37*
G36*
X66256D02*
X64181D01*
Y8500D01*
X66256D01*
Y10772D01*
D02*
G37*
G36*
X249759Y11050D02*
X244641D01*
Y6326D01*
X249759D01*
Y7376D01*
X250341D01*
X250697Y7019D01*
X251420Y6720D01*
X252203D01*
X252927Y7019D01*
X253481Y7573D01*
X253780Y8297D01*
Y9080D01*
X253481Y9803D01*
X252927Y10357D01*
X252203Y10657D01*
X251420D01*
X250697Y10357D01*
X250341Y10001D01*
X249759D01*
Y11050D01*
D02*
G37*
G36*
X237872Y8144D02*
X235600D01*
Y6069D01*
X237872D01*
Y8144D01*
D02*
G37*
G36*
X234600D02*
X232328D01*
Y6069D01*
X234600D01*
Y8144D01*
D02*
G37*
G36*
X52728Y37728D02*
X46272D01*
Y31272D01*
X48187D01*
Y21000D01*
X48287Y20498D01*
X48572Y20072D01*
X55272Y13372D01*
X55698Y13087D01*
X56200Y12987D01*
X57213D01*
Y12413D01*
X59287D01*
Y10559D01*
X58882D01*
Y5441D01*
X63606D01*
Y10559D01*
X61913D01*
Y12413D01*
X63987D01*
Y15900D01*
X64200D01*
Y17500D01*
X57000D01*
Y16063D01*
X56531Y15825D01*
X50813Y21544D01*
Y31272D01*
X52728D01*
Y37728D01*
D02*
G37*
G36*
X69331Y7500D02*
X67256D01*
Y5228D01*
X69331D01*
Y7500D01*
D02*
G37*
G36*
X66256D02*
X64181D01*
Y5228D01*
X66256D01*
Y7500D01*
D02*
G37*
G36*
X285006Y29259D02*
X280282D01*
Y24141D01*
X281687D01*
Y22555D01*
X280511Y22368D01*
X278920Y21851D01*
X277429Y21091D01*
X276075Y20108D01*
X274892Y18925D01*
X273908Y17571D01*
X273149Y16081D01*
X272632Y14489D01*
X272370Y12837D01*
Y11163D01*
X272632Y9511D01*
X273149Y7920D01*
X273908Y6429D01*
X274892Y5075D01*
X276075Y3892D01*
X277429Y2908D01*
X278920Y2149D01*
X280511Y1632D01*
X282163Y1370D01*
X283837D01*
X285489Y1632D01*
X287081Y2149D01*
X288571Y2908D01*
X289925Y3892D01*
X291108Y5075D01*
X292091Y6429D01*
X292851Y7920D01*
X293368Y9511D01*
X293630Y11163D01*
Y12837D01*
X293368Y14489D01*
X292851Y16081D01*
X292091Y17571D01*
X291108Y18925D01*
X289925Y20108D01*
X288571Y21091D01*
X287081Y21851D01*
X285489Y22368D01*
X284313Y22555D01*
Y24141D01*
X285006D01*
Y29259D01*
D02*
G37*
G36*
X284731Y132572D02*
X282656D01*
Y130300D01*
X284731D01*
Y132572D01*
D02*
G37*
G36*
Y129300D02*
X282656D01*
Y127028D01*
X284731D01*
Y129300D01*
D02*
G37*
G36*
X287232Y124505D02*
X284685D01*
Y123100D01*
X287232D01*
Y124505D01*
D02*
G37*
G36*
Y122100D02*
X284685D01*
Y120694D01*
X287232D01*
Y122100D01*
D02*
G37*
G36*
X208150Y134866D02*
X204500D01*
Y127476D01*
X208150D01*
Y134866D01*
D02*
G37*
G36*
X203500D02*
X199850D01*
Y127476D01*
X203500D01*
Y134866D01*
D02*
G37*
G36*
X208150Y126476D02*
X204500D01*
Y119087D01*
X208150D01*
Y126476D01*
D02*
G37*
G36*
X203500D02*
X199850D01*
Y119087D01*
X203500D01*
Y126476D01*
D02*
G37*
G36*
X204119Y115872D02*
X202044D01*
Y113600D01*
X204119D01*
Y115872D01*
D02*
G37*
G36*
X201044D02*
X198969D01*
Y113600D01*
X201044D01*
Y115872D01*
D02*
G37*
G36*
X204119Y112600D02*
X202044D01*
Y110328D01*
X204119D01*
Y112600D01*
D02*
G37*
G36*
X201044D02*
X198969D01*
Y110328D01*
X201044D01*
Y112600D01*
D02*
G37*
G36*
X221656Y109972D02*
X219581D01*
Y107700D01*
X221656D01*
Y109972D01*
D02*
G37*
G36*
X200076Y109400D02*
X199076D01*
Y107500D01*
X200076D01*
Y109400D01*
D02*
G37*
G36*
X260459Y117250D02*
X259559D01*
Y115400D01*
X260459D01*
Y117250D01*
D02*
G37*
G36*
X258559D02*
X257000D01*
Y114900D01*
X256900D01*
Y113550D01*
X258659D01*
Y114900D01*
X258559D01*
Y117250D01*
D02*
G37*
G36*
X260459Y114400D02*
X259459D01*
Y107200D01*
X260459D01*
Y109050D01*
X260262D01*
Y112550D01*
X260459D01*
Y114400D01*
D02*
G37*
G36*
X270843Y111562D02*
X269957D01*
X269102Y111333D01*
X268336Y110890D01*
X267710Y110264D01*
X267267Y109498D01*
X267038Y108643D01*
Y107757D01*
X267267Y106902D01*
X267710Y106136D01*
X268336Y105510D01*
X269102Y105067D01*
X269957Y104838D01*
X270843D01*
X271698Y105067D01*
X272464Y105510D01*
X273090Y106136D01*
X273533Y106902D01*
X273762Y107757D01*
Y108643D01*
X273533Y109498D01*
X273090Y110264D01*
X272464Y110890D01*
X271698Y111333D01*
X270843Y111562D01*
D02*
G37*
G36*
X260459Y106200D02*
X259559D01*
Y104350D01*
X260459D01*
Y106200D01*
D02*
G37*
G36*
X258659Y108050D02*
X256900D01*
Y106700D01*
X257000D01*
Y104350D01*
X258559D01*
Y106700D01*
X258659D01*
Y108050D01*
D02*
G37*
G36*
X273975Y103901D02*
X270900D01*
Y100826D01*
X273975D01*
Y103901D01*
D02*
G37*
G36*
X269900D02*
X266825D01*
Y100826D01*
X269900D01*
Y103901D01*
D02*
G37*
G36*
X273975Y99826D02*
X270900D01*
Y96751D01*
X273975D01*
Y99826D01*
D02*
G37*
G36*
X269900D02*
X266825D01*
Y96751D01*
X269900D01*
Y99826D01*
D02*
G37*
G36*
X263228Y82767D02*
X262940D01*
Y81850D01*
X264388D01*
X264355Y82013D01*
X264090Y82409D01*
X263695Y82674D01*
X263228Y82767D01*
D02*
G37*
G36*
X200076Y94700D02*
X199076D01*
Y92800D01*
X200076D01*
Y94700D01*
D02*
G37*
G36*
X199806Y88159D02*
X195082D01*
Y87013D01*
X191971D01*
X191615Y87369D01*
X190892Y87669D01*
X190108D01*
X189385Y87369D01*
X188831Y86815D01*
X188531Y86092D01*
Y85308D01*
X188831Y84585D01*
X189385Y84031D01*
X190108Y83732D01*
X190892D01*
X191615Y84031D01*
X191971Y84387D01*
X195082D01*
Y83041D01*
X199806D01*
Y88159D01*
D02*
G37*
G36*
X205531Y88372D02*
X203456D01*
Y86100D01*
X205531D01*
Y88372D01*
D02*
G37*
G36*
X202456D02*
X200381D01*
Y86100D01*
X202456D01*
Y88372D01*
D02*
G37*
G36*
X205531Y85100D02*
X203456D01*
Y82828D01*
X205531D01*
Y85100D01*
D02*
G37*
G36*
X202456D02*
X200381D01*
Y82828D01*
X202456D01*
Y85100D01*
D02*
G37*
G36*
X246600Y83531D02*
X244328D01*
Y81456D01*
X246600D01*
Y83531D01*
D02*
G37*
G36*
X282426Y46682D02*
X279269D01*
Y45582D01*
X282426D01*
Y46682D01*
D02*
G37*
G36*
X278269D02*
X275111D01*
Y46062D01*
X275111Y46033D01*
X275108Y46005D01*
X275051Y45659D01*
X275037Y45641D01*
X274815Y45470D01*
X274781Y45460D01*
X274551Y45406D01*
X274292Y45406D01*
X272185D01*
Y44000D01*
X274732D01*
Y44925D01*
X274732Y44955D01*
X274735Y44983D01*
X274792Y45329D01*
X274807Y45347D01*
X275028Y45518D01*
X275063Y45528D01*
X275292Y45582D01*
X275551Y45582D01*
X278269D01*
Y46682D01*
D02*
G37*
G36*
X271185Y45406D02*
X268638D01*
Y44000D01*
X271185D01*
Y45406D01*
D02*
G37*
G36*
X274732Y43000D02*
X272185D01*
Y41594D01*
X274732D01*
Y43000D01*
D02*
G37*
G36*
X271185D02*
X268638D01*
Y41594D01*
X271185D01*
Y43000D01*
D02*
G37*
G36*
X274732Y39105D02*
X272185D01*
Y37700D01*
X274732D01*
Y39105D01*
D02*
G37*
G36*
X271185D02*
X268638D01*
Y37700D01*
X271185D01*
Y39105D01*
D02*
G37*
G36*
X274732Y36700D02*
X272185D01*
Y35294D01*
X274732D01*
Y36700D01*
D02*
G37*
G36*
X271185D02*
X268638D01*
Y35294D01*
X271185D01*
Y36700D01*
D02*
G37*
G36*
X261815Y45406D02*
X259268D01*
Y44000D01*
X261815D01*
Y45406D01*
D02*
G37*
G36*
Y43000D02*
X259268D01*
Y41594D01*
X261815D01*
Y43000D01*
D02*
G37*
%LPD*%
D10*
X254600Y71000D02*
X256162D01*
X258832Y66638D02*
Y68331D01*
X256162Y71000D02*
X258832Y68331D01*
X255000Y74200D02*
Y75010D01*
Y74200D02*
X257700Y71500D01*
X254960Y75050D02*
X255000Y75010D01*
X257700Y71500D02*
X260700D01*
X266600Y80068D02*
Y85059D01*
X262440Y79775D02*
X266307D01*
X266600Y80068D01*
X263444Y78056D02*
X263863Y77637D01*
X265500D01*
X262440Y76625D02*
X262584Y76481D01*
X264000Y76100D02*
X269300D01*
X263618Y76481D02*
X264000Y76100D01*
X262584Y76481D02*
X263618D01*
X262584Y78056D02*
X263444D01*
X262440Y78200D02*
X262584Y78056D01*
X252950Y75505D02*
X254070Y76625D01*
X254960D01*
X247100Y69956D02*
X250156D01*
X252950Y72750D02*
Y75505D01*
X250156Y69956D02*
X252950Y72750D01*
X250000Y78000D02*
X251775Y79775D01*
X249241Y72700D02*
X250000Y73459D01*
Y78000D01*
X252500Y77500D02*
X253200Y78200D01*
X254960D01*
X223500Y103500D02*
X225000Y105000D01*
Y112000D01*
X224188Y112812D02*
X225000Y112000D01*
X222444Y112812D02*
X224188D01*
X222156Y113100D02*
X222444Y112812D01*
X283043Y122600D02*
X284185D01*
X280743Y120300D02*
X283043Y122600D01*
X254527Y120300D02*
X280743D01*
X251775Y79775D02*
X254960D01*
X241200Y69956D02*
X241397D01*
X244141Y72700D01*
X249241D01*
X266600Y85059D02*
X269244Y87703D01*
Y87900D01*
X253941Y114900D02*
Y119714D01*
X254527Y120300D01*
D15*
X262440Y81350D02*
D03*
Y79775D02*
D03*
Y78200D02*
D03*
Y76625D02*
D03*
Y75050D02*
D03*
X254960D02*
D03*
Y76625D02*
D03*
Y78200D02*
D03*
Y79775D02*
D03*
Y81350D02*
D03*
D16*
X289300Y57024D02*
D03*
Y47576D02*
D03*
D17*
X279654Y64898D02*
D03*
Y39702D02*
D03*
D18*
X278768Y57418D02*
D03*
Y54859D02*
D03*
Y52300D02*
D03*
Y49741D02*
D03*
Y47182D02*
D03*
D19*
X247100Y69956D02*
D03*
Y64444D02*
D03*
X241200Y69956D02*
D03*
Y64444D02*
D03*
X247100Y75444D02*
D03*
Y80956D02*
D03*
X199438Y71604D02*
D03*
Y77116D02*
D03*
X232538Y77616D02*
D03*
Y72104D02*
D03*
X226638Y74772D02*
D03*
Y69260D02*
D03*
X247200Y8688D02*
D03*
Y14200D02*
D03*
X235100Y8644D02*
D03*
Y14156D02*
D03*
X133300Y25844D02*
D03*
Y31356D02*
D03*
X247300Y28256D02*
D03*
Y22744D02*
D03*
X143700Y25644D02*
D03*
Y31156D02*
D03*
X179500Y6144D02*
D03*
Y11656D02*
D03*
X235100Y28256D02*
D03*
Y22744D02*
D03*
X191600Y35156D02*
D03*
Y29644D02*
D03*
X267100Y140644D02*
D03*
Y146156D02*
D03*
X27800Y16956D02*
D03*
Y11444D02*
D03*
X27900Y140744D02*
D03*
Y146256D02*
D03*
D20*
X262572Y66638D02*
D03*
X258832D02*
D03*
X255091D02*
D03*
X262572Y56362D02*
D03*
X258832D02*
D03*
X255091D02*
D03*
D21*
X205300Y101100D02*
D03*
D22*
X200576Y107000D02*
D03*
X202150D02*
D03*
X203725D02*
D03*
X205300D02*
D03*
X206875D02*
D03*
X208450D02*
D03*
X210024D02*
D03*
Y95200D02*
D03*
X208450D02*
D03*
X206875D02*
D03*
X205300D02*
D03*
X203725D02*
D03*
X202150D02*
D03*
X200576D02*
D03*
D23*
X125990Y86510D02*
D03*
X131500D02*
D03*
Y81000D02*
D03*
X125990D02*
D03*
X120480D02*
D03*
Y86510D02*
D03*
Y92020D02*
D03*
X125990D02*
D03*
X131500D02*
D03*
D24*
X156390Y46150D02*
D03*
X151390D02*
D03*
X146390D02*
D03*
X141390D02*
D03*
X136390D02*
D03*
X131390D02*
D03*
X126390D02*
D03*
X121390D02*
D03*
X116390D02*
D03*
X111390D02*
D03*
X106390D02*
D03*
X101390D02*
D03*
X96390D02*
D03*
X91390D02*
D03*
Y115050D02*
D03*
X96390D02*
D03*
X101390D02*
D03*
X106390D02*
D03*
X111390D02*
D03*
X116390D02*
D03*
X121390D02*
D03*
X126390D02*
D03*
X131390D02*
D03*
X136390D02*
D03*
X141390D02*
D03*
X146390D02*
D03*
X151390D02*
D03*
X156390D02*
D03*
D25*
X86465Y58100D02*
D03*
Y63100D02*
D03*
Y68100D02*
D03*
Y73100D02*
D03*
Y78100D02*
D03*
Y83100D02*
D03*
Y88100D02*
D03*
Y93100D02*
D03*
Y98100D02*
D03*
Y103100D02*
D03*
D26*
X269300Y76100D02*
D03*
X274812D02*
D03*
X274756Y82000D02*
D03*
X269244D02*
D03*
X274756Y87900D02*
D03*
X269244D02*
D03*
X230856Y50800D02*
D03*
X225344D02*
D03*
X207656D02*
D03*
X202144D02*
D03*
X208482Y85560D02*
D03*
X213994D02*
D03*
X66756Y67000D02*
D03*
X61244D02*
D03*
X66756Y99000D02*
D03*
X61244D02*
D03*
X66756Y130000D02*
D03*
X61244D02*
D03*
X66756Y36000D02*
D03*
X61244D02*
D03*
X66756Y8000D02*
D03*
X61244D02*
D03*
X247556Y92700D02*
D03*
X242044D02*
D03*
X276644Y129800D02*
D03*
X282156D02*
D03*
X138988Y131800D02*
D03*
X144500D02*
D03*
X121500Y123900D02*
D03*
X115988D02*
D03*
X155300Y139900D02*
D03*
X160812D02*
D03*
X155300Y147600D02*
D03*
X160812D02*
D03*
X133556Y37100D02*
D03*
X128044D02*
D03*
X216644Y97600D02*
D03*
X222156D02*
D03*
X216644Y107200D02*
D03*
X222156D02*
D03*
X222156Y113100D02*
D03*
X216644D02*
D03*
X288156Y26700D02*
D03*
X282644D02*
D03*
X201544Y113100D02*
D03*
X207056D02*
D03*
X108744Y25200D02*
D03*
X114256D02*
D03*
X152100Y123800D02*
D03*
X157612D02*
D03*
X152100Y131800D02*
D03*
X157612D02*
D03*
X144400Y123800D02*
D03*
X138888D02*
D03*
X197444Y85600D02*
D03*
X202956D02*
D03*
D27*
X263160Y19963D02*
D03*
X270640D02*
D03*
X266900Y27837D02*
D03*
D28*
X182976Y36440D02*
D03*
Y28960D02*
D03*
X175024Y32700D02*
D03*
X196000Y9200D02*
D03*
X188047Y12940D02*
D03*
Y5460D02*
D03*
D29*
X271685Y37200D02*
D03*
X262315D02*
D03*
X271685Y43500D02*
D03*
X262315D02*
D03*
X274815Y122600D02*
D03*
X284185D02*
D03*
D30*
X224752Y43800D02*
D03*
X231248D02*
D03*
X201608D02*
D03*
X208104D02*
D03*
X241452Y99800D02*
D03*
X247948D02*
D03*
X115752Y131700D02*
D03*
X122248D02*
D03*
X167152Y139900D02*
D03*
X173648D02*
D03*
X167108Y147700D02*
D03*
X173604D02*
D03*
D31*
X208688Y14295D02*
D03*
Y16263D02*
D03*
Y18232D02*
D03*
Y20200D02*
D03*
Y22169D02*
D03*
Y24137D02*
D03*
Y26105D02*
D03*
X227512D02*
D03*
Y24137D02*
D03*
Y22169D02*
D03*
Y20200D02*
D03*
Y18232D02*
D03*
Y16263D02*
D03*
Y14295D02*
D03*
D32*
X212194Y29612D02*
D03*
X214163D02*
D03*
X216131D02*
D03*
X218100D02*
D03*
X220069D02*
D03*
X222037D02*
D03*
X224006D02*
D03*
Y10789D02*
D03*
X222037D02*
D03*
X220069D02*
D03*
X218100D02*
D03*
X216131D02*
D03*
X214163D02*
D03*
D33*
X212194D02*
D03*
D34*
X208500Y78500D02*
D03*
Y74760D02*
D03*
Y71020D02*
D03*
X218776Y78500D02*
D03*
Y74760D02*
D03*
Y71020D02*
D03*
D35*
X253941Y114900D02*
D03*
X256500D02*
D03*
X259059D02*
D03*
Y106700D02*
D03*
X256500D02*
D03*
X253941D02*
D03*
D36*
X71400Y112700D02*
D03*
Y105300D02*
D03*
X60600D02*
D03*
Y109000D02*
D03*
Y112700D02*
D03*
X71400Y143700D02*
D03*
Y136300D02*
D03*
X60600D02*
D03*
Y140000D02*
D03*
Y143700D02*
D03*
X71400Y49700D02*
D03*
Y42300D02*
D03*
X60600D02*
D03*
Y46000D02*
D03*
Y49700D02*
D03*
X71400Y80700D02*
D03*
Y73300D02*
D03*
X60600D02*
D03*
Y77000D02*
D03*
Y80700D02*
D03*
X71400Y21700D02*
D03*
Y14300D02*
D03*
X60600D02*
D03*
Y18000D02*
D03*
Y21700D02*
D03*
D37*
X241800Y149024D02*
D03*
Y126976D02*
D03*
X204000Y149024D02*
D03*
Y126976D02*
D03*
D48*
X218100Y20200D02*
D03*
D60*
X258700Y78200D02*
D03*
D61*
X253886Y110800D02*
D03*
D62*
X71400Y14300D02*
X77300D01*
X70089D02*
X71400D01*
X96390Y33390D02*
Y46150D01*
X247100Y80956D02*
X247494Y81350D01*
X254960D01*
X197344Y85700D02*
X197444Y85600D01*
X190500Y85700D02*
X197344D01*
X194500Y77000D02*
X199322D01*
X199438Y77116D01*
X203725Y95200D02*
X205300D01*
X211261Y5261D02*
X214261D01*
X216131Y7131D02*
Y10789D01*
X214261Y5261D02*
X216131Y7131D01*
X280048Y39308D02*
X289300D01*
X279654Y39702D02*
X280048Y39308D01*
X274756Y82000D02*
X289800D01*
X274756Y87900D02*
X289700D01*
X247014Y55314D02*
X252500Y60800D01*
X256400D01*
X258170Y57024D02*
Y59030D01*
Y57024D02*
X258832Y56362D01*
X256400Y60800D02*
X258170Y59030D01*
X267500Y62300D02*
X274812Y69612D01*
X255091Y64945D02*
X257736Y62300D01*
X267500D01*
X255091Y64945D02*
Y66638D01*
X120480Y86510D02*
X125990D01*
X152272Y140097D02*
X155103D01*
X150369Y142000D02*
X152272Y140097D01*
X155103D02*
X155300Y139900D01*
X150000Y142000D02*
X150369D01*
X160812Y139900D02*
X167152D01*
X160812Y147600D02*
X167008D01*
X167108Y147700D01*
X247200Y8688D02*
X251812D01*
X234500Y87000D02*
X236000Y85500D01*
X234772Y74772D02*
X236000Y76000D01*
Y85500D01*
X226638Y74772D02*
X234772D01*
X150000Y147500D02*
X150100Y147600D01*
X155300D01*
X150500Y136500D02*
X152100Y134900D01*
Y131800D02*
Y134900D01*
X138988Y131800D02*
Y136012D01*
X138500Y136500D02*
X138988Y136012D01*
X228211Y10789D02*
X228500Y10500D01*
X224006Y10789D02*
X228211D01*
X222037D02*
X224006D01*
X247300Y28256D02*
Y33700D01*
X247000Y34000D02*
X247300Y33700D01*
X230500Y57000D02*
X230856Y56644D01*
Y50800D02*
Y56644D01*
X207656Y50800D02*
Y56844D01*
X207500Y57000D02*
X207656Y56844D01*
X106500Y16559D02*
X108000Y18059D01*
Y24456D02*
X108744Y25200D01*
X106500Y15200D02*
Y16559D01*
X108000Y18059D02*
Y24456D01*
X128000Y31500D02*
X128044Y31544D01*
Y37100D01*
X78400Y21600D02*
X78500Y21500D01*
X71400Y21700D02*
X71500Y21600D01*
X78400D01*
X71500Y49600D02*
X78400D01*
X71400Y49700D02*
X71500Y49600D01*
X78400D02*
X78500Y49500D01*
X71500Y80600D02*
X78400D01*
X71400Y80700D02*
X71500Y80600D01*
X78400D02*
X78500Y80500D01*
X71500Y112600D02*
X78400D01*
X71400Y112700D02*
X71500Y112600D01*
X78400D02*
X78500Y112500D01*
X71550Y143850D02*
X78350D01*
X78500Y144000D01*
X71400Y143700D02*
X71550Y143850D01*
X77150Y42650D02*
X85579Y51079D01*
Y57214D01*
X71750Y42650D02*
X77150D01*
X71400Y42300D02*
X71750Y42650D01*
X265107Y66638D02*
X269300Y70831D01*
X269244Y76156D02*
Y82000D01*
X269300Y70831D02*
Y76100D01*
X262572Y66638D02*
X265107D01*
X269244Y76156D02*
X269300Y76100D01*
X274812Y69612D02*
Y76100D01*
X200576Y107000D02*
X202150D01*
X203725D02*
X205300D01*
X202150D02*
X203725D01*
X250900Y51600D02*
X259502D01*
X231400Y32100D02*
X250900Y51600D01*
X231400Y25100D02*
Y32100D01*
X227512Y24137D02*
X230437D01*
X231400Y25100D01*
X259502Y51600D02*
X262572Y54669D01*
X227512Y26105D02*
Y31411D01*
X252462Y56362D01*
X255091D01*
X262572Y54669D02*
Y56362D01*
X49500Y124500D02*
Y131000D01*
X54800Y136300D02*
X60600D01*
X49500Y131000D02*
X54800Y136300D01*
X60644Y42300D02*
X61244Y41700D01*
X60600Y42300D02*
X60644D01*
X61244Y36000D02*
Y41700D01*
X49500Y44500D02*
X49827D01*
X52027Y42300D01*
X60600D01*
X56744Y94500D02*
X61244Y99000D01*
X49500Y94500D02*
X56744D01*
X61244Y99000D02*
Y104700D01*
X50550Y74500D02*
X51750Y73300D01*
X49500Y74500D02*
X50550D01*
X51750Y73300D02*
X60600D01*
X49500Y21000D02*
Y34500D01*
X56200Y14300D02*
X60600D01*
X49500Y21000D02*
X56200Y14300D01*
X60600Y130644D02*
Y136300D01*
Y130644D02*
X61244Y130000D01*
X60600Y8644D02*
X61244Y8000D01*
X60600Y8644D02*
Y14300D01*
Y67644D02*
Y73300D01*
Y67644D02*
X61244Y67000D01*
X60644Y105300D02*
X61244Y104700D01*
X60600Y105300D02*
X60644D01*
X248248Y99500D02*
X251200D01*
X247948Y99800D02*
X248248Y99500D01*
X146390Y115050D02*
X147000Y114440D01*
Y103350D02*
Y114440D01*
X149000Y32700D02*
X175024D01*
X147000Y34700D02*
X149000Y32700D01*
X147000Y34700D02*
Y36900D01*
X60714Y143586D02*
X64114D01*
X69489Y136900D02*
Y138211D01*
X70089Y136300D02*
X71400D01*
X64114Y143586D02*
X69489Y138211D01*
X60600Y143700D02*
X60714Y143586D01*
X69489Y136900D02*
X70089Y136300D01*
X71400D02*
X71750Y135950D01*
X69489Y105900D02*
Y107211D01*
X64114Y112586D02*
X69489Y107211D01*
X60714Y112586D02*
X64114D01*
X60600Y112700D02*
X60714Y112586D01*
X69489Y105900D02*
X70089Y105300D01*
X72900D01*
X69489Y73900D02*
X70089Y73300D01*
X72900D01*
X60714Y80586D02*
X64114D01*
X60600Y80700D02*
X60714Y80586D01*
X64114D02*
X69489Y75211D01*
Y73900D02*
Y75211D01*
X60714Y49586D02*
X64114D01*
X69489Y42900D02*
Y44211D01*
X60600Y49700D02*
X60714Y49586D01*
X70089Y42300D02*
X71400D01*
X64114Y49586D02*
X69489Y44211D01*
Y42900D02*
X70089Y42300D01*
X60714Y21586D02*
X64114D01*
X69489Y16211D01*
Y14900D02*
Y16211D01*
X60600Y21700D02*
X60714Y21586D01*
X69489Y14900D02*
X70089Y14300D01*
X13056Y11444D02*
X27800D01*
X12500Y12000D02*
X13056Y11444D01*
X283000Y12000D02*
Y26344D01*
X282644Y26700D02*
X283000Y26344D01*
X265304Y6604D02*
Y8204D01*
X265400Y8300D01*
X260900Y2200D02*
X265304Y6604D01*
X263200Y8700D02*
Y10100D01*
X262100Y7600D02*
X263200Y8700D01*
X260000Y7600D02*
X262100D01*
X221072Y2200D02*
X260900D01*
X258700Y4900D02*
Y6300D01*
X258000Y4200D02*
X258700Y4900D01*
X221900Y4200D02*
X258000D01*
X258700Y6300D02*
X260000Y7600D01*
X218069Y5203D02*
X221072Y2200D01*
X218069Y5203D02*
Y10789D01*
X270640Y14840D02*
Y19963D01*
X263200Y10100D02*
X264000Y10900D01*
X266900D01*
X267500Y11500D02*
Y13200D01*
X268100Y13800D02*
X269600D01*
X270640Y14840D01*
X267500Y13200D02*
X268100Y13800D01*
X266900Y10900D02*
X267500Y11500D01*
X265358Y14042D02*
Y17568D01*
X263160Y19766D02*
X265358Y17568D01*
X263160Y19766D02*
Y19963D01*
X220069Y6032D02*
X221900Y4200D01*
X220069Y6032D02*
Y10789D01*
X273832Y54237D02*
X275632Y52437D01*
X278632D02*
X278769Y52300D01*
X275632Y52437D02*
X278632D01*
X271000Y54237D02*
X273832D01*
X263408Y20211D02*
Y22708D01*
X263400Y22716D02*
X263408Y22708D01*
X263400Y22716D02*
Y25500D01*
X263160Y19963D02*
X263408Y20211D01*
X274572Y49878D02*
X276611D01*
X272772Y51678D02*
X274572Y49878D01*
X276748Y49741D02*
X278769D01*
X276611Y49878D02*
X276748Y49741D01*
X271000Y51678D02*
X272772D01*
X270400Y20203D02*
Y25460D01*
Y20203D02*
X270640Y19963D01*
X208500Y78500D02*
Y85542D01*
X208482Y85560D02*
X208500Y85542D01*
X229125Y42725D02*
X230173D01*
X218100Y29612D02*
Y31700D01*
X229125Y42725D01*
X230173D02*
X231248Y43800D01*
X267100Y146156D02*
X267256Y146000D01*
X283000D01*
X27644D02*
X27900Y146256D01*
X12500Y146000D02*
X27644D01*
X224752Y50208D02*
X225344Y50800D01*
X224752Y43800D02*
Y50208D01*
X216131Y29612D02*
Y32168D01*
X208104Y40196D02*
X216131Y32168D01*
X208104Y40196D02*
Y43800D01*
X201608D02*
Y50264D01*
X202144Y50800D01*
X79900Y98100D02*
X86465D01*
X73250Y104750D02*
X79900Y98100D01*
X72900Y105300D02*
X73250Y104950D01*
Y104750D02*
Y104950D01*
X216644Y107397D02*
Y113100D01*
Y107200D02*
Y107397D01*
X209522Y109600D02*
X214441D01*
X216644Y107397D01*
X208450Y108527D02*
X209522Y109600D01*
X206875Y107000D02*
Y112919D01*
X207056Y113100D01*
X216644Y113100D02*
X216644Y113100D01*
X208450Y107000D02*
Y108527D01*
Y93350D02*
X210400Y91400D01*
X208450Y93350D02*
Y95200D01*
X210400Y91400D02*
X215000D01*
X216644Y93044D02*
Y97600D01*
X215000Y91400D02*
X216644Y93044D01*
X206875Y92525D02*
Y95200D01*
Y92525D02*
X208482Y90918D01*
Y85560D02*
Y90918D01*
X200022Y71020D02*
X208500D01*
X199438Y71604D02*
X200022Y71020D01*
X219298Y71542D02*
X222220D01*
X222782Y72104D01*
X232538D01*
X226626Y74760D02*
X226638Y74772D01*
X218776Y74760D02*
X226626D01*
X218776Y71020D02*
X219298Y71542D01*
X218776Y78500D02*
X231653D01*
X232538Y77616D01*
X136390Y44950D02*
Y46150D01*
X133556Y37100D02*
Y42116D01*
X136390Y44950D01*
X133300Y36844D02*
X133556Y37100D01*
X133300Y31356D02*
Y36844D01*
X141390Y44950D02*
X143700Y42640D01*
X141390Y44950D02*
Y46150D01*
X143700Y31156D02*
Y42640D01*
X143600Y18900D02*
Y25544D01*
X143700Y25644D01*
X241452Y93292D02*
X242044Y92700D01*
X241452Y93292D02*
Y99800D01*
X184654Y35156D02*
X191781D01*
X180184Y5460D02*
X198150D01*
X231944Y22744D02*
X235100D01*
X229400Y20200D02*
X231944Y22744D01*
X227512Y20200D02*
X229400D01*
X229663Y16263D02*
X231900Y18500D01*
X243056D02*
X247300Y22744D01*
X231900Y18500D02*
X243056D01*
X227512Y16263D02*
X229663D01*
X235100Y14156D02*
X247156D01*
X247200Y14200D01*
X234961Y14294D02*
X235100Y14156D01*
X227512Y14294D02*
X234961D01*
X133300Y22356D02*
Y25844D01*
Y22356D02*
X135000Y20656D01*
X137600D01*
X143600Y18900D02*
X145300Y17200D01*
X149800D01*
X179500Y12000D02*
X179697Y12197D01*
Y25680D01*
X182976Y28960D01*
X201600Y21200D02*
X204600D01*
X205600Y20200D01*
X201600Y17200D02*
X204600D01*
X205632Y18232D01*
X205600Y20200D02*
X208688D01*
X205632Y18232D02*
X208688D01*
X194286Y34514D02*
X206632Y22169D01*
X208688D01*
X179500Y6144D02*
X180184Y5460D01*
X206985Y14294D02*
X208688D01*
X198150Y5460D02*
X206985Y14294D01*
X188047Y26288D02*
X191403Y29644D01*
X191600D01*
X188047Y12940D02*
Y26288D01*
X192000Y9200D02*
X196000D01*
X183370Y36440D02*
X184654Y35156D01*
X182976Y36440D02*
X183370D01*
X191600Y35156D02*
X192242Y34514D01*
X194286D01*
X103300Y25200D02*
X108744D01*
X77300Y14300D02*
X96390Y33390D01*
X91445Y40055D02*
X91500Y40000D01*
X91445Y40055D02*
Y46095D01*
X91390Y46150D02*
X91445Y46095D01*
X163400Y119900D02*
Y126012D01*
X157612Y131603D02*
X158437Y130778D01*
X158633D01*
X163400Y126012D01*
X157612Y131603D02*
Y131800D01*
X156390Y115050D02*
Y116250D01*
X157612Y117472D02*
Y123800D01*
X156390Y116250D02*
X157612Y117472D01*
X151745Y123445D02*
X152100Y123800D01*
X151745Y115405D02*
Y123445D01*
X151390Y115050D02*
X151745Y115405D01*
X152100Y123800D02*
Y131800D01*
X145225Y122778D02*
X145422D01*
X146390Y121810D01*
X144400Y123603D02*
X145225Y122778D01*
X144400Y123603D02*
Y123800D01*
X146390Y115050D02*
Y121810D01*
X144450Y123850D02*
Y131750D01*
X144500Y131800D01*
X144400Y123800D02*
X144450Y123850D01*
X144500Y131800D02*
Y140360D01*
X142500Y142360D02*
Y143500D01*
Y142360D02*
X144500Y140360D01*
X115870Y124018D02*
X115988Y123900D01*
X115752Y131700D02*
X115870Y131582D01*
Y124018D02*
Y131582D01*
X121445Y115105D02*
Y123845D01*
X121390Y115050D02*
X121445Y115105D01*
Y123845D02*
X121500Y123900D01*
X106445Y143445D02*
X106500Y143500D01*
X106445Y115105D02*
Y143445D01*
X106390Y115050D02*
X106445Y115105D01*
X85579Y57214D02*
X86465Y58100D01*
X73250Y72773D02*
X82253Y63770D01*
X72900Y73300D02*
X73250Y72950D01*
Y72773D02*
Y72950D01*
X85795Y63770D02*
X86465Y63100D01*
X82253Y63770D02*
X85795D01*
X90390Y116050D02*
Y119110D01*
X73550Y135950D02*
X90390Y119110D01*
X71750Y135950D02*
X73550D01*
X90390Y116050D02*
X91390Y115050D01*
D63*
X258700Y80000D02*
D03*
Y76400D02*
D03*
X254600Y71000D02*
D03*
X265500Y77637D02*
D03*
X252500Y77500D02*
D03*
D64*
X49500Y124500D02*
D03*
Y114500D02*
D03*
Y104500D02*
D03*
Y94500D02*
D03*
Y84500D02*
D03*
Y74500D02*
D03*
Y64500D02*
D03*
Y54500D02*
D03*
Y44500D02*
D03*
D65*
Y34500D02*
D03*
D66*
X289300Y65292D02*
D03*
Y39308D02*
D03*
D67*
X106500Y15200D02*
D03*
X142500Y143500D02*
D03*
X106500D02*
D03*
D68*
X116500Y15200D02*
D03*
X132500Y143500D02*
D03*
X116500D02*
D03*
D69*
X270400Y100326D02*
D03*
D70*
Y108200D02*
D03*
D71*
X283000Y146000D02*
D03*
Y12000D02*
D03*
X12500D02*
D03*
Y146000D02*
D03*
D72*
X260700Y71500D02*
D03*
X223500Y103500D02*
D03*
X271000Y54237D02*
D03*
Y51678D02*
D03*
D73*
X190500Y85700D02*
D03*
X194500Y77000D02*
D03*
X211261Y5261D02*
D03*
X215000Y17000D02*
D03*
X222000D02*
D03*
Y24000D02*
D03*
X215000D02*
D03*
X289800Y82000D02*
D03*
X289700Y87900D02*
D03*
X247014Y55314D02*
D03*
X291000Y107500D02*
D03*
X268000Y134000D02*
D03*
X262000Y130000D02*
D03*
Y134000D02*
D03*
X150000Y142000D02*
D03*
X287500Y116000D02*
D03*
X291000Y120000D02*
D03*
Y116000D02*
D03*
X268000Y129638D02*
D03*
X247000Y41000D02*
D03*
X251812Y8688D02*
D03*
X150100Y147600D02*
D03*
X150500Y136500D02*
D03*
X138500D02*
D03*
X228500Y10500D02*
D03*
X247000Y34000D02*
D03*
X230500Y57000D02*
D03*
X207500D02*
D03*
X128000Y31500D02*
D03*
X78500Y21500D02*
D03*
Y49500D02*
D03*
Y80500D02*
D03*
Y112500D02*
D03*
Y144000D02*
D03*
X257500Y87000D02*
D03*
X252000D02*
D03*
X247000D02*
D03*
X241000D02*
D03*
Y82000D02*
D03*
X207500Y102500D02*
D03*
X203000Y99500D02*
D03*
X207500D02*
D03*
X203000Y102500D02*
D03*
X211000Y119000D02*
D03*
X216500D02*
D03*
X222000D02*
D03*
Y123000D02*
D03*
X216500D02*
D03*
X211000D02*
D03*
Y128000D02*
D03*
X216500D02*
D03*
X222000D02*
D03*
Y133000D02*
D03*
X216500D02*
D03*
X211000D02*
D03*
X190000D02*
D03*
X196000D02*
D03*
Y128000D02*
D03*
X190000D02*
D03*
Y123000D02*
D03*
X196000D02*
D03*
Y119000D02*
D03*
X190000D02*
D03*
Y114000D02*
D03*
X196000D02*
D03*
Y109000D02*
D03*
X190000D02*
D03*
X287500Y128000D02*
D03*
Y132500D02*
D03*
X291000D02*
D03*
Y128000D02*
D03*
Y124000D02*
D03*
X261500Y48000D02*
D03*
X257000D02*
D03*
X253000D02*
D03*
Y44500D02*
D03*
X257000D02*
D03*
Y41000D02*
D03*
X253000D02*
D03*
X230000Y134000D02*
D03*
X248000D02*
D03*
X256000D02*
D03*
X248000Y130000D02*
D03*
X256000D02*
D03*
Y124000D02*
D03*
X262000D02*
D03*
X268000D02*
D03*
X248000Y126000D02*
D03*
Y122000D02*
D03*
Y118000D02*
D03*
X230000Y130000D02*
D03*
Y126000D02*
D03*
Y122000D02*
D03*
Y118000D02*
D03*
X248000Y114000D02*
D03*
X242000D02*
D03*
X236000D02*
D03*
X230000D02*
D03*
Y110000D02*
D03*
X236000D02*
D03*
X242000D02*
D03*
X248000D02*
D03*
Y106000D02*
D03*
X242000D02*
D03*
X236000D02*
D03*
X230000D02*
D03*
Y102000D02*
D03*
X236000D02*
D03*
Y98000D02*
D03*
X230000D02*
D03*
X251200Y99500D02*
D03*
X147000Y103350D02*
D03*
Y36900D02*
D03*
X263400Y25500D02*
D03*
X265400Y8300D02*
D03*
X265358Y14042D02*
D03*
X270400Y25460D02*
D03*
X137600Y20656D02*
D03*
X149800Y17200D02*
D03*
X201600Y21200D02*
D03*
Y17200D02*
D03*
X192000Y9200D02*
D03*
X103300Y25200D02*
D03*
X91500Y40000D02*
D03*
X163400Y119900D02*
D03*
D74*
X234500Y87000D02*
D03*
X196000Y92000D02*
D03*
Y98500D02*
D03*
X190500D02*
D03*
Y92000D02*
D03*
M02*
