G04*
G04 #@! TF.GenerationSoftware,Altium Limited,Altium Designer,22.6.1 (34)*
G04*
G04 Layer_Color=16711935*
%FSLAX25Y25*%
%MOIN*%
G70*
G04*
G04 #@! TF.SameCoordinates,BE1EFFB1-D3A5-4C51-9803-2DA18C35BCD8*
G04*
G04*
G04 #@! TF.FilePolarity,Positive*
G04*
G01*
G75*
%ADD10C,0.00500*%
%ADD11C,0.00787*%
%ADD12C,0.00600*%
%ADD13C,0.00394*%
%ADD86C,0.00000*%
%ADD87C,0.00100*%
%ADD88C,0.00300*%
D10*
X253016Y81350D02*
G03*
X253016Y81350I-200J0D01*
G01*
X297953Y65688D02*
G03*
X300321Y67055I501J1868D01*
G01*
X297568Y67261D02*
G03*
X299143Y67772I532J1043D01*
G01*
X300124Y37551D02*
G03*
X297947Y38911I-1768J-408D01*
G01*
X299143Y36828D02*
G03*
X297568Y37339I-1043J-532D01*
G01*
X252407Y56251D02*
G03*
X252407Y56251I-200J0D01*
G01*
X208589Y81384D02*
G03*
X208589Y81384I-200J0D01*
G01*
X236901Y121974D02*
G03*
X236901Y121974I-200J0D01*
G01*
X199101D02*
G03*
X199101Y121974I-200J0D01*
G01*
X254763Y74263D02*
Y82137D01*
Y74263D02*
X262637D01*
Y82137D01*
X254763D02*
X262637D01*
X12Y24756D02*
Y134244D01*
Y24756D02*
Y134244D01*
Y24756D02*
X53516D01*
Y134244D01*
X12D02*
X53516D01*
X294800Y67261D02*
Y67300D01*
X299143Y67772D02*
X300324Y67064D01*
X297961Y64898D02*
X300127D01*
Y39702D02*
Y64898D01*
X297961Y39702D02*
X300127D01*
X299143Y36828D02*
X300127Y37536D01*
X277883Y37339D02*
X297568D01*
X297765D01*
Y67261D01*
X277883D02*
X294800D01*
X277883Y37339D02*
Y67261D01*
X295009D02*
X297765D01*
X295009Y37339D02*
Y67261D01*
X253123Y58350D02*
X255977D01*
X261686D02*
X264540D01*
X255977D02*
X261686D01*
X253123D02*
Y64650D01*
X264540D01*
Y58350D02*
Y64650D01*
X176441Y26991D02*
Y38409D01*
Y26991D02*
X181559D01*
Y38409D01*
X176441D02*
X181559D01*
X189465Y3491D02*
X194583D01*
X189465D02*
Y14909D01*
X194583D01*
Y3491D02*
Y14909D01*
X270346Y34641D02*
Y39759D01*
X263653D02*
X270346D01*
X263653Y34641D02*
Y39759D01*
Y34641D02*
X270346D01*
X263653Y46059D02*
X270346D01*
Y40941D02*
Y46059D01*
X263653Y40941D02*
X270346D01*
X263653D02*
Y46059D01*
X224654Y42028D02*
Y45572D01*
X231347D01*
Y42028D02*
Y45572D01*
X224654Y42028D02*
X231347D01*
X201509D02*
Y45572D01*
X208202D01*
Y42028D02*
Y45572D01*
X201509Y42028D02*
X208202D01*
X241354Y98028D02*
Y101572D01*
X248046D01*
Y98028D02*
Y101572D01*
X241354Y98028D02*
X248046D01*
X210488Y69051D02*
X216787D01*
Y80468D01*
X210488D02*
X216787D01*
X210488Y71905D02*
Y77614D01*
Y69051D02*
Y71905D01*
Y77614D02*
Y80468D01*
X276153Y120041D02*
Y125159D01*
Y120041D02*
X282846D01*
Y125159D01*
X276153D02*
X282846D01*
X295006Y92649D02*
Y115877D01*
X265085D02*
X295006D01*
X265085Y92649D02*
Y115877D01*
Y92649D02*
X295006D01*
X115654Y129928D02*
Y133472D01*
X122346D01*
Y129928D02*
Y133472D01*
X115654Y129928D02*
X122346D01*
X167053Y138128D02*
Y141672D01*
X173747D01*
Y138128D02*
Y141672D01*
X167053Y138128D02*
X173747D01*
X167009Y145928D02*
Y149472D01*
X173702D01*
Y145928D02*
Y149472D01*
X167009Y145928D02*
X173702D01*
X228808Y150992D02*
X254792D01*
X228808Y130323D02*
Y150992D01*
Y130323D02*
X234123Y125008D01*
X249477D01*
X254792Y130323D01*
Y150992D01*
X191008D02*
X216992D01*
X191008Y130323D02*
Y150992D01*
Y130323D02*
X196323Y125008D01*
X211677D01*
X216992Y130323D01*
Y150992D01*
X243164Y67200D02*
X247100D01*
X243164D02*
Y68887D01*
X243351Y69449D01*
X243539Y69637D01*
X243914Y69824D01*
X244288D01*
X244663Y69637D01*
X244851Y69449D01*
X245038Y68887D01*
Y67200D01*
Y68512D02*
X247100Y69824D01*
X243164Y71080D02*
Y73142D01*
X244663Y72017D01*
Y72579D01*
X244851Y72954D01*
X245038Y73142D01*
X245601Y73329D01*
X245975D01*
X246538Y73142D01*
X246913Y72767D01*
X247100Y72205D01*
Y71642D01*
X246913Y71080D01*
X246725Y70893D01*
X246350Y70705D01*
X244101Y74398D02*
X243914D01*
X243539Y74585D01*
X243351Y74772D01*
X243164Y75147D01*
Y75897D01*
X243351Y76272D01*
X243539Y76459D01*
X243914Y76647D01*
X244288D01*
X244663Y76459D01*
X245226Y76085D01*
X247100Y74210D01*
Y76834D01*
X237264Y67200D02*
X241200D01*
X237264D02*
Y68887D01*
X237451Y69449D01*
X237639Y69637D01*
X238014Y69824D01*
X238388D01*
X238763Y69637D01*
X238951Y69449D01*
X239138Y68887D01*
Y67200D01*
Y68512D02*
X241200Y69824D01*
X237264Y71080D02*
Y73142D01*
X238763Y72017D01*
Y72579D01*
X238951Y72954D01*
X239138Y73142D01*
X239701Y73329D01*
X240075D01*
X240638Y73142D01*
X241013Y72767D01*
X241200Y72205D01*
Y71642D01*
X241013Y71080D01*
X240825Y70893D01*
X240450Y70705D01*
X237264Y75335D02*
X237451Y74772D01*
X238014Y74398D01*
X238951Y74210D01*
X239513D01*
X240450Y74398D01*
X241013Y74772D01*
X241200Y75335D01*
Y75710D01*
X241013Y76272D01*
X240450Y76647D01*
X239513Y76834D01*
X238951D01*
X238014Y76647D01*
X237451Y76272D01*
X237264Y75710D01*
Y75335D01*
X244101Y81011D02*
X243726Y80824D01*
X243351Y80449D01*
X243164Y80074D01*
Y79325D01*
X243351Y78950D01*
X243726Y78575D01*
X244101Y78387D01*
X244663Y78200D01*
X245601D01*
X246163Y78387D01*
X246538Y78575D01*
X246913Y78950D01*
X247100Y79325D01*
Y80074D01*
X246913Y80449D01*
X246538Y80824D01*
X246163Y81011D01*
X243914Y82117D02*
X243726Y82492D01*
X243164Y83055D01*
X247100D01*
X243164Y85379D02*
Y87441D01*
X244663Y86316D01*
Y86878D01*
X244851Y87253D01*
X245038Y87441D01*
X245601Y87628D01*
X245975D01*
X246538Y87441D01*
X246913Y87066D01*
X247100Y86503D01*
Y85941D01*
X246913Y85379D01*
X246725Y85191D01*
X246350Y85004D01*
X272056Y72164D02*
Y76100D01*
Y72164D02*
X270369D01*
X269807Y72351D01*
X269619Y72539D01*
X269432Y72914D01*
Y73289D01*
X269619Y73663D01*
X269807Y73851D01*
X270369Y74038D01*
X272056D01*
X270744D02*
X269432Y76100D01*
X268176Y72164D02*
X266114D01*
X267239Y73663D01*
X266676D01*
X266302Y73851D01*
X266114Y74038D01*
X265927Y74600D01*
Y74975D01*
X266114Y75538D01*
X266489Y75913D01*
X267051Y76100D01*
X267614D01*
X268176Y75913D01*
X268363Y75725D01*
X268551Y75350D01*
X264671Y72164D02*
X262609D01*
X263734Y73663D01*
X263171D01*
X262796Y73851D01*
X262609Y74038D01*
X262422Y74600D01*
Y74975D01*
X262609Y75538D01*
X262984Y75913D01*
X263546Y76100D01*
X264109D01*
X264671Y75913D01*
X264858Y75725D01*
X265046Y75350D01*
X272000Y85936D02*
Y82000D01*
Y85936D02*
X273687D01*
X274249Y85749D01*
X274437Y85561D01*
X274624Y85186D01*
Y84812D01*
X274437Y84437D01*
X274249Y84249D01*
X273687Y84062D01*
X272000D01*
X273312D02*
X274624Y82000D01*
X275880Y85936D02*
X277942D01*
X276817Y84437D01*
X277379D01*
X277754Y84249D01*
X277942Y84062D01*
X278129Y83499D01*
Y83125D01*
X277942Y82562D01*
X277567Y82187D01*
X277005Y82000D01*
X276442D01*
X275880Y82187D01*
X275693Y82375D01*
X275505Y82750D01*
X279010Y85186D02*
X279385Y85374D01*
X279947Y85936D01*
Y82000D01*
X272000Y91836D02*
Y87900D01*
Y91836D02*
X273687D01*
X274249Y91649D01*
X274437Y91461D01*
X274624Y91086D01*
Y90711D01*
X274437Y90337D01*
X274249Y90149D01*
X273687Y89962D01*
X272000D01*
X273312D02*
X274624Y87900D01*
X275693Y90899D02*
Y91086D01*
X275880Y91461D01*
X276067Y91649D01*
X276442Y91836D01*
X277192D01*
X277567Y91649D01*
X277754Y91461D01*
X277942Y91086D01*
Y90711D01*
X277754Y90337D01*
X277379Y89774D01*
X275505Y87900D01*
X278129D01*
X281447Y90524D02*
X281259Y89962D01*
X280885Y89587D01*
X280322Y89399D01*
X280135D01*
X279572Y89587D01*
X279198Y89962D01*
X279010Y90524D01*
Y90711D01*
X279198Y91274D01*
X279572Y91649D01*
X280135Y91836D01*
X280322D01*
X280885Y91649D01*
X281259Y91274D01*
X281447Y90524D01*
Y89587D01*
X281259Y88650D01*
X280885Y88087D01*
X280322Y87900D01*
X279947D01*
X279385Y88087D01*
X279198Y88462D01*
X228100Y46864D02*
Y50800D01*
Y46864D02*
X226413D01*
X225851Y47051D01*
X225663Y47239D01*
X225476Y47614D01*
Y47989D01*
X225663Y48363D01*
X225851Y48551D01*
X226413Y48738D01*
X228100D01*
X226788D02*
X225476Y50800D01*
X224595Y47614D02*
X224220Y47426D01*
X223658Y46864D01*
Y50800D01*
X221334Y46864D02*
X219272D01*
X220396Y48363D01*
X219834D01*
X219459Y48551D01*
X219272Y48738D01*
X219084Y49301D01*
Y49675D01*
X219272Y50238D01*
X219647Y50613D01*
X220209Y50800D01*
X220771D01*
X221334Y50613D01*
X221521Y50425D01*
X221708Y50050D01*
X204900Y46864D02*
Y50800D01*
Y46864D02*
X203213D01*
X202651Y47051D01*
X202463Y47239D01*
X202276Y47614D01*
Y47989D01*
X202463Y48363D01*
X202651Y48551D01*
X203213Y48738D01*
X204900D01*
X203588D02*
X202276Y50800D01*
X201395Y47614D02*
X201020Y47426D01*
X200458Y46864D01*
Y50800D01*
X198321Y47801D02*
Y47614D01*
X198134Y47239D01*
X197946Y47051D01*
X197571Y46864D01*
X196821D01*
X196447Y47051D01*
X196259Y47239D01*
X196072Y47614D01*
Y47989D01*
X196259Y48363D01*
X196634Y48926D01*
X198508Y50800D01*
X195884D01*
X195502Y74360D02*
X199438D01*
X195502D02*
Y76047D01*
X195689Y76609D01*
X195877Y76797D01*
X196251Y76984D01*
X196626D01*
X197001Y76797D01*
X197188Y76609D01*
X197376Y76047D01*
Y74360D01*
Y75672D02*
X199438Y76984D01*
X196439Y78052D02*
X196251D01*
X195877Y78240D01*
X195689Y78427D01*
X195502Y78802D01*
Y79552D01*
X195689Y79927D01*
X195877Y80114D01*
X196251Y80302D01*
X196626D01*
X197001Y80114D01*
X197563Y79739D01*
X199438Y77865D01*
Y80489D01*
X196251Y81370D02*
X196064Y81745D01*
X195502Y82307D01*
X199438D01*
X208426Y82561D02*
X208614Y82186D01*
X208988Y81811D01*
X209363Y81624D01*
X210113D01*
X210488Y81811D01*
X210863Y82186D01*
X211050Y82561D01*
X211238Y83123D01*
Y84060D01*
X211050Y84623D01*
X210863Y84997D01*
X210488Y85372D01*
X210113Y85560D01*
X209363D01*
X208988Y85372D01*
X208614Y84997D01*
X208426Y84623D01*
X207320Y82373D02*
X206945Y82186D01*
X206383Y81624D01*
Y85560D01*
X204246Y82561D02*
Y82373D01*
X204059Y81999D01*
X203871Y81811D01*
X203497Y81624D01*
X202747D01*
X202372Y81811D01*
X202185Y81999D01*
X201997Y82373D01*
Y82748D01*
X202185Y83123D01*
X202559Y83685D01*
X204434Y85560D01*
X201810D01*
X229539Y77671D02*
X229164Y77484D01*
X228789Y77109D01*
X228602Y76734D01*
Y75985D01*
X228789Y75610D01*
X229164Y75235D01*
X229539Y75047D01*
X230101Y74860D01*
X231038D01*
X231601Y75047D01*
X231975Y75235D01*
X232350Y75610D01*
X232538Y75985D01*
Y76734D01*
X232350Y77109D01*
X231975Y77484D01*
X231601Y77671D01*
X228602Y81401D02*
X232538Y79527D01*
X228602Y78777D02*
Y81401D01*
X223639Y74827D02*
X223264Y74640D01*
X222889Y74265D01*
X222702Y73890D01*
Y73140D01*
X222889Y72765D01*
X223264Y72391D01*
X223639Y72203D01*
X224201Y72016D01*
X225138D01*
X225701Y72203D01*
X226075Y72391D01*
X226450Y72765D01*
X226638Y73140D01*
Y73890D01*
X226450Y74265D01*
X226075Y74640D01*
X225701Y74827D01*
X223264Y78182D02*
X222889Y77995D01*
X222702Y77433D01*
Y77058D01*
X222889Y76495D01*
X223451Y76121D01*
X224389Y75933D01*
X225326D01*
X226075Y76121D01*
X226450Y76495D01*
X226638Y77058D01*
Y77245D01*
X226450Y77807D01*
X226075Y78182D01*
X225513Y78370D01*
X225326D01*
X224763Y78182D01*
X224389Y77807D01*
X224201Y77245D01*
Y77058D01*
X224389Y76495D01*
X224763Y76121D01*
X225326Y75933D01*
X64000Y63064D02*
Y67000D01*
Y63064D02*
X62313D01*
X61751Y63251D01*
X61563Y63439D01*
X61376Y63814D01*
Y64188D01*
X61563Y64563D01*
X61751Y64751D01*
X62313Y64938D01*
X64000D01*
X62688D02*
X61376Y67000D01*
X60308Y64001D02*
Y63814D01*
X60120Y63439D01*
X59933Y63251D01*
X59558Y63064D01*
X58808D01*
X58433Y63251D01*
X58246Y63439D01*
X58058Y63814D01*
Y64188D01*
X58246Y64563D01*
X58621Y65126D01*
X60495Y67000D01*
X57871D01*
X56615Y63064D02*
X54553D01*
X55678Y64563D01*
X55115D01*
X54741Y64751D01*
X54553Y64938D01*
X54366Y65500D01*
Y65875D01*
X54553Y66438D01*
X54928Y66813D01*
X55490Y67000D01*
X56053D01*
X56615Y66813D01*
X56802Y66625D01*
X56990Y66250D01*
X64000Y95064D02*
Y99000D01*
Y95064D02*
X62313D01*
X61751Y95251D01*
X61563Y95439D01*
X61376Y95814D01*
Y96188D01*
X61563Y96563D01*
X61751Y96751D01*
X62313Y96938D01*
X64000D01*
X62688D02*
X61376Y99000D01*
X60495Y95814D02*
X60120Y95626D01*
X59558Y95064D01*
Y99000D01*
X55172Y96376D02*
X55359Y96938D01*
X55734Y97313D01*
X56296Y97500D01*
X56484D01*
X57046Y97313D01*
X57421Y96938D01*
X57608Y96376D01*
Y96188D01*
X57421Y95626D01*
X57046Y95251D01*
X56484Y95064D01*
X56296D01*
X55734Y95251D01*
X55359Y95626D01*
X55172Y96376D01*
Y97313D01*
X55359Y98250D01*
X55734Y98813D01*
X56296Y99000D01*
X56671D01*
X57234Y98813D01*
X57421Y98438D01*
X64000Y126064D02*
Y130000D01*
Y126064D02*
X62313D01*
X61751Y126251D01*
X61563Y126439D01*
X61376Y126814D01*
Y127188D01*
X61563Y127563D01*
X61751Y127751D01*
X62313Y127938D01*
X64000D01*
X62688D02*
X61376Y130000D01*
X60308Y127001D02*
Y126814D01*
X60120Y126439D01*
X59933Y126251D01*
X59558Y126064D01*
X58808D01*
X58433Y126251D01*
X58246Y126439D01*
X58058Y126814D01*
Y127188D01*
X58246Y127563D01*
X58621Y128126D01*
X60495Y130000D01*
X57871D01*
X55865Y126064D02*
X56428Y126251D01*
X56802Y126814D01*
X56990Y127751D01*
Y128313D01*
X56802Y129250D01*
X56428Y129813D01*
X55865Y130000D01*
X55490D01*
X54928Y129813D01*
X54553Y129250D01*
X54366Y128313D01*
Y127751D01*
X54553Y126814D01*
X54928Y126251D01*
X55490Y126064D01*
X55865D01*
X64000Y32064D02*
Y36000D01*
Y32064D02*
X62313D01*
X61751Y32251D01*
X61563Y32439D01*
X61376Y32814D01*
Y33189D01*
X61563Y33563D01*
X61751Y33751D01*
X62313Y33938D01*
X64000D01*
X62688D02*
X61376Y36000D01*
X60308Y33001D02*
Y32814D01*
X60120Y32439D01*
X59933Y32251D01*
X59558Y32064D01*
X58808D01*
X58433Y32251D01*
X58246Y32439D01*
X58058Y32814D01*
Y33189D01*
X58246Y33563D01*
X58621Y34126D01*
X60495Y36000D01*
X57871D01*
X56802Y33001D02*
Y32814D01*
X56615Y32439D01*
X56428Y32251D01*
X56053Y32064D01*
X55303D01*
X54928Y32251D01*
X54741Y32439D01*
X54553Y32814D01*
Y33189D01*
X54741Y33563D01*
X55115Y34126D01*
X56990Y36000D01*
X54366D01*
X64000Y4064D02*
Y8000D01*
Y4064D02*
X62313D01*
X61751Y4251D01*
X61563Y4439D01*
X61376Y4814D01*
Y5189D01*
X61563Y5563D01*
X61751Y5751D01*
X62313Y5938D01*
X64000D01*
X62688D02*
X61376Y8000D01*
X60308Y5001D02*
Y4814D01*
X60120Y4439D01*
X59933Y4251D01*
X59558Y4064D01*
X58808D01*
X58433Y4251D01*
X58246Y4439D01*
X58058Y4814D01*
Y5189D01*
X58246Y5563D01*
X58621Y6126D01*
X60495Y8000D01*
X57871D01*
X56053Y4064D02*
X56615Y4251D01*
X56802Y4626D01*
Y5001D01*
X56615Y5376D01*
X56240Y5563D01*
X55490Y5751D01*
X54928Y5938D01*
X54553Y6313D01*
X54366Y6688D01*
Y7250D01*
X54553Y7625D01*
X54741Y7813D01*
X55303Y8000D01*
X56053D01*
X56615Y7813D01*
X56802Y7625D01*
X56990Y7250D01*
Y6688D01*
X56802Y6313D01*
X56428Y5938D01*
X55865Y5751D01*
X55115Y5563D01*
X54741Y5376D01*
X54553Y5001D01*
Y4626D01*
X54741Y4251D01*
X55303Y4064D01*
X56053D01*
X244800Y88764D02*
Y92700D01*
Y88764D02*
X243113D01*
X242551Y88951D01*
X242363Y89139D01*
X242176Y89514D01*
Y89889D01*
X242363Y90263D01*
X242551Y90451D01*
X243113Y90638D01*
X244800D01*
X243488D02*
X242176Y92700D01*
X241295Y89514D02*
X240920Y89326D01*
X240358Y88764D01*
Y92700D01*
X236159Y88764D02*
X238034D01*
X238221Y90451D01*
X238034Y90263D01*
X237471Y90076D01*
X236909D01*
X236347Y90263D01*
X235972Y90638D01*
X235784Y91201D01*
Y91575D01*
X235972Y92138D01*
X236347Y92513D01*
X236909Y92700D01*
X237471D01*
X238034Y92513D01*
X238221Y92325D01*
X238408Y91950D01*
X279400Y133736D02*
Y129800D01*
Y133736D02*
X281087D01*
X281649Y133549D01*
X281837Y133361D01*
X282024Y132986D01*
Y132612D01*
X281837Y132237D01*
X281649Y132049D01*
X281087Y131862D01*
X279400D01*
X280712D02*
X282024Y129800D01*
X283092Y132799D02*
Y132986D01*
X283280Y133361D01*
X283467Y133549D01*
X283842Y133736D01*
X284592D01*
X284967Y133549D01*
X285154Y133361D01*
X285342Y132986D01*
Y132612D01*
X285154Y132237D01*
X284779Y131674D01*
X282905Y129800D01*
X285529D01*
X288659Y133174D02*
X288472Y133549D01*
X287910Y133736D01*
X287535D01*
X286972Y133549D01*
X286598Y132986D01*
X286410Y132049D01*
Y131112D01*
X286598Y130362D01*
X286972Y129987D01*
X287535Y129800D01*
X287722D01*
X288284Y129987D01*
X288659Y130362D01*
X288847Y130925D01*
Y131112D01*
X288659Y131674D01*
X288284Y132049D01*
X287722Y132237D01*
X287535D01*
X286972Y132049D01*
X286598Y131674D01*
X286410Y131112D01*
X141744Y135736D02*
Y131800D01*
Y135736D02*
X143431D01*
X143993Y135549D01*
X144181Y135361D01*
X144368Y134986D01*
Y134612D01*
X144181Y134237D01*
X143993Y134049D01*
X143431Y133862D01*
X141744D01*
X143056D02*
X144368Y131800D01*
X145249Y134986D02*
X145624Y135174D01*
X146186Y135736D01*
Y131800D01*
X118744Y119964D02*
Y123900D01*
Y119964D02*
X117057D01*
X116495Y120151D01*
X116307Y120339D01*
X116120Y120714D01*
Y121088D01*
X116307Y121463D01*
X116495Y121651D01*
X117057Y121838D01*
X118744D01*
X117432D02*
X116120Y123900D01*
X115052Y120901D02*
Y120714D01*
X114864Y120339D01*
X114677Y120151D01*
X114302Y119964D01*
X113552D01*
X113177Y120151D01*
X112990Y120339D01*
X112802Y120714D01*
Y121088D01*
X112990Y121463D01*
X113365Y122026D01*
X115239Y123900D01*
X112615D01*
X243264Y11444D02*
X247200D01*
X243264D02*
Y13131D01*
X243451Y13693D01*
X243639Y13881D01*
X244014Y14068D01*
X244389D01*
X244763Y13881D01*
X244951Y13693D01*
X245138Y13131D01*
Y11444D01*
Y12756D02*
X247200Y14068D01*
X243264Y15324D02*
Y17386D01*
X244763Y16261D01*
Y16824D01*
X244951Y17198D01*
X245138Y17386D01*
X245701Y17573D01*
X246075D01*
X246638Y17386D01*
X247013Y17011D01*
X247200Y16449D01*
Y15886D01*
X247013Y15324D01*
X246825Y15137D01*
X246450Y14949D01*
X158056Y143836D02*
Y139900D01*
Y143836D02*
X159743D01*
X160305Y143649D01*
X160493Y143461D01*
X160680Y143086D01*
Y142712D01*
X160493Y142337D01*
X160305Y142149D01*
X159743Y141962D01*
X158056D01*
X159368D02*
X160680Y139900D01*
X163810Y143836D02*
X161936D01*
X161748Y142149D01*
X161936Y142337D01*
X162498Y142524D01*
X163060D01*
X163623Y142337D01*
X163998Y141962D01*
X164185Y141400D01*
Y141025D01*
X163998Y140462D01*
X163623Y140087D01*
X163060Y139900D01*
X162498D01*
X161936Y140087D01*
X161748Y140275D01*
X161561Y140650D01*
X158056Y151536D02*
Y147600D01*
Y151536D02*
X159743D01*
X160305Y151349D01*
X160493Y151161D01*
X160680Y150786D01*
Y150412D01*
X160493Y150037D01*
X160305Y149849D01*
X159743Y149662D01*
X158056D01*
X159368D02*
X160680Y147600D01*
X163810Y150974D02*
X163623Y151349D01*
X163060Y151536D01*
X162686D01*
X162123Y151349D01*
X161748Y150786D01*
X161561Y149849D01*
Y148912D01*
X161748Y148162D01*
X162123Y147787D01*
X162686Y147600D01*
X162873D01*
X163435Y147787D01*
X163810Y148162D01*
X163998Y148725D01*
Y148912D01*
X163810Y149474D01*
X163435Y149849D01*
X162873Y150037D01*
X162686D01*
X162123Y149849D01*
X161748Y149474D01*
X161561Y148912D01*
X231164Y11400D02*
X235100D01*
X231164D02*
Y13087D01*
X231351Y13649D01*
X231539Y13837D01*
X231914Y14024D01*
X232289D01*
X232663Y13837D01*
X232851Y13649D01*
X233038Y13087D01*
Y11400D01*
Y12712D02*
X235100Y14024D01*
X231164Y17529D02*
X235100Y15655D01*
X231164Y14905D02*
Y17529D01*
X129364Y28600D02*
X133300D01*
X129364D02*
Y30287D01*
X129551Y30849D01*
X129739Y31037D01*
X130114Y31224D01*
X130488D01*
X130863Y31037D01*
X131051Y30849D01*
X131238Y30287D01*
Y28600D01*
Y29912D02*
X133300Y31224D01*
X129364Y33042D02*
X129551Y32480D01*
X129926Y32293D01*
X130301D01*
X130676Y32480D01*
X130863Y32855D01*
X131051Y33604D01*
X131238Y34167D01*
X131613Y34542D01*
X131988Y34729D01*
X132550D01*
X132925Y34542D01*
X133113Y34354D01*
X133300Y33792D01*
Y33042D01*
X133113Y32480D01*
X132925Y32293D01*
X132550Y32105D01*
X131988D01*
X131613Y32293D01*
X131238Y32667D01*
X131051Y33230D01*
X130863Y33979D01*
X130676Y34354D01*
X130301Y34542D01*
X129926D01*
X129551Y34354D01*
X129364Y33792D01*
Y33042D01*
X130800Y33164D02*
Y37100D01*
Y33164D02*
X129113D01*
X128551Y33351D01*
X128363Y33539D01*
X128176Y33914D01*
Y34288D01*
X128363Y34663D01*
X128551Y34851D01*
X129113Y35038D01*
X130800D01*
X129488D02*
X128176Y37100D01*
X124858Y34476D02*
X125046Y35038D01*
X125421Y35413D01*
X125983Y35601D01*
X126170D01*
X126733Y35413D01*
X127108Y35038D01*
X127295Y34476D01*
Y34288D01*
X127108Y33726D01*
X126733Y33351D01*
X126170Y33164D01*
X125983D01*
X125421Y33351D01*
X125046Y33726D01*
X124858Y34476D01*
Y35413D01*
X125046Y36350D01*
X125421Y36913D01*
X125983Y37100D01*
X126358D01*
X126920Y36913D01*
X127108Y36538D01*
X251236Y25500D02*
X247300D01*
X251236D02*
Y23813D01*
X251049Y23251D01*
X250861Y23063D01*
X250486Y22876D01*
X250112D01*
X249737Y23063D01*
X249549Y23251D01*
X249362Y23813D01*
Y25500D01*
Y24188D02*
X247300Y22876D01*
X250486Y21995D02*
X250674Y21620D01*
X251236Y21058D01*
X247300D01*
X251236Y17984D02*
X251049Y18546D01*
X250486Y18921D01*
X249549Y19108D01*
X248987D01*
X248050Y18921D01*
X247487Y18546D01*
X247300Y17984D01*
Y17609D01*
X247487Y17047D01*
X248050Y16672D01*
X248987Y16484D01*
X249549D01*
X250486Y16672D01*
X251049Y17047D01*
X251236Y17609D01*
Y17984D01*
X139764Y28400D02*
X143700D01*
X139764D02*
Y30087D01*
X139951Y30649D01*
X140139Y30837D01*
X140514Y31024D01*
X140888D01*
X141263Y30837D01*
X141451Y30649D01*
X141638Y30087D01*
Y28400D01*
Y29712D02*
X143700Y31024D01*
X140514Y31905D02*
X140326Y32280D01*
X139764Y32842D01*
X143700D01*
X140514Y34792D02*
X140326Y35166D01*
X139764Y35729D01*
X143700D01*
X175564Y8900D02*
X179500D01*
X175564D02*
Y10587D01*
X175751Y11149D01*
X175939Y11337D01*
X176314Y11524D01*
X176688D01*
X177063Y11337D01*
X177251Y11149D01*
X177438Y10587D01*
Y8900D01*
Y10212D02*
X179500Y11524D01*
X176314Y12405D02*
X176126Y12780D01*
X175564Y13342D01*
X179500D01*
X175564Y17166D02*
X178188Y15292D01*
Y18103D01*
X175564Y17166D02*
X179500D01*
X239036Y25500D02*
X235100D01*
X239036D02*
Y23813D01*
X238849Y23251D01*
X238661Y23063D01*
X238286Y22876D01*
X237912D01*
X237537Y23063D01*
X237349Y23251D01*
X237162Y23813D01*
Y25500D01*
Y24188D02*
X235100Y22876D01*
X238286Y21995D02*
X238474Y21620D01*
X239036Y21058D01*
X235100D01*
X239036Y16484D02*
X235100Y18359D01*
X239036Y19108D02*
Y16484D01*
X195536Y32400D02*
X191600D01*
X195536D02*
Y30713D01*
X195349Y30151D01*
X195161Y29963D01*
X194786Y29776D01*
X194412D01*
X194037Y29963D01*
X193849Y30151D01*
X193662Y30713D01*
Y32400D01*
Y31088D02*
X191600Y29776D01*
X194786Y28895D02*
X194974Y28520D01*
X195536Y27958D01*
X191600D01*
X195536Y25071D02*
X195349Y25634D01*
X194974Y25821D01*
X194599D01*
X194224Y25634D01*
X194037Y25259D01*
X193849Y24509D01*
X193662Y23947D01*
X193287Y23572D01*
X192912Y23384D01*
X192350D01*
X191975Y23572D01*
X191787Y23759D01*
X191600Y24321D01*
Y25071D01*
X191787Y25634D01*
X191975Y25821D01*
X192350Y26008D01*
X192912D01*
X193287Y25821D01*
X193662Y25446D01*
X193849Y24884D01*
X194037Y24134D01*
X194224Y23759D01*
X194599Y23572D01*
X194974D01*
X195349Y23759D01*
X195536Y24321D01*
Y25071D01*
X219400Y101536D02*
Y97600D01*
Y101536D02*
X221087D01*
X221649Y101349D01*
X221837Y101161D01*
X222024Y100786D01*
Y100411D01*
X221837Y100037D01*
X221649Y99849D01*
X221087Y99662D01*
X219400D01*
X220712D02*
X222024Y97600D01*
X223093Y100599D02*
Y100786D01*
X223280Y101161D01*
X223467Y101349D01*
X223842Y101536D01*
X224592D01*
X224967Y101349D01*
X225154Y101161D01*
X225342Y100786D01*
Y100411D01*
X225154Y100037D01*
X224779Y99474D01*
X222905Y97600D01*
X225529D01*
X228285Y101536D02*
X226410Y98912D01*
X229222D01*
X228285Y101536D02*
Y97600D01*
X219400Y111136D02*
Y107200D01*
Y111136D02*
X221087D01*
X221649Y110949D01*
X221837Y110761D01*
X222024Y110386D01*
Y110012D01*
X221837Y109637D01*
X221649Y109449D01*
X221087Y109262D01*
X219400D01*
X220712D02*
X222024Y107200D01*
X223093Y110199D02*
Y110386D01*
X223280Y110761D01*
X223467Y110949D01*
X223842Y111136D01*
X224592D01*
X224967Y110949D01*
X225154Y110761D01*
X225342Y110386D01*
Y110012D01*
X225154Y109637D01*
X224779Y109074D01*
X222905Y107200D01*
X225529D01*
X228659Y111136D02*
X226785D01*
X226598Y109449D01*
X226785Y109637D01*
X227347Y109824D01*
X227910D01*
X228472Y109637D01*
X228847Y109262D01*
X229034Y108700D01*
Y108325D01*
X228847Y107762D01*
X228472Y107387D01*
X227910Y107200D01*
X227347D01*
X226785Y107387D01*
X226598Y107575D01*
X226410Y107950D01*
X219400Y109164D02*
Y113100D01*
Y109164D02*
X217713D01*
X217151Y109351D01*
X216963Y109539D01*
X216776Y109914D01*
Y110288D01*
X216963Y110663D01*
X217151Y110851D01*
X217713Y111038D01*
X219400D01*
X218088D02*
X216776Y113100D01*
X215707Y110101D02*
Y109914D01*
X215520Y109539D01*
X215333Y109351D01*
X214958Y109164D01*
X214208D01*
X213833Y109351D01*
X213646Y109539D01*
X213458Y109914D01*
Y110288D01*
X213646Y110663D01*
X214021Y111226D01*
X215895Y113100D01*
X213271D01*
X209766Y109164D02*
X211640Y113100D01*
X212390Y109164D02*
X209766D01*
X263164Y143400D02*
X267100D01*
X263164D02*
Y145087D01*
X263351Y145649D01*
X263539Y145837D01*
X263914Y146024D01*
X264288D01*
X264663Y145837D01*
X264851Y145649D01*
X265038Y145087D01*
Y143400D01*
Y144712D02*
X267100Y146024D01*
X263164Y147280D02*
Y149342D01*
X264663Y148217D01*
Y148779D01*
X264851Y149154D01*
X265038Y149342D01*
X265600Y149529D01*
X265975D01*
X266538Y149342D01*
X266913Y148967D01*
X267100Y148405D01*
Y147842D01*
X266913Y147280D01*
X266725Y147092D01*
X266350Y146905D01*
X263164Y152285D02*
X265788Y150410D01*
Y153222D01*
X263164Y152285D02*
X267100D01*
X285400Y22764D02*
Y26700D01*
Y22764D02*
X283713D01*
X283151Y22951D01*
X282963Y23139D01*
X282776Y23514D01*
Y23889D01*
X282963Y24263D01*
X283151Y24451D01*
X283713Y24638D01*
X285400D01*
X284088D02*
X282776Y26700D01*
X281520Y22764D02*
X279458D01*
X280583Y24263D01*
X280021D01*
X279646Y24451D01*
X279458Y24638D01*
X279271Y25201D01*
Y25575D01*
X279458Y26138D01*
X279833Y26513D01*
X280396Y26700D01*
X280958D01*
X281520Y26513D01*
X281708Y26325D01*
X281895Y25950D01*
X276141Y22764D02*
X278015D01*
X278202Y24451D01*
X278015Y24263D01*
X277453Y24076D01*
X276890D01*
X276328Y24263D01*
X275953Y24638D01*
X275766Y25201D01*
Y25575D01*
X275953Y26138D01*
X276328Y26513D01*
X276890Y26700D01*
X277453D01*
X278015Y26513D01*
X278202Y26325D01*
X278390Y25950D01*
X31736Y14200D02*
X27800D01*
X31736D02*
Y12513D01*
X31549Y11951D01*
X31361Y11763D01*
X30986Y11576D01*
X30612D01*
X30237Y11763D01*
X30049Y11951D01*
X29862Y12513D01*
Y14200D01*
Y12888D02*
X27800Y11576D01*
X31736Y10320D02*
Y8258D01*
X30237Y9383D01*
Y8821D01*
X30049Y8446D01*
X29862Y8258D01*
X29300Y8071D01*
X28925D01*
X28362Y8258D01*
X27987Y8633D01*
X27800Y9195D01*
Y9758D01*
X27987Y10320D01*
X28175Y10508D01*
X28550Y10695D01*
X31174Y4941D02*
X31549Y5128D01*
X31736Y5690D01*
Y6065D01*
X31549Y6628D01*
X30986Y7002D01*
X30049Y7190D01*
X29112D01*
X28362Y7002D01*
X27987Y6628D01*
X27800Y6065D01*
Y5878D01*
X27987Y5316D01*
X28362Y4941D01*
X28925Y4753D01*
X29112D01*
X29674Y4941D01*
X30049Y5316D01*
X30237Y5878D01*
Y6065D01*
X30049Y6628D01*
X29674Y7002D01*
X29112Y7190D01*
X23964Y143500D02*
X27900D01*
X23964D02*
Y145187D01*
X24151Y145749D01*
X24339Y145937D01*
X24714Y146124D01*
X25089D01*
X25463Y145937D01*
X25651Y145749D01*
X25838Y145187D01*
Y143500D01*
Y144812D02*
X27900Y146124D01*
X23964Y147380D02*
Y149442D01*
X25463Y148317D01*
Y148879D01*
X25651Y149254D01*
X25838Y149442D01*
X26401Y149629D01*
X26775D01*
X27338Y149442D01*
X27713Y149067D01*
X27900Y148504D01*
Y147942D01*
X27713Y147380D01*
X27525Y147193D01*
X27150Y147005D01*
X23964Y153134D02*
X27900Y151260D01*
X23964Y150510D02*
Y153134D01*
X201488Y110101D02*
X201676Y109726D01*
X202051Y109351D01*
X202426Y109164D01*
X203175D01*
X203550Y109351D01*
X203925Y109726D01*
X204113Y110101D01*
X204300Y110663D01*
Y111600D01*
X204113Y112163D01*
X203925Y112538D01*
X203550Y112913D01*
X203175Y113100D01*
X202426D01*
X202051Y112913D01*
X201676Y112538D01*
X201488Y112163D01*
X197946Y110476D02*
X198133Y111038D01*
X198508Y111413D01*
X199071Y111600D01*
X199258D01*
X199820Y111413D01*
X200195Y111038D01*
X200383Y110476D01*
Y110288D01*
X200195Y109726D01*
X199820Y109351D01*
X199258Y109164D01*
X199071D01*
X198508Y109351D01*
X198133Y109726D01*
X197946Y110476D01*
Y111413D01*
X198133Y112350D01*
X198508Y112913D01*
X199071Y113100D01*
X199445D01*
X200008Y112913D01*
X200195Y112538D01*
X114312Y28199D02*
X114124Y28574D01*
X113749Y28949D01*
X113374Y29136D01*
X112625D01*
X112250Y28949D01*
X111875Y28574D01*
X111687Y28199D01*
X111500Y27637D01*
Y26700D01*
X111687Y26137D01*
X111875Y25762D01*
X112250Y25387D01*
X112625Y25200D01*
X113374D01*
X113749Y25387D01*
X114124Y25762D01*
X114312Y26137D01*
X115792Y29136D02*
X117854D01*
X116729Y27637D01*
X117292D01*
X117667Y27449D01*
X117854Y27262D01*
X118042Y26700D01*
Y26325D01*
X117854Y25762D01*
X117479Y25387D01*
X116917Y25200D01*
X116355D01*
X115792Y25387D01*
X115605Y25575D01*
X115417Y25950D01*
X152044Y120801D02*
X152232Y120426D01*
X152607Y120051D01*
X152981Y119864D01*
X153731D01*
X154106Y120051D01*
X154481Y120426D01*
X154668Y120801D01*
X154856Y121363D01*
Y122301D01*
X154668Y122863D01*
X154481Y123238D01*
X154106Y123613D01*
X153731Y123800D01*
X152981D01*
X152607Y123613D01*
X152232Y123238D01*
X152044Y122863D01*
X150938Y120614D02*
X150564Y120426D01*
X150001Y119864D01*
Y123800D01*
X157668Y134799D02*
X157480Y135174D01*
X157105Y135549D01*
X156730Y135736D01*
X155981D01*
X155606Y135549D01*
X155231Y135174D01*
X155043Y134799D01*
X154856Y134237D01*
Y133300D01*
X155043Y132737D01*
X155231Y132362D01*
X155606Y131987D01*
X155981Y131800D01*
X156730D01*
X157105Y131987D01*
X157480Y132362D01*
X157668Y132737D01*
X158961Y134799D02*
Y134986D01*
X159148Y135361D01*
X159336Y135549D01*
X159711Y135736D01*
X160460D01*
X160835Y135549D01*
X161023Y135361D01*
X161210Y134986D01*
Y134612D01*
X161023Y134237D01*
X160648Y133674D01*
X158773Y131800D01*
X161397D01*
X144456Y126799D02*
X144268Y127174D01*
X143893Y127549D01*
X143518Y127736D01*
X142769D01*
X142394Y127549D01*
X142019Y127174D01*
X141832Y126799D01*
X141644Y126237D01*
Y125300D01*
X141832Y124737D01*
X142019Y124362D01*
X142394Y123987D01*
X142769Y123800D01*
X143518D01*
X143893Y123987D01*
X144268Y124362D01*
X144456Y124737D01*
X147811Y127736D02*
X145936D01*
X145749Y126049D01*
X145936Y126237D01*
X146499Y126424D01*
X147061D01*
X147623Y126237D01*
X147998Y125862D01*
X148186Y125300D01*
Y124925D01*
X147998Y124362D01*
X147623Y123987D01*
X147061Y123800D01*
X146499D01*
X145936Y123987D01*
X145749Y124175D01*
X145562Y124550D01*
X203011Y88599D02*
X202824Y88974D01*
X202449Y89349D01*
X202074Y89536D01*
X201325D01*
X200950Y89349D01*
X200575Y88974D01*
X200387Y88599D01*
X200200Y88037D01*
Y87099D01*
X200387Y86537D01*
X200575Y86162D01*
X200950Y85787D01*
X201325Y85600D01*
X202074D01*
X202449Y85787D01*
X202824Y86162D01*
X203011Y86537D01*
X205055Y89536D02*
X204492Y89349D01*
X204305Y88974D01*
Y88599D01*
X204492Y88224D01*
X204867Y88037D01*
X205617Y87849D01*
X206179Y87662D01*
X206554Y87287D01*
X206741Y86912D01*
Y86350D01*
X206554Y85975D01*
X206367Y85787D01*
X205804Y85600D01*
X205055D01*
X204492Y85787D01*
X204305Y85975D01*
X204117Y86350D01*
Y86912D01*
X204305Y87287D01*
X204680Y87662D01*
X205242Y87849D01*
X205992Y88037D01*
X206367Y88224D01*
X206554Y88599D01*
Y88974D01*
X206367Y89349D01*
X205804Y89536D01*
X205055D01*
D11*
X49894Y22197D02*
G03*
X49894Y22197I-394J0D01*
G01*
X208258Y10357D02*
X227942D01*
Y30042D01*
X208258D02*
X227942D01*
X208258Y10357D02*
Y30042D01*
D12*
X64800Y115100D02*
G03*
X67200Y115100I1200J0D01*
G01*
X64800Y146100D02*
G03*
X67200Y146100I1200J0D01*
G01*
X64800Y52100D02*
G03*
X67200Y52100I1200J0D01*
G01*
X64800Y83100D02*
G03*
X67200Y83100I1200J0D01*
G01*
X64800Y24100D02*
G03*
X67200Y24100I1200J0D01*
G01*
X69500Y113700D02*
X72300D01*
Y111700D02*
Y113700D01*
X69500Y111700D02*
X72300D01*
X69500D02*
Y113700D01*
Y115100D01*
Y106300D02*
X72300D01*
Y104300D02*
Y106300D01*
X69500Y104300D02*
X72300D01*
X59700D02*
X62500D01*
X59700D02*
Y106300D01*
X62500D01*
Y104300D02*
Y106300D01*
Y102900D02*
Y104300D01*
X59700Y108000D02*
X62500D01*
X59700D02*
Y110000D01*
X62500D01*
X59700Y111700D02*
X62500D01*
X59700D02*
Y113700D01*
X62500D01*
Y106300D02*
Y108000D01*
Y110000D01*
Y111700D01*
Y113700D01*
Y115100D01*
X64800D01*
X67200D01*
X69500D01*
Y106300D02*
Y111700D01*
Y104300D02*
Y106300D01*
Y102900D02*
Y104300D01*
X62500Y102900D02*
X69500D01*
Y144700D02*
X72300D01*
Y142700D02*
Y144700D01*
X69500Y142700D02*
X72300D01*
X69500D02*
Y144700D01*
Y146100D01*
Y137300D02*
X72300D01*
Y135300D02*
Y137300D01*
X69500Y135300D02*
X72300D01*
X59700D02*
X62500D01*
X59700D02*
Y137300D01*
X62500D01*
Y135300D02*
Y137300D01*
Y133900D02*
Y135300D01*
X59700Y139000D02*
X62500D01*
X59700D02*
Y141000D01*
X62500D01*
X59700Y142700D02*
X62500D01*
X59700D02*
Y144700D01*
X62500D01*
Y137300D02*
Y139000D01*
Y141000D01*
Y142700D01*
Y144700D01*
Y146100D01*
X64800D01*
X67200D01*
X69500D01*
Y137300D02*
Y142700D01*
Y135300D02*
Y137300D01*
Y133900D02*
Y135300D01*
X62500Y133900D02*
X69500D01*
Y50700D02*
X72300D01*
Y48700D02*
Y50700D01*
X69500Y48700D02*
X72300D01*
X69500D02*
Y50700D01*
Y52100D01*
Y43300D02*
X72300D01*
Y41300D02*
Y43300D01*
X69500Y41300D02*
X72300D01*
X59700D02*
X62500D01*
X59700D02*
Y43300D01*
X62500D01*
Y41300D02*
Y43300D01*
Y39900D02*
Y41300D01*
X59700Y45000D02*
X62500D01*
X59700D02*
Y47000D01*
X62500D01*
X59700Y48700D02*
X62500D01*
X59700D02*
Y50700D01*
X62500D01*
Y43300D02*
Y45000D01*
Y47000D01*
Y48700D01*
Y50700D01*
Y52100D01*
X64800D01*
X67200D01*
X69500D01*
Y43300D02*
Y48700D01*
Y41300D02*
Y43300D01*
Y39900D02*
Y41300D01*
X62500Y39900D02*
X69500D01*
Y81700D02*
X72300D01*
Y79700D02*
Y81700D01*
X69500Y79700D02*
X72300D01*
X69500D02*
Y81700D01*
Y83100D01*
Y74300D02*
X72300D01*
Y72300D02*
Y74300D01*
X69500Y72300D02*
X72300D01*
X59700D02*
X62500D01*
X59700D02*
Y74300D01*
X62500D01*
Y72300D02*
Y74300D01*
Y70900D02*
Y72300D01*
X59700Y76000D02*
X62500D01*
X59700D02*
Y78000D01*
X62500D01*
X59700Y79700D02*
X62500D01*
X59700D02*
Y81700D01*
X62500D01*
Y74300D02*
Y76000D01*
Y78000D01*
Y79700D01*
Y81700D01*
Y83100D01*
X64800D01*
X67200D01*
X69500D01*
Y74300D02*
Y79700D01*
Y72300D02*
Y74300D01*
Y70900D02*
Y72300D01*
X62500Y70900D02*
X69500D01*
Y22700D02*
X72300D01*
Y20700D02*
Y22700D01*
X69500Y20700D02*
X72300D01*
X69500D02*
Y22700D01*
Y24100D01*
Y15300D02*
X72300D01*
Y13300D02*
Y15300D01*
X69500Y13300D02*
X72300D01*
X59700D02*
X62500D01*
X59700D02*
Y15300D01*
X62500D01*
Y13300D02*
Y15300D01*
Y11900D02*
Y13300D01*
X59700Y17000D02*
X62500D01*
X59700D02*
Y19000D01*
X62500D01*
X59700Y20700D02*
X62500D01*
X59700D02*
Y22700D01*
X62500D01*
Y15300D02*
Y17000D01*
Y19000D01*
Y20700D01*
Y22700D01*
Y24100D01*
X64800D01*
X67200D01*
X69500D01*
Y15300D02*
Y20700D01*
Y13300D02*
Y15300D01*
Y11900D02*
Y13300D01*
X62500Y11900D02*
X69500D01*
D13*
X248970Y63755D02*
Y70645D01*
X245230Y63755D02*
Y70645D01*
X248970D01*
X245230Y63755D02*
X248970D01*
X243070D02*
Y70645D01*
X239330Y63755D02*
Y70645D01*
X243070D01*
X239330Y63755D02*
X243070D01*
X245230Y74755D02*
X248970D01*
X245230Y81645D02*
X248970D01*
X245230Y74755D02*
Y81645D01*
X248970Y74755D02*
Y81645D01*
X268611Y77970D02*
X275501D01*
X268611Y74230D02*
X275501D01*
X268611D02*
Y77970D01*
X275501Y74230D02*
Y77970D01*
X268555Y80130D02*
X275445D01*
X268555Y83870D02*
X275445D01*
Y80130D02*
Y83870D01*
X268555Y80130D02*
Y83870D01*
Y86030D02*
X275445D01*
X268555Y89770D02*
X275445D01*
Y86030D02*
Y89770D01*
X268555Y86030D02*
Y89770D01*
X261152Y21341D02*
X272648D01*
X261152Y26459D02*
X272648D01*
X261152Y21341D02*
Y26459D01*
X272648Y21341D02*
Y26459D01*
X231545Y48930D02*
Y52670D01*
X224655Y48930D02*
Y52670D01*
Y48930D02*
X231545D01*
X224655Y52670D02*
X231545D01*
X208345Y48930D02*
Y52670D01*
X201455Y48930D02*
Y52670D01*
Y48930D02*
X208345D01*
X201455Y52670D02*
X208345D01*
X197568Y70915D02*
X201308D01*
X197568Y77805D02*
X201308D01*
X197568Y70915D02*
Y77805D01*
X201308Y70915D02*
Y77805D01*
X207793Y87430D02*
X214683D01*
X207793Y83690D02*
X214683D01*
X207793D02*
Y87430D01*
X214683Y83690D02*
Y87430D01*
X234408Y71415D02*
Y78305D01*
X230668Y71415D02*
Y78305D01*
X234408D01*
X230668Y71415D02*
X234408D01*
X228508Y68571D02*
Y75461D01*
X224768Y68571D02*
Y75461D01*
X228508D01*
X224768Y68571D02*
X228508D01*
X67445Y65130D02*
Y68870D01*
X60555Y65130D02*
Y68870D01*
Y65130D02*
X67445D01*
X60555Y68870D02*
X67445D01*
Y97130D02*
Y100870D01*
X60555Y97130D02*
Y100870D01*
Y97130D02*
X67445D01*
X60555Y100870D02*
X67445D01*
Y128130D02*
Y131870D01*
X60555Y128130D02*
Y131870D01*
Y128130D02*
X67445D01*
X60555Y131870D02*
X67445D01*
Y34130D02*
Y37870D01*
X60555Y34130D02*
Y37870D01*
Y34130D02*
X67445D01*
X60555Y37870D02*
X67445D01*
Y6130D02*
Y9870D01*
X60555Y6130D02*
Y9870D01*
Y6130D02*
X67445D01*
X60555Y9870D02*
X67445D01*
X248245Y90830D02*
Y94570D01*
X241355Y90830D02*
Y94570D01*
Y90830D02*
X248245D01*
X241355Y94570D02*
X248245D01*
X275955Y127930D02*
Y131670D01*
X282845Y127930D02*
Y131670D01*
X275955D02*
X282845D01*
X275955Y127930D02*
X282845D01*
X101500Y20200D02*
X121500D01*
X101500Y10200D02*
Y20200D01*
Y10200D02*
X121500D01*
Y20200D01*
X127500Y138500D02*
X147500D01*
Y148500D01*
X127500D02*
X147500D01*
X127500Y138500D02*
Y148500D01*
X101500D02*
X121500D01*
X101500Y138500D02*
Y148500D01*
Y138500D02*
X121500D01*
Y148500D01*
X138299Y129930D02*
Y133670D01*
X145189Y129930D02*
Y133670D01*
X138299D02*
X145189D01*
X138299Y129930D02*
X145189D01*
X122189Y122030D02*
Y125770D01*
X115299Y122030D02*
Y125770D01*
Y122030D02*
X122189D01*
X115299Y125770D02*
X122189D01*
X245330Y7999D02*
X249070D01*
X245330Y14889D02*
X249070D01*
X245330Y7999D02*
Y14889D01*
X249070Y7999D02*
Y14889D01*
X154611Y138030D02*
Y141770D01*
X161501Y138030D02*
Y141770D01*
X154611D02*
X161501D01*
X154611Y138030D02*
X161501D01*
X154611Y145730D02*
Y149470D01*
X161501Y145730D02*
Y149470D01*
X154611D02*
X161501D01*
X154611Y145730D02*
X161501D01*
X233230Y7955D02*
X236970D01*
X233230Y14845D02*
X236970D01*
X233230Y7955D02*
Y14845D01*
X236970Y7955D02*
Y14845D01*
X131430Y25155D02*
X135170D01*
X131430Y32045D02*
X135170D01*
X131430Y25155D02*
Y32045D01*
X135170Y25155D02*
Y32045D01*
X134245Y35230D02*
Y38970D01*
X127355Y35230D02*
Y38970D01*
Y35230D02*
X134245D01*
X127355Y38970D02*
X134245D01*
X245430Y28945D02*
X249170D01*
X245430Y22055D02*
X249170D01*
Y28945D01*
X245430Y22055D02*
Y28945D01*
X141830Y24955D02*
X145570D01*
X141830Y31845D02*
X145570D01*
X141830Y24955D02*
Y31845D01*
X145570Y24955D02*
Y31845D01*
X177630Y5455D02*
X181370D01*
X177630Y12345D02*
X181370D01*
X177630Y5455D02*
Y12345D01*
X181370Y5455D02*
Y12345D01*
X233230Y28945D02*
X236970D01*
X233230Y22055D02*
X236970D01*
Y28945D01*
X233230Y22055D02*
Y28945D01*
X189730Y35845D02*
X193470D01*
X189730Y28955D02*
X193470D01*
Y35845D01*
X189730Y28955D02*
Y35845D01*
X215955Y95730D02*
Y99470D01*
X222845Y95730D02*
Y99470D01*
X215955D02*
X222845D01*
X215955Y95730D02*
X222845D01*
X215955Y105330D02*
Y109070D01*
X222845Y105330D02*
Y109070D01*
X215955D02*
X222845D01*
X215955Y105330D02*
X222845D01*
X222845Y111230D02*
Y114970D01*
X215955Y111230D02*
Y114970D01*
Y111230D02*
X222845D01*
X215955Y114970D02*
X222845D01*
X265230Y139955D02*
X268970D01*
X265230Y146845D02*
X268970D01*
X265230Y139955D02*
Y146845D01*
X268970Y139955D02*
Y146845D01*
X288845Y24830D02*
Y28570D01*
X281955Y24830D02*
Y28570D01*
Y24830D02*
X288845D01*
X281955Y28570D02*
X288845D01*
X25930Y17645D02*
X29670D01*
X25930Y10755D02*
X29670D01*
Y17645D01*
X25930Y10755D02*
Y17645D01*
X26030Y140055D02*
X29770D01*
X26030Y146945D02*
X29770D01*
X26030Y140055D02*
Y146945D01*
X29770Y140055D02*
Y146945D01*
X200855Y114970D02*
X207745D01*
X200855Y111230D02*
X207745D01*
X200855D02*
Y114970D01*
X207745Y111230D02*
Y114970D01*
X108055Y23330D02*
Y27070D01*
X114945Y23330D02*
Y27070D01*
X108055D02*
X114945D01*
X108055Y23330D02*
X114945D01*
X151411Y125670D02*
X158301D01*
X151411Y121930D02*
X158301D01*
X151411D02*
Y125670D01*
X158301Y121930D02*
Y125670D01*
X151411Y129930D02*
Y133670D01*
X158301Y129930D02*
Y133670D01*
X151411D02*
X158301D01*
X151411Y129930D02*
X158301D01*
X138199Y121930D02*
X145089D01*
X138199Y125670D02*
X145089D01*
Y121930D02*
Y125670D01*
X138199Y121930D02*
Y125670D01*
X196755Y83730D02*
Y87470D01*
X203645Y83730D02*
Y87470D01*
X196755D02*
X203645D01*
X196755Y83730D02*
X203645D01*
D86*
X199200Y99900D02*
G03*
X199200Y102300I0J1200D01*
G01*
X252250Y109600D02*
G03*
X252250Y112000I0J1200D01*
G01*
D87*
X199200Y95000D02*
X211400D01*
X199200D02*
Y107200D01*
X211400D01*
Y95000D02*
Y107200D01*
X85480Y116050D02*
X185880D01*
Y45150D02*
Y116050D01*
X85480Y45150D02*
X185880D01*
X85480D02*
Y116050D01*
X252250Y106550D02*
X260750D01*
X252250D02*
Y115050D01*
X260750D01*
Y106550D02*
Y115050D01*
D88*
X158055Y110850D02*
X154723Y107518D01*
Y110850D02*
X158055Y107518D01*
X156389Y110850D02*
Y107518D01*
X154723Y109184D02*
X158055D01*
M02*
