M48
;Layer_Color=9474304
;FILE_FORMAT=2:5
INCH,TZ
;TYPE=PLATED
T1F00S00C0.00787
T2F00S00C0.00984
T3F00S00C0.01181
T4F00S00C0.01575
T6F00S00C0.03150
T7F00S00C0.03504
T8F00S00C0.04016
T9F00S00C0.12205
%
T01
X254600Y71000
X252500Y77500
X258700Y76400
Y80000
X265500Y77637
T02
X271000Y51678
Y54237
X260700Y71500
X223500Y103500
T03
X78500Y21500
Y49500
X91500Y40000
X103300Y25200
X128000Y31500
X137600Y20656
X149800Y17200
X147000Y36900
X201600Y21200
Y17200
X192000Y9200
X211261Y5261
X215000Y17000
X222000
Y24000
X215000
X228500Y10500
X251812Y8688
X265400Y8300
X265358Y14042
X263400Y25500
X270400Y25460
X257000Y41000
Y44500
Y48000
X253000
Y44500
Y41000
X247000
Y34000
X247014Y55314
X261500Y48000
X230500Y57000
X241000Y82000
Y87000
X247000
X252000
X257500
X251200Y99500
X248000Y106000
Y110000
Y114000
Y118000
Y122000
Y126000
Y130000
Y134000
X256000
Y130000
X262000
Y134000
X268000
Y129638
Y124000
X262000
X256000
X242000Y114000
Y110000
Y106000
X236000
Y110000
Y114000
X230000
Y118000
Y122000
Y126000
Y130000
Y134000
X222000Y133000
Y128000
Y123000
Y119000
X216500
Y123000
Y128000
Y133000
X230000Y110000
Y106000
Y102000
Y98000
X236000
Y102000
X291000Y107500
Y116000
X287500
X291000Y120000
Y124000
Y128000
X287500
Y132500
X291000
X289700Y87900
X289800Y82000
X207500Y99500
Y102500
X203000
Y99500
X196000Y109000
Y114000
Y119000
Y123000
Y128000
Y133000
X190000
Y128000
Y123000
Y119000
Y114000
Y109000
X190500Y85700
X194500Y77000
X207500Y57000
X211000Y119000
Y123000
Y128000
Y133000
X163400Y119900
X150500Y136500
X150000Y142000
X150100Y147600
X138500Y136500
X147000Y103350
X78500Y112500
Y144000
Y80500
T04
X234500Y87000
X196000Y92000
X190500
Y98500
X196000
T06
X270400Y100326
Y108200
T07
X49500Y34500
Y44500
Y54500
Y64500
Y74500
Y84500
Y94500
Y104500
Y114500
Y124500
T08
X106500Y15200
X116500
Y143500
X106500
X132500
X142500
T09
X12500Y12000
X283000
Y146000
X12500
M30
