G04*
G04 #@! TF.GenerationSoftware,Altium Limited,Altium Designer,22.6.1 (34)*
G04*
G04 Layer_Physical_Order=2*
G04 Layer_Color=32768*
%FSLAX25Y25*%
%MOIN*%
G70*
G04*
G04 #@! TF.SameCoordinates,BE1EFFB1-D3A5-4C51-9803-2DA18C35BCD8*
G04*
G04*
G04 #@! TF.FilePolarity,Negative*
G04*
G01*
G75*
%ADD75C,0.04000*%
%ADD76C,0.07504*%
%ADD77C,0.08016*%
%ADD78C,0.07150*%
%ADD79C,0.16205*%
%ADD80C,0.04984*%
%ADD81C,0.04787*%
%ADD82C,0.05181*%
%ADD83C,0.05575*%
D75*
X0Y0D02*
Y157480D01*
X295276D01*
Y0D02*
Y157480D01*
X0Y0D02*
X295276D01*
D76*
X49500Y124500D02*
D03*
Y114500D02*
D03*
Y104500D02*
D03*
Y94500D02*
D03*
Y84500D02*
D03*
Y74500D02*
D03*
Y64500D02*
D03*
Y54500D02*
D03*
Y44500D02*
D03*
Y34500D02*
D03*
D77*
X106500Y15200D02*
D03*
X142500Y143500D02*
D03*
X106500D02*
D03*
D78*
X270400Y100326D02*
D03*
D79*
X283000Y146000D02*
D03*
Y12000D02*
D03*
X12500D02*
D03*
Y146000D02*
D03*
D80*
X260700Y71500D02*
D03*
X271000Y54237D02*
D03*
Y51678D02*
D03*
D81*
X265500Y77637D02*
D03*
D82*
X194500Y77000D02*
D03*
X289800Y82000D02*
D03*
X289700Y87900D02*
D03*
X291000Y107500D02*
D03*
X268000Y134000D02*
D03*
X262000Y130000D02*
D03*
Y134000D02*
D03*
X150000Y142000D02*
D03*
X287500Y116000D02*
D03*
X291000Y120000D02*
D03*
Y116000D02*
D03*
X268000Y129638D02*
D03*
X247000Y41000D02*
D03*
X251812Y8688D02*
D03*
X150100Y147600D02*
D03*
X150500Y136500D02*
D03*
X138500D02*
D03*
X228500Y10500D02*
D03*
X247000Y34000D02*
D03*
X230500Y57000D02*
D03*
X207500D02*
D03*
X128000Y31500D02*
D03*
X78500Y21500D02*
D03*
Y49500D02*
D03*
Y80500D02*
D03*
Y112500D02*
D03*
Y144000D02*
D03*
X257500Y87000D02*
D03*
X252000D02*
D03*
X247000D02*
D03*
X241000D02*
D03*
Y82000D02*
D03*
X211000Y119000D02*
D03*
X216500D02*
D03*
X222000D02*
D03*
Y123000D02*
D03*
X216500D02*
D03*
X211000D02*
D03*
Y128000D02*
D03*
X216500D02*
D03*
X222000D02*
D03*
Y133000D02*
D03*
X216500D02*
D03*
X211000D02*
D03*
X190000D02*
D03*
X196000D02*
D03*
Y128000D02*
D03*
X190000D02*
D03*
Y123000D02*
D03*
X196000D02*
D03*
Y119000D02*
D03*
X190000D02*
D03*
Y114000D02*
D03*
X196000D02*
D03*
Y109000D02*
D03*
X190000D02*
D03*
X287500Y128000D02*
D03*
Y132500D02*
D03*
X291000D02*
D03*
Y128000D02*
D03*
Y124000D02*
D03*
X261500Y48000D02*
D03*
X257000D02*
D03*
X253000D02*
D03*
Y44500D02*
D03*
X257000D02*
D03*
Y41000D02*
D03*
X253000D02*
D03*
X230000Y134000D02*
D03*
X248000D02*
D03*
X256000D02*
D03*
X248000Y130000D02*
D03*
X256000D02*
D03*
Y124000D02*
D03*
X262000D02*
D03*
X268000D02*
D03*
X248000Y126000D02*
D03*
Y122000D02*
D03*
Y118000D02*
D03*
X230000Y130000D02*
D03*
Y126000D02*
D03*
Y122000D02*
D03*
Y118000D02*
D03*
X248000Y114000D02*
D03*
X242000D02*
D03*
X236000D02*
D03*
X230000D02*
D03*
Y110000D02*
D03*
X236000D02*
D03*
X242000D02*
D03*
X248000D02*
D03*
Y106000D02*
D03*
X242000D02*
D03*
X236000D02*
D03*
X230000D02*
D03*
Y102000D02*
D03*
X236000D02*
D03*
Y98000D02*
D03*
X230000D02*
D03*
X251200Y99500D02*
D03*
X147000Y103350D02*
D03*
Y36900D02*
D03*
X263400Y25500D02*
D03*
X265400Y8300D02*
D03*
X265358Y14042D02*
D03*
X270400Y25460D02*
D03*
X137600Y20656D02*
D03*
X149800Y17200D02*
D03*
X201600Y21200D02*
D03*
Y17200D02*
D03*
X192000Y9200D02*
D03*
X103300Y25200D02*
D03*
X91500Y40000D02*
D03*
D83*
X234500Y87000D02*
D03*
X196000Y92000D02*
D03*
Y98500D02*
D03*
X190500D02*
D03*
Y92000D02*
D03*
M02*
