G04*
G04 #@! TF.GenerationSoftware,Altium Limited,Altium Designer,22.6.1 (34)*
G04*
G04 Layer_Color=65535*
%FSLAX25Y25*%
%MOIN*%
G70*
G04*
G04 #@! TF.SameCoordinates,BE1EFFB1-D3A5-4C51-9803-2DA18C35BCD8*
G04*
G04*
G04 #@! TF.FilePolarity,Positive*
G04*
G01*
G75*
%ADD10C,0.00500*%
%ADD11C,0.00787*%
%ADD12C,0.00600*%
%ADD13C,0.00394*%
D10*
X253016Y81350D02*
G03*
X253016Y81350I-200J0D01*
G01*
X252407Y56251D02*
G03*
X252407Y56251I-200J0D01*
G01*
X200700Y92300D02*
G03*
X200700Y92300I-200J0D01*
G01*
X212400Y7100D02*
G03*
X212400Y7100I-200J0D01*
G01*
X208589Y81384D02*
G03*
X208589Y81384I-200J0D01*
G01*
X259200Y117400D02*
G03*
X259200Y117400I-200J0D01*
G01*
X236901Y121974D02*
G03*
X236901Y121974I-200J0D01*
G01*
X199101D02*
G03*
X199101Y121974I-200J0D01*
G01*
X254763Y73397D02*
X262637D01*
X254763Y83003D02*
X262637D01*
X12Y24756D02*
Y134244D01*
X53516Y24756D02*
Y134244D01*
X12Y24756D02*
X53516D01*
X12Y134244D02*
X53516D01*
X294103Y37339D02*
X295009D01*
Y67261D01*
X294103D02*
X295009D01*
X264993Y58350D02*
Y64650D01*
X252670Y58350D02*
Y64650D01*
X176441Y35141D02*
Y38409D01*
Y26991D02*
Y30259D01*
Y26991D02*
X180142D01*
X176441Y38409D02*
X180142D01*
X190882Y3491D02*
X194583D01*
X190882Y14909D02*
X194583D01*
Y11641D02*
Y14909D01*
Y3491D02*
Y6759D01*
X263653Y34641D02*
X270346D01*
X263653Y39759D02*
X270346D01*
X263653Y40941D02*
X270346D01*
X263653Y46059D02*
X270346D01*
X227567Y45572D02*
X228433D01*
X227567Y42028D02*
X228433D01*
X204423Y45572D02*
X205289D01*
X204423Y42028D02*
X205289D01*
X244267Y101572D02*
X245133D01*
X244267Y98028D02*
X245133D01*
X210488Y80921D02*
X216787D01*
X210488Y68598D02*
X216787D01*
X276153Y125159D02*
X282846D01*
X276153Y120041D02*
X282846D01*
X295006Y92649D02*
Y115877D01*
X265085Y92649D02*
X295006D01*
X265085Y115877D02*
X295006D01*
X265085Y92649D02*
Y115877D01*
X118567Y133472D02*
X119433D01*
X118567Y129928D02*
X119433D01*
X169967Y141672D02*
X170833D01*
X169967Y138128D02*
X170833D01*
X169923Y149472D02*
X170789D01*
X169923Y145928D02*
X170789D01*
X246328Y150992D02*
X254792D01*
Y130323D02*
Y150992D01*
X249477Y125008D02*
X254792Y130323D01*
X246328Y125008D02*
X249477D01*
X228808Y150992D02*
X237272D01*
X228808Y130323D02*
Y150992D01*
Y130323D02*
X234123Y125008D01*
X237272D01*
X208528Y150992D02*
X216992D01*
Y130323D02*
Y150992D01*
X211677Y125008D02*
X216992Y130323D01*
X208528Y125008D02*
X211677D01*
X191008Y150992D02*
X199472D01*
X191008Y130323D02*
Y150992D01*
Y130323D02*
X196323Y125008D01*
X199472D01*
D11*
X49894Y22197D02*
G03*
X49894Y22197I-394J0D01*
G01*
X244147Y61688D02*
X250053D01*
Y72712D01*
X244147D02*
X250053D01*
X244147Y61688D02*
Y72712D01*
X238247Y61688D02*
X244153D01*
Y72712D01*
X238247D02*
X244153D01*
X238247Y61688D02*
Y72712D01*
X244147Y72688D02*
X250053D01*
X244147D02*
Y83712D01*
X250053D01*
Y72688D02*
Y83712D01*
X277568Y73147D02*
Y79053D01*
X266544D02*
X277568D01*
X266544Y73147D02*
Y79053D01*
Y73147D02*
X277568D01*
X266488Y79047D02*
Y84953D01*
Y79047D02*
X277512D01*
Y84953D01*
X266488D02*
X277512D01*
X266488Y84947D02*
Y90853D01*
Y84947D02*
X277512D01*
Y90853D01*
X266488D02*
X277512D01*
X261152Y23250D02*
Y26459D01*
X263750D01*
X272648Y23250D02*
Y26459D01*
X270050D02*
X272648D01*
X222588Y47847D02*
X233612D01*
X222588D02*
Y53753D01*
X233612D01*
Y47847D02*
Y53753D01*
X208258Y10357D02*
X210226D01*
X208258D02*
Y12326D01*
X225974Y10357D02*
X227942D01*
Y12326D01*
X208258Y30042D02*
X210226D01*
X208258Y28074D02*
Y30042D01*
X225974D02*
X227942D01*
Y28074D02*
Y30042D01*
X199388Y47847D02*
X210412D01*
X199388D02*
Y53753D01*
X210412D01*
Y47847D02*
Y53753D01*
X196485Y68848D02*
Y79872D01*
X202391D01*
Y68848D02*
Y79872D01*
X196485Y68848D02*
X202391D01*
X205726Y88513D02*
X216750D01*
X205726Y82607D02*
Y88513D01*
Y82607D02*
X216750D01*
Y88513D01*
X235490Y69348D02*
Y80372D01*
X229585D02*
X235490D01*
X229585Y69348D02*
Y80372D01*
Y69348D02*
X235490D01*
X229591Y66504D02*
Y77528D01*
X223685D02*
X229591D01*
X223685Y66504D02*
Y77528D01*
Y66504D02*
X229591D01*
X58488Y64047D02*
X69512D01*
X58488D02*
Y69953D01*
X69512D01*
Y64047D02*
Y69953D01*
X58488Y96047D02*
X69512D01*
X58488D02*
Y101953D01*
X69512D01*
Y96047D02*
Y101953D01*
X58488Y127047D02*
X69512D01*
X58488D02*
Y132953D01*
X69512D01*
Y127047D02*
Y132953D01*
X58488Y33047D02*
X69512D01*
X58488D02*
Y38953D01*
X69512D01*
Y33047D02*
Y38953D01*
X58488Y5047D02*
X69512D01*
X58488D02*
Y10953D01*
X69512D01*
Y5047D02*
Y10953D01*
X239288Y89747D02*
X250312D01*
X239288D02*
Y95653D01*
X250312D01*
Y89747D02*
Y95653D01*
X273888Y132753D02*
X284912D01*
Y126847D02*
Y132753D01*
X273888Y126847D02*
X284912D01*
X273888D02*
Y132753D01*
X101500Y20200D02*
X121500D01*
X101500Y10200D02*
X121500D01*
X101500D02*
Y20200D01*
X121500Y10200D02*
Y20200D01*
X127500Y138500D02*
X147500D01*
X127500Y148500D02*
X147500D01*
Y138500D02*
Y148500D01*
X127500Y138500D02*
Y148500D01*
X101500D02*
X121500D01*
X101500Y138500D02*
X121500D01*
X101500D02*
Y148500D01*
X121500Y138500D02*
Y148500D01*
X136232Y134753D02*
X147256D01*
Y128847D02*
Y134753D01*
X136232Y128847D02*
X147256D01*
X136232D02*
Y134753D01*
X113232Y120947D02*
X124256D01*
X113232D02*
Y126853D01*
X124256D01*
Y120947D02*
Y126853D01*
X244247Y5932D02*
Y16956D01*
X250153D01*
Y5932D02*
Y16956D01*
X244247Y5932D02*
X250153D01*
X152544Y142853D02*
X163568D01*
Y136947D02*
Y142853D01*
X152544Y136947D02*
X163568D01*
X152544D02*
Y142853D01*
Y150553D02*
X163568D01*
Y144647D02*
Y150553D01*
X152544Y144647D02*
X163568D01*
X152544D02*
Y150553D01*
X232147Y5888D02*
Y16912D01*
X238053D01*
Y5888D02*
Y16912D01*
X232147Y5888D02*
X238053D01*
X130347Y23088D02*
Y34112D01*
X136253D01*
Y23088D02*
Y34112D01*
X130347Y23088D02*
X136253D01*
X125288Y34147D02*
X136312D01*
X125288D02*
Y40053D01*
X136312D01*
Y34147D02*
Y40053D01*
X250253Y19988D02*
Y31012D01*
X244347Y19988D02*
X250253D01*
X244347D02*
Y31012D01*
X250253D01*
X140747Y22888D02*
Y33912D01*
X146653D01*
Y22888D02*
Y33912D01*
X140747Y22888D02*
X146653D01*
X176547Y3388D02*
Y14412D01*
X182453D01*
Y3388D02*
Y14412D01*
X176547Y3388D02*
X182453D01*
X238053Y19988D02*
Y31012D01*
X232147Y19988D02*
X238053D01*
X232147D02*
Y31012D01*
X238053D01*
X194553Y26888D02*
Y37912D01*
X188647Y26888D02*
X194553D01*
X188647D02*
Y37912D01*
X194553D01*
X213888Y100553D02*
X224912D01*
Y94647D02*
Y100553D01*
X213888Y94647D02*
X224912D01*
X213888D02*
Y100553D01*
Y110153D02*
X224912D01*
Y104247D02*
Y110153D01*
X213888Y104247D02*
X224912D01*
X213888D02*
Y110153D01*
Y110147D02*
X224912D01*
X213888D02*
Y116053D01*
X224912D01*
Y110147D02*
Y116053D01*
X264147Y137888D02*
Y148912D01*
X270053D01*
Y137888D02*
Y148912D01*
X264147Y137888D02*
X270053D01*
X279888Y23747D02*
X290912D01*
X279888D02*
Y29653D01*
X290912D01*
Y23747D02*
Y29653D01*
X30753Y8688D02*
Y19712D01*
X24847Y8688D02*
X30753D01*
X24847D02*
Y19712D01*
X30753D01*
X24947Y137988D02*
Y149012D01*
X30853D01*
Y137988D02*
Y149012D01*
X24947Y137988D02*
X30853D01*
X198788Y116053D02*
X209812D01*
X198788Y110147D02*
Y116053D01*
Y110147D02*
X209812D01*
Y116053D01*
X105988Y22247D02*
Y28153D01*
X117012D01*
Y22247D02*
Y28153D01*
X105988Y22247D02*
X117012D01*
X149344Y126753D02*
X160368D01*
X149344Y120847D02*
Y126753D01*
Y120847D02*
X160368D01*
Y126753D01*
X149344Y128847D02*
Y134753D01*
X160368D01*
Y128847D02*
Y134753D01*
X149344Y128847D02*
X160368D01*
X136132Y120847D02*
X147156D01*
Y126753D01*
X136132D02*
X147156D01*
X136132Y120847D02*
Y126753D01*
X194688Y82647D02*
Y88553D01*
X205712D01*
Y82647D02*
Y88553D01*
X194688Y82647D02*
X205712D01*
D12*
X64800Y115100D02*
G03*
X67200Y115100I1200J0D01*
G01*
X64800Y146100D02*
G03*
X67200Y146100I1200J0D01*
G01*
X64800Y52100D02*
G03*
X67200Y52100I1200J0D01*
G01*
X64800Y83100D02*
G03*
X67200Y83100I1200J0D01*
G01*
X64800Y24100D02*
G03*
X67200Y24100I1200J0D01*
G01*
X198700Y94500D02*
Y107700D01*
X211900Y94500D02*
Y107700D01*
X159450Y44650D02*
X186380D01*
X84980D02*
Y55040D01*
Y116550D02*
X88330D01*
X186380Y44650D02*
Y116550D01*
X84980Y44650D02*
X88330D01*
X84980Y106160D02*
Y116550D01*
X159450D02*
X186380D01*
X251750Y106050D02*
Y115550D01*
X261250Y106050D02*
Y115550D01*
X63500Y115100D02*
X64800D01*
X67200D01*
X68500D01*
X63500Y146100D02*
X64800D01*
X67200D01*
X68500D01*
X63500Y52100D02*
X64800D01*
X67200D01*
X68500D01*
X63500Y83100D02*
X64800D01*
X67200D01*
X68500D01*
X63500Y24100D02*
X64800D01*
X67200D01*
X68500D01*
D13*
X266400Y35500D02*
X268100Y37200D01*
X266400Y38900D02*
X268100Y37200D01*
X266400Y35500D02*
Y38900D01*
X267600Y41800D02*
Y45200D01*
X265900Y43500D02*
X267600Y41800D01*
X265900Y43500D02*
X267600Y45200D01*
X233800Y41300D02*
Y46300D01*
X210656Y41300D02*
Y46300D01*
X250500Y97300D02*
Y102300D01*
X278400Y122600D02*
X280100Y124300D01*
X278400Y122600D02*
X280100Y120900D01*
Y124300D01*
X124800Y129200D02*
Y134200D01*
X176200Y137400D02*
Y142400D01*
X176156Y145200D02*
Y150200D01*
X179993Y141342D02*
X177894D01*
Y139768D01*
X178943Y140293D01*
X179468D01*
X179993Y139768D01*
Y138718D01*
X179468Y138194D01*
X178419D01*
X177894Y138718D01*
X181042Y141342D02*
Y139243D01*
X182092Y138194D01*
X183141Y139243D01*
Y141342D01*
X177794Y148617D02*
X178319Y149142D01*
X179368D01*
X179893Y148617D01*
Y148093D01*
X179368Y147568D01*
X178843D01*
X179368D01*
X179893Y147043D01*
Y146519D01*
X179368Y145994D01*
X178319D01*
X177794Y146519D01*
X180942Y149142D02*
Y147043D01*
X181992Y145994D01*
X183041Y147043D01*
Y149142D01*
X184091Y148617D02*
X184616Y149142D01*
X185665D01*
X186190Y148617D01*
Y148093D01*
X185665Y147568D01*
X185140D01*
X185665D01*
X186190Y147043D01*
Y146519D01*
X185665Y145994D01*
X184616D01*
X184091Y146519D01*
X220706Y43994D02*
X217558D01*
Y45568D01*
X218082Y46093D01*
X219132D01*
X219657Y45568D01*
Y43994D01*
Y45043D02*
X220706Y46093D01*
X217558Y47142D02*
X220706Y49241D01*
X217558D02*
X220706Y47142D01*
X217558Y50291D02*
Y52390D01*
Y51340D01*
X220706D01*
X194258Y43994D02*
Y46093D01*
Y45043D01*
X197406D01*
X194258Y47142D02*
X197406Y49241D01*
X194258D02*
X197406Y47142D01*
X194258Y50291D02*
Y52390D01*
Y51340D01*
X197406D01*
X263989Y16574D02*
Y13426D01*
X265563D01*
X266088Y13950D01*
Y16049D01*
X265563Y16574D01*
X263989D01*
X267138Y13426D02*
X268187D01*
X267662D01*
Y16574D01*
X267138Y16049D01*
X269761Y13426D02*
X270811D01*
X270286D01*
Y16574D01*
X269761Y16049D01*
X253176Y38774D02*
Y35626D01*
X254750D01*
X255275Y36151D01*
Y38249D01*
X254750Y38774D01*
X253176D01*
X256325Y38249D02*
X256850Y38774D01*
X257899D01*
X258424Y38249D01*
Y37725D01*
X257899Y37200D01*
X257374D01*
X257899D01*
X258424Y36675D01*
Y36151D01*
X257899Y35626D01*
X256850D01*
X256325Y36151D01*
X254864Y87174D02*
Y84550D01*
X255389Y84026D01*
X256439D01*
X256963Y84550D01*
Y87174D01*
X258013Y84026D02*
X259062D01*
X258538D01*
Y87174D01*
X258013Y86650D01*
X260637D02*
X261161Y87174D01*
X262211D01*
X262736Y86650D01*
Y84550D01*
X262211Y84026D01*
X261161D01*
X260637Y84550D01*
Y86650D01*
X63376Y29074D02*
Y26450D01*
X63901Y25926D01*
X64951D01*
X65475Y26450D01*
Y29074D01*
X66525Y26450D02*
X67049Y25926D01*
X68099D01*
X68624Y26450D01*
Y28550D01*
X68099Y29074D01*
X67049D01*
X66525Y28550D01*
Y28025D01*
X67049Y27500D01*
X68624D01*
X194426Y94376D02*
X197049D01*
X197574Y94901D01*
Y95951D01*
X197049Y96475D01*
X194426D01*
X194950Y97525D02*
X194426Y98049D01*
Y99099D01*
X194950Y99624D01*
X195475D01*
X196000Y99099D01*
X196525Y99624D01*
X197049D01*
X197574Y99099D01*
Y98049D01*
X197049Y97525D01*
X196525D01*
X196000Y98049D01*
X195475Y97525D01*
X194950D01*
X196000Y98049D02*
Y99099D01*
X64376Y88074D02*
Y85451D01*
X64901Y84926D01*
X65951D01*
X66475Y85451D01*
Y88074D01*
X67525D02*
X69624D01*
Y87550D01*
X67525Y85451D01*
Y84926D01*
X63376Y57074D02*
Y54451D01*
X63901Y53926D01*
X64951D01*
X65475Y54451D01*
Y57074D01*
X68624D02*
X67574Y56550D01*
X66525Y55500D01*
Y54451D01*
X67049Y53926D01*
X68099D01*
X68624Y54451D01*
Y54975D01*
X68099Y55500D01*
X66525D01*
X211014Y67334D02*
Y64710D01*
X211539Y64186D01*
X212588D01*
X213113Y64710D01*
Y67334D01*
X216262D02*
X214162D01*
Y65760D01*
X215212Y66285D01*
X215737D01*
X216262Y65760D01*
Y64710D01*
X215737Y64186D01*
X214687D01*
X214162Y64710D01*
X63376Y151074D02*
Y148451D01*
X63901Y147926D01*
X64951D01*
X65475Y148451D01*
Y151074D01*
X68099Y147926D02*
Y151074D01*
X66525Y149500D01*
X68624D01*
X63376Y120074D02*
Y117450D01*
X63901Y116926D01*
X64951D01*
X65475Y117450D01*
Y120074D01*
X66525Y119550D02*
X67049Y120074D01*
X68099D01*
X68624Y119550D01*
Y119025D01*
X68099Y118500D01*
X67574D01*
X68099D01*
X68624Y117975D01*
Y117450D01*
X68099Y116926D01*
X67049D01*
X66525Y117450D01*
X204376Y34674D02*
Y32050D01*
X204901Y31526D01*
X205950D01*
X206475Y32050D01*
Y34674D01*
X209624Y31526D02*
X207525D01*
X209624Y33625D01*
Y34150D01*
X209099Y34674D01*
X208050D01*
X207525Y34150D01*
X184648Y113724D02*
X181368D01*
X180712Y113068D01*
Y111756D01*
X181368Y111100D01*
X184648D01*
X180712Y109788D02*
Y108476D01*
Y109132D01*
X184648D01*
X183992Y109788D01*
X109501Y153050D02*
X108976Y153574D01*
X107927D01*
X107402Y153050D01*
Y150951D01*
X107927Y150426D01*
X108976D01*
X109501Y150951D01*
X110550Y150426D02*
Y152525D01*
X111600Y153574D01*
X112650Y152525D01*
Y150426D01*
Y152000D01*
X110550D01*
X113699Y153574D02*
Y150426D01*
X115798D01*
X135401Y153574D02*
X133302D01*
Y150426D01*
X135401D01*
X133302Y152000D02*
X134351D01*
X136451Y150426D02*
Y153574D01*
X138549Y150426D01*
Y153574D01*
X139599Y150426D02*
Y152525D01*
X140649Y153574D01*
X141698Y152525D01*
Y150426D01*
Y152000D01*
X139599D01*
X105728Y8274D02*
Y5126D01*
X107302D01*
X107827Y5650D01*
Y6175D01*
X107302Y6700D01*
X105728D01*
X107302D01*
X107827Y7225D01*
Y7750D01*
X107302Y8274D01*
X105728D01*
X110450D02*
X109401D01*
X108876Y7750D01*
Y5650D01*
X109401Y5126D01*
X110450D01*
X110975Y5650D01*
Y7750D01*
X110450Y8274D01*
X113599D02*
X112549D01*
X112025Y7750D01*
Y5650D01*
X112549Y5126D01*
X113599D01*
X114124Y5650D01*
Y7750D01*
X113599Y8274D01*
X115173D02*
X117272D01*
X116223D01*
Y5126D01*
X35774Y139102D02*
X32626D01*
Y140676D01*
X33151Y141201D01*
X34200D01*
X34725Y140676D01*
Y139102D01*
Y140151D02*
X35774Y141201D01*
X33151Y142251D02*
X32626Y142775D01*
Y143825D01*
X33151Y144350D01*
X33675D01*
X34200Y143825D01*
Y143300D01*
Y143825D01*
X34725Y144350D01*
X35250D01*
X35774Y143825D01*
Y142775D01*
X35250Y142251D01*
X32626Y145399D02*
Y147498D01*
X33151D01*
X35250Y145399D01*
X35774D01*
X35674Y9902D02*
X32526D01*
Y11476D01*
X33051Y12001D01*
X34100D01*
X34625Y11476D01*
Y9902D01*
Y10951D02*
X35674Y12001D01*
X33051Y13050D02*
X32526Y13575D01*
Y14625D01*
X33051Y15149D01*
X33575D01*
X34100Y14625D01*
Y14100D01*
Y14625D01*
X34625Y15149D01*
X35149D01*
X35674Y14625D01*
Y13575D01*
X35149Y13050D01*
X32526Y18298D02*
X33051Y17249D01*
X34100Y16199D01*
X35149D01*
X35674Y16724D01*
Y17773D01*
X35149Y18298D01*
X34625D01*
X34100Y17773D01*
Y16199D01*
X262374Y139202D02*
X259226D01*
Y140776D01*
X259751Y141301D01*
X260800D01*
X261325Y140776D01*
Y139202D01*
Y140251D02*
X262374Y141301D01*
X259751Y142350D02*
X259226Y142875D01*
Y143925D01*
X259751Y144449D01*
X260275D01*
X260800Y143925D01*
Y143400D01*
Y143925D01*
X261325Y144449D01*
X261849D01*
X262374Y143925D01*
Y142875D01*
X261849Y142350D01*
X262374Y147073D02*
X259226D01*
X260800Y145499D01*
Y147598D01*
X279002Y74326D02*
Y77474D01*
X280576D01*
X281101Y76950D01*
Y75900D01*
X280576Y75375D01*
X279002D01*
X280051D02*
X281101Y74326D01*
X282151Y76950D02*
X282675Y77474D01*
X283725D01*
X284249Y76950D01*
Y76425D01*
X283725Y75900D01*
X283200D01*
X283725D01*
X284249Y75375D01*
Y74850D01*
X283725Y74326D01*
X282675D01*
X282151Y74850D01*
X285299Y76950D02*
X285824Y77474D01*
X286873D01*
X287398Y76950D01*
Y76425D01*
X286873Y75900D01*
X286349D01*
X286873D01*
X287398Y75375D01*
Y74850D01*
X286873Y74326D01*
X285824D01*
X285299Y74850D01*
X248674Y52002D02*
X245526D01*
Y53576D01*
X246051Y54101D01*
X247100D01*
X247625Y53576D01*
Y52002D01*
Y53051D02*
X248674Y54101D01*
X246051Y55151D02*
X245526Y55675D01*
Y56725D01*
X246051Y57249D01*
X246575D01*
X247100Y56725D01*
Y56200D01*
Y56725D01*
X247625Y57249D01*
X248149D01*
X248674Y56725D01*
Y55675D01*
X248149Y55151D01*
X248674Y60398D02*
Y58299D01*
X246575Y60398D01*
X246051D01*
X245526Y59873D01*
Y58824D01*
X246051Y58299D01*
X279027Y80626D02*
Y83774D01*
X280601D01*
X281126Y83249D01*
Y82200D01*
X280601Y81675D01*
X279027D01*
X280076D02*
X281126Y80626D01*
X282175Y83249D02*
X282700Y83774D01*
X283750D01*
X284274Y83249D01*
Y82725D01*
X283750Y82200D01*
X283225D01*
X283750D01*
X284274Y81675D01*
Y81151D01*
X283750Y80626D01*
X282700D01*
X282175Y81151D01*
X285324Y80626D02*
X286373D01*
X285849D01*
Y83774D01*
X285324Y83249D01*
X242674Y52002D02*
X239526D01*
Y53576D01*
X240051Y54101D01*
X241100D01*
X241625Y53576D01*
Y52002D01*
Y53051D02*
X242674Y54101D01*
X240051Y55151D02*
X239526Y55675D01*
Y56725D01*
X240051Y57249D01*
X240575D01*
X241100Y56725D01*
Y56200D01*
Y56725D01*
X241625Y57249D01*
X242149D01*
X242674Y56725D01*
Y55675D01*
X242149Y55151D01*
X240051Y58299D02*
X239526Y58824D01*
Y59873D01*
X240051Y60398D01*
X242149D01*
X242674Y59873D01*
Y58824D01*
X242149Y58299D01*
X240051D01*
X279002Y86326D02*
Y89474D01*
X280576D01*
X281101Y88950D01*
Y87900D01*
X280576Y87375D01*
X279002D01*
X280051D02*
X281101Y86326D01*
X284249D02*
X282151D01*
X284249Y88425D01*
Y88950D01*
X283725Y89474D01*
X282675D01*
X282151Y88950D01*
X285299Y86851D02*
X285824Y86326D01*
X286873D01*
X287398Y86851D01*
Y88950D01*
X286873Y89474D01*
X285824D01*
X285299Y88950D01*
Y88425D01*
X285824Y87900D01*
X287398D01*
X71802Y6426D02*
Y9574D01*
X73376D01*
X73901Y9049D01*
Y8000D01*
X73376Y7475D01*
X71802D01*
X72851D02*
X73901Y6426D01*
X77049D02*
X74950D01*
X77049Y8525D01*
Y9049D01*
X76525Y9574D01*
X75475D01*
X74950Y9049D01*
X78099D02*
X78624Y9574D01*
X79673D01*
X80198Y9049D01*
Y8525D01*
X79673Y8000D01*
X80198Y7475D01*
Y6950D01*
X79673Y6426D01*
X78624D01*
X78099Y6950D01*
Y7475D01*
X78624Y8000D01*
X78099Y8525D01*
Y9049D01*
X78624Y8000D02*
X79673D01*
X226402Y111626D02*
Y114774D01*
X227976D01*
X228501Y114250D01*
Y113200D01*
X227976Y112675D01*
X226402D01*
X227451D02*
X228501Y111626D01*
X231649D02*
X229551D01*
X231649Y113725D01*
Y114250D01*
X231125Y114774D01*
X230075D01*
X229551Y114250D01*
X232699Y114774D02*
X234798D01*
Y114250D01*
X232699Y112151D01*
Y111626D01*
X263102Y128226D02*
Y131374D01*
X264676D01*
X265201Y130850D01*
Y129800D01*
X264676Y129275D01*
X263102D01*
X264151D02*
X265201Y128226D01*
X268350D02*
X266250D01*
X268350Y130325D01*
Y130850D01*
X267825Y131374D01*
X266775D01*
X266250Y130850D01*
X271498Y131374D02*
X270449Y130850D01*
X269399Y129800D01*
Y128751D01*
X269924Y128226D01*
X270973D01*
X271498Y128751D01*
Y129275D01*
X270973Y129800D01*
X269399D01*
X226458Y105726D02*
Y108874D01*
X228032D01*
X228557Y108350D01*
Y107300D01*
X228032Y106775D01*
X226458D01*
X227507D02*
X228557Y105726D01*
X231705D02*
X229606D01*
X231705Y107825D01*
Y108350D01*
X231181Y108874D01*
X230131D01*
X229606Y108350D01*
X234854Y108874D02*
X232755D01*
Y107300D01*
X233804Y107825D01*
X234329D01*
X234854Y107300D01*
Y106251D01*
X234329Y105726D01*
X233280D01*
X232755Y106251D01*
X226502Y95926D02*
Y99074D01*
X228076D01*
X228601Y98549D01*
Y97500D01*
X228076Y96975D01*
X226502D01*
X227551D02*
X228601Y95926D01*
X231750D02*
X229650D01*
X231750Y98025D01*
Y98549D01*
X231225Y99074D01*
X230175D01*
X229650Y98549D01*
X234373Y95926D02*
Y99074D01*
X232799Y97500D01*
X234898D01*
X71802Y65426D02*
Y68574D01*
X73376D01*
X73901Y68050D01*
Y67000D01*
X73376Y66475D01*
X71802D01*
X72851D02*
X73901Y65426D01*
X77049D02*
X74950D01*
X77049Y67525D01*
Y68050D01*
X76525Y68574D01*
X75475D01*
X74950Y68050D01*
X78099D02*
X78624Y68574D01*
X79673D01*
X80198Y68050D01*
Y67525D01*
X79673Y67000D01*
X79149D01*
X79673D01*
X80198Y66475D01*
Y65951D01*
X79673Y65426D01*
X78624D01*
X78099Y65951D01*
X71802Y34426D02*
Y37574D01*
X73376D01*
X73901Y37049D01*
Y36000D01*
X73376Y35475D01*
X71802D01*
X72851D02*
X73901Y34426D01*
X77049D02*
X74950D01*
X77049Y36525D01*
Y37049D01*
X76525Y37574D01*
X75475D01*
X74950Y37049D01*
X80198Y34426D02*
X78099D01*
X80198Y36525D01*
Y37049D01*
X79673Y37574D01*
X78624D01*
X78099Y37049D01*
X201012Y60186D02*
X197863D01*
Y61761D01*
X198388Y62286D01*
X199438D01*
X199962Y61761D01*
Y60186D01*
Y61236D02*
X201012Y62286D01*
Y65434D02*
Y63335D01*
X198913Y65434D01*
X198388D01*
X197863Y64909D01*
Y63860D01*
X198388Y63335D01*
X201012Y66484D02*
Y67533D01*
Y67008D01*
X197863D01*
X198388Y66484D01*
X71802Y128426D02*
Y131574D01*
X73376D01*
X73901Y131050D01*
Y130000D01*
X73376Y129475D01*
X71802D01*
X72851D02*
X73901Y128426D01*
X77049D02*
X74950D01*
X77049Y130525D01*
Y131050D01*
X76525Y131574D01*
X75475D01*
X74950Y131050D01*
X78099D02*
X78624Y131574D01*
X79673D01*
X80198Y131050D01*
Y128951D01*
X79673Y128426D01*
X78624D01*
X78099Y128951D01*
Y131050D01*
X72564Y97426D02*
Y100574D01*
X74139D01*
X74663Y100049D01*
Y99000D01*
X74139Y98475D01*
X72564D01*
X73614D02*
X74663Y97426D01*
X75713D02*
X76762D01*
X76238D01*
Y100574D01*
X75713Y100049D01*
X78337Y97951D02*
X78861Y97426D01*
X79911D01*
X80436Y97951D01*
Y100049D01*
X79911Y100574D01*
X78861D01*
X78337Y100049D01*
Y99525D01*
X78861Y99000D01*
X80436D01*
X199474Y28464D02*
X196326D01*
Y30039D01*
X196851Y30563D01*
X197900D01*
X198425Y30039D01*
Y28464D01*
Y29514D02*
X199474Y30563D01*
Y31613D02*
Y32662D01*
Y32138D01*
X196326D01*
X196851Y31613D01*
Y34237D02*
X196326Y34762D01*
Y35811D01*
X196851Y36336D01*
X197375D01*
X197900Y35811D01*
X198425Y36336D01*
X198950D01*
X199474Y35811D01*
Y34762D01*
X198950Y34237D01*
X198425D01*
X197900Y34762D01*
X197375Y34237D01*
X196851D01*
X197900Y34762D02*
Y35811D01*
X242774Y21364D02*
X239626D01*
Y22939D01*
X240150Y23463D01*
X241200D01*
X241725Y22939D01*
Y21364D01*
Y22414D02*
X242774Y23463D01*
Y24513D02*
Y25562D01*
Y25038D01*
X239626D01*
X240150Y24513D01*
X239626Y27137D02*
Y29236D01*
X240150D01*
X242249Y27137D01*
X242774D01*
X174774Y5220D02*
X171626D01*
Y6795D01*
X172151Y7319D01*
X173200D01*
X173725Y6795D01*
Y5220D01*
Y6270D02*
X174774Y7319D01*
Y8369D02*
Y9418D01*
Y8894D01*
X171626D01*
X172151Y8369D01*
X174774Y12567D02*
X171626D01*
X173200Y10993D01*
Y13092D01*
X141826Y20967D02*
X144974D01*
Y19393D01*
X144449Y18868D01*
X143400D01*
X142875Y19393D01*
Y20967D01*
Y19917D02*
X141826Y18868D01*
Y17818D02*
Y16769D01*
Y17293D01*
X144974D01*
X144449Y17818D01*
X141826Y15194D02*
Y14145D01*
Y14670D01*
X144974D01*
X144449Y15194D01*
X254974Y21364D02*
X251826D01*
Y22939D01*
X252350Y23463D01*
X253400D01*
X253925Y22939D01*
Y21364D01*
Y22414D02*
X254974Y23463D01*
Y24513D02*
Y25562D01*
Y25038D01*
X251826D01*
X252350Y24513D01*
Y27137D02*
X251826Y27661D01*
Y28711D01*
X252350Y29236D01*
X254450D01*
X254974Y28711D01*
Y27661D01*
X254450Y27137D01*
X252350D01*
X118176Y35626D02*
Y38774D01*
X119750D01*
X120275Y38249D01*
Y37200D01*
X119750Y36675D01*
X118176D01*
X119226D02*
X120275Y35626D01*
X121325Y36151D02*
X121850Y35626D01*
X122899D01*
X123424Y36151D01*
Y38249D01*
X122899Y38774D01*
X121850D01*
X121325Y38249D01*
Y37725D01*
X121850Y37200D01*
X123424D01*
X131626Y21180D02*
X134774D01*
Y19605D01*
X134249Y19081D01*
X133200D01*
X132675Y19605D01*
Y21180D01*
Y20130D02*
X131626Y19081D01*
X134249Y18031D02*
X134774Y17506D01*
Y16457D01*
X134249Y15932D01*
X133725D01*
X133200Y16457D01*
X132675Y15932D01*
X132150D01*
X131626Y16457D01*
Y17506D01*
X132150Y18031D01*
X132675D01*
X133200Y17506D01*
X133725Y18031D01*
X134249D01*
X133200Y17506D02*
Y16457D01*
X242674Y8876D02*
X239526D01*
Y10451D01*
X240051Y10975D01*
X241100D01*
X241625Y10451D01*
Y8876D01*
Y9926D02*
X242674Y10975D01*
X239526Y12025D02*
Y14124D01*
X240051D01*
X242149Y12025D01*
X242674D01*
X254874Y8876D02*
X251726D01*
Y10451D01*
X252251Y10975D01*
X253300D01*
X253825Y10451D01*
Y8876D01*
Y9926D02*
X254874Y10975D01*
X252251Y12025D02*
X251726Y12550D01*
Y13599D01*
X252251Y14124D01*
X252775D01*
X253300Y13599D01*
Y13074D01*
Y13599D01*
X253825Y14124D01*
X254349D01*
X254874Y13599D01*
Y12550D01*
X254349Y12025D01*
X106576Y122426D02*
Y125574D01*
X108150D01*
X108675Y125049D01*
Y124000D01*
X108150Y123475D01*
X106576D01*
X107626D02*
X108675Y122426D01*
X111824D02*
X109725D01*
X111824Y124525D01*
Y125049D01*
X111299Y125574D01*
X110249D01*
X109725Y125049D01*
X130289Y130226D02*
Y133374D01*
X131863D01*
X132388Y132850D01*
Y131800D01*
X131863Y131275D01*
X130289D01*
X131339D02*
X132388Y130226D01*
X133438D02*
X134487D01*
X133963D01*
Y133374D01*
X133438Y132850D01*
X193075Y16951D02*
Y19049D01*
X192551Y19574D01*
X191501D01*
X190976Y19049D01*
Y16951D01*
X191501Y16426D01*
X192551D01*
X192026Y17475D02*
X193075Y16426D01*
X192551D02*
X193075Y16951D01*
X196224Y16426D02*
X194125D01*
X196224Y18525D01*
Y19049D01*
X195699Y19574D01*
X194650D01*
X194125Y19049D01*
X178200Y40551D02*
Y42649D01*
X177675Y43174D01*
X176626D01*
X176101Y42649D01*
Y40551D01*
X176626Y40026D01*
X177675D01*
X177150Y41075D02*
X178200Y40026D01*
X177675D02*
X178200Y40551D01*
X179250Y40026D02*
X180299D01*
X179774D01*
Y43174D01*
X179250Y42649D01*
X266576Y59726D02*
Y62874D01*
X267626Y61825D01*
X268675Y62874D01*
Y59726D01*
X271824D02*
X269725D01*
X271824Y61825D01*
Y62349D01*
X271299Y62874D01*
X270250D01*
X269725Y62349D01*
X246001Y109226D02*
Y112374D01*
X247050Y111325D01*
X248100Y112374D01*
Y109226D01*
X249149D02*
X250199D01*
X249674D01*
Y112374D01*
X249149Y111849D01*
X290375Y97074D02*
X289326D01*
X289850D01*
Y94450D01*
X289326Y93926D01*
X288801D01*
X288276Y94450D01*
X291425Y96549D02*
X291950Y97074D01*
X292999D01*
X293524Y96549D01*
Y96025D01*
X292999Y95500D01*
X292474D01*
X292999D01*
X293524Y94975D01*
Y94450D01*
X292999Y93926D01*
X291950D01*
X291425Y94450D01*
X50475Y139574D02*
X49426D01*
X49951D01*
Y136951D01*
X49426Y136426D01*
X48901D01*
X48376Y136951D01*
X53624Y136426D02*
X51525D01*
X53624Y138525D01*
Y139049D01*
X53099Y139574D01*
X52049D01*
X51525Y139049D01*
X278800Y35374D02*
X277750D01*
X278275D01*
Y32750D01*
X277750Y32226D01*
X277226D01*
X276701Y32750D01*
X279850Y32226D02*
X280899D01*
X280374D01*
Y35374D01*
X279850Y34850D01*
X263064Y123874D02*
Y120726D01*
X264639D01*
X265163Y121250D01*
Y123349D01*
X264639Y123874D01*
X263064D01*
X266213Y120726D02*
X267262D01*
X266738D01*
Y123874D01*
X266213Y123349D01*
X268837D02*
X269361Y123874D01*
X270411D01*
X270936Y123349D01*
Y121250D01*
X270411Y120726D01*
X269361D01*
X268837Y121250D01*
Y123349D01*
X252450Y91927D02*
X251926Y91402D01*
Y90352D01*
X252450Y89828D01*
X254550D01*
X255074Y90352D01*
Y91402D01*
X254550Y91927D01*
X251926Y92976D02*
X255074D01*
X253500D01*
Y95075D01*
X251926D01*
X255074D01*
Y96125D02*
X251926D01*
Y97699D01*
X252450Y98224D01*
X253500D01*
X254025Y97699D01*
Y96125D01*
Y97174D02*
X255074Y98224D01*
X252450Y101372D02*
X251926Y100848D01*
Y99798D01*
X252450Y99273D01*
X254550D01*
X255074Y99798D01*
Y100848D01*
X254550Y101372D01*
X253500D01*
Y100323D01*
X106576Y133374D02*
Y130226D01*
X108150D01*
X108675Y130751D01*
Y132850D01*
X108150Y133374D01*
X106576D01*
X111824Y130226D02*
X109725D01*
X111824Y132325D01*
Y132850D01*
X111299Y133374D01*
X110249D01*
X109725Y132850D01*
X253201Y45174D02*
Y42026D01*
X254775D01*
X255300Y42551D01*
Y44649D01*
X254775Y45174D01*
X253201D01*
X256349Y42026D02*
X257399D01*
X256874D01*
Y45174D01*
X256349Y44649D01*
X239850Y76563D02*
X239326Y76039D01*
Y74989D01*
X239850Y74464D01*
X241950D01*
X242474Y74989D01*
Y76039D01*
X241950Y76563D01*
X242474Y77613D02*
Y78662D01*
Y78138D01*
X239326D01*
X239850Y77613D01*
Y80237D02*
X239326Y80761D01*
Y81811D01*
X239850Y82336D01*
X240375D01*
X240900Y81811D01*
Y81286D01*
Y81811D01*
X241425Y82336D01*
X241950D01*
X242474Y81811D01*
Y80761D01*
X241950Y80237D01*
X220401Y86609D02*
X219876Y87134D01*
X218827D01*
X218302Y86609D01*
Y84510D01*
X218827Y83986D01*
X219876D01*
X220401Y84510D01*
X221451Y83986D02*
X222500D01*
X221975D01*
Y87134D01*
X221451Y86609D01*
X226173Y83986D02*
X224074D01*
X226173Y86085D01*
Y86609D01*
X225649Y87134D01*
X224599D01*
X224074Y86609D01*
X193188Y154649D02*
X192663Y155174D01*
X191614D01*
X191089Y154649D01*
Y152550D01*
X191614Y152026D01*
X192663D01*
X193188Y152550D01*
X194238Y152026D02*
X195287D01*
X194762D01*
Y155174D01*
X194238Y154649D01*
X196861Y152026D02*
X197911D01*
X197386D01*
Y155174D01*
X196861Y154649D01*
X230763Y154573D02*
X230239Y155098D01*
X229189D01*
X228664Y154573D01*
Y152474D01*
X229189Y151949D01*
X230239D01*
X230763Y152474D01*
X231813Y151949D02*
X232862D01*
X232338D01*
Y155098D01*
X231813Y154573D01*
X234437D02*
X234962Y155098D01*
X236011D01*
X236536Y154573D01*
Y152474D01*
X236011Y151949D01*
X234962D01*
X234437Y152474D01*
Y154573D01*
X194131Y114250D02*
X193606Y114774D01*
X192557D01*
X192032Y114250D01*
Y112151D01*
X192557Y111626D01*
X193606D01*
X194131Y112151D01*
X195181D02*
X195705Y111626D01*
X196755D01*
X197280Y112151D01*
Y114250D01*
X196755Y114774D01*
X195705D01*
X195181Y114250D01*
Y113725D01*
X195705Y113200D01*
X197280D01*
X190075Y86550D02*
X189550Y87074D01*
X188501D01*
X187976Y86550D01*
Y84451D01*
X188501Y83926D01*
X189550D01*
X190075Y84451D01*
X191125Y86550D02*
X191649Y87074D01*
X192699D01*
X193224Y86550D01*
Y86025D01*
X192699Y85500D01*
X193224Y84975D01*
Y84451D01*
X192699Y83926D01*
X191649D01*
X191125Y84451D01*
Y84975D01*
X191649Y85500D01*
X191125Y86025D01*
Y86550D01*
X191649Y85500D02*
X192699D01*
X231988Y64835D02*
X231464Y64310D01*
Y63261D01*
X231988Y62736D01*
X234087D01*
X234612Y63261D01*
Y64310D01*
X234087Y64835D01*
X231464Y65885D02*
Y67984D01*
X231988D01*
X234087Y65885D01*
X234612D01*
X225588Y61735D02*
X225063Y61210D01*
Y60161D01*
X225588Y59636D01*
X227687D01*
X228212Y60161D01*
Y61210D01*
X227687Y61735D01*
X225063Y64884D02*
X225588Y63834D01*
X226638Y62785D01*
X227687D01*
X228212Y63309D01*
Y64359D01*
X227687Y64884D01*
X227163D01*
X226638Y64359D01*
Y62785D01*
X131263Y124950D02*
X130739Y125474D01*
X129689D01*
X129164Y124950D01*
Y122851D01*
X129689Y122326D01*
X130739D01*
X131263Y122851D01*
X134412Y125474D02*
X132313D01*
Y123900D01*
X133362Y124425D01*
X133887D01*
X134412Y123900D01*
Y122851D01*
X133887Y122326D01*
X132838D01*
X132313Y122851D01*
X120975Y26250D02*
X120450Y26774D01*
X119401D01*
X118876Y26250D01*
Y24150D01*
X119401Y23626D01*
X120450D01*
X120975Y24150D01*
X122025Y26250D02*
X122549Y26774D01*
X123599D01*
X124124Y26250D01*
Y25725D01*
X123599Y25200D01*
X123074D01*
X123599D01*
X124124Y24675D01*
Y24150D01*
X123599Y23626D01*
X122549D01*
X122025Y24150D01*
X163975Y132850D02*
X163451Y133374D01*
X162401D01*
X161876Y132850D01*
Y130751D01*
X162401Y130226D01*
X163451D01*
X163975Y130751D01*
X167124Y130226D02*
X165025D01*
X167124Y132325D01*
Y132850D01*
X166599Y133374D01*
X165550D01*
X165025Y132850D01*
X164000Y124849D02*
X163475Y125374D01*
X162426D01*
X161901Y124849D01*
Y122750D01*
X162426Y122226D01*
X163475D01*
X164000Y122750D01*
X165050Y122226D02*
X166099D01*
X165574D01*
Y125374D01*
X165050Y124849D01*
M02*
