G04*
G04 #@! TF.GenerationSoftware,Altium Limited,Altium Designer,22.6.1 (34)*
G04*
G04 Layer_Color=255*
%FSLAX25Y25*%
%MOIN*%
G70*
G04*
G04 #@! TF.SameCoordinates,BE1EFFB1-D3A5-4C51-9803-2DA18C35BCD8*
G04*
G04*
G04 #@! TF.FilePolarity,Positive*
G04*
G01*
G75*
G04:AMPARAMS|DCode=15|XSize=19.68mil|YSize=7.87mil|CornerRadius=1.97mil|HoleSize=0mil|Usage=FLASHONLY|Rotation=0.000|XOffset=0mil|YOffset=0mil|HoleType=Round|Shape=RoundedRectangle|*
%AMROUNDEDRECTD15*
21,1,0.01968,0.00394,0,0,0.0*
21,1,0.01575,0.00787,0,0,0.0*
1,1,0.00394,0.00787,-0.00197*
1,1,0.00394,-0.00787,-0.00197*
1,1,0.00394,-0.00787,0.00197*
1,1,0.00394,0.00787,0.00197*
%
%ADD15ROUNDEDRECTD15*%
%ADD16R,0.07480X0.07480*%
%ADD17R,0.05512X0.06299*%
%ADD18R,0.05315X0.01200*%
%ADD19R,0.03543X0.03150*%
G04:AMPARAMS|DCode=20|XSize=57.09mil|YSize=23.23mil|CornerRadius=2.9mil|HoleSize=0mil|Usage=FLASHONLY|Rotation=90.000|XOffset=0mil|YOffset=0mil|HoleType=Round|Shape=RoundedRectangle|*
%AMROUNDEDRECTD20*
21,1,0.05709,0.01742,0,0,90.0*
21,1,0.05128,0.02323,0,0,90.0*
1,1,0.00581,0.00871,0.02564*
1,1,0.00581,0.00871,-0.02564*
1,1,0.00581,-0.00871,-0.02564*
1,1,0.00581,-0.00871,0.02564*
%
%ADD20ROUNDEDRECTD20*%
%ADD21R,0.09400X0.07100*%
%ADD22R,0.01000X0.02800*%
%ADD23R,0.03500X0.03500*%
%ADD24R,0.03500X0.05900*%
%ADD25R,0.05900X0.03500*%
%ADD26R,0.03150X0.03543*%
%ADD27R,0.03150X0.03543*%
%ADD28R,0.03150X0.02362*%
%ADD29R,0.04095X0.01811*%
%ADD30R,0.03150X0.03150*%
G04:AMPARAMS|DCode=31|XSize=9.55mil|YSize=44.53mil|CornerRadius=4.77mil|HoleSize=0mil|Usage=FLASHONLY|Rotation=90.000|XOffset=0mil|YOffset=0mil|HoleType=Round|Shape=RoundedRectangle|*
%AMROUNDEDRECTD31*
21,1,0.00955,0.03498,0,0,90.0*
21,1,0.00000,0.04453,0,0,90.0*
1,1,0.00955,0.01749,0.00000*
1,1,0.00955,0.01749,0.00000*
1,1,0.00955,-0.01749,0.00000*
1,1,0.00955,-0.01749,0.00000*
%
%ADD31ROUNDEDRECTD31*%
G04:AMPARAMS|DCode=32|XSize=44.53mil|YSize=9.55mil|CornerRadius=4.77mil|HoleSize=0mil|Usage=FLASHONLY|Rotation=90.000|XOffset=0mil|YOffset=0mil|HoleType=Round|Shape=RoundedRectangle|*
%AMROUNDEDRECTD32*
21,1,0.04453,0.00000,0,0,90.0*
21,1,0.03498,0.00955,0,0,90.0*
1,1,0.00955,0.00000,0.01749*
1,1,0.00955,0.00000,-0.01749*
1,1,0.00955,0.00000,-0.01749*
1,1,0.00955,0.00000,0.01749*
%
%ADD32ROUNDEDRECTD32*%
%ADD33R,0.00955X0.04453*%
G04:AMPARAMS|DCode=34|XSize=57.09mil|YSize=23.23mil|CornerRadius=2.9mil|HoleSize=0mil|Usage=FLASHONLY|Rotation=0.000|XOffset=0mil|YOffset=0mil|HoleType=Round|Shape=RoundedRectangle|*
%AMROUNDEDRECTD34*
21,1,0.05709,0.01742,0,0,0.0*
21,1,0.05128,0.02323,0,0,0.0*
1,1,0.00581,0.02564,-0.00871*
1,1,0.00581,-0.02564,-0.00871*
1,1,0.00581,-0.02564,0.00871*
1,1,0.00581,0.02564,0.00871*
%
%ADD34ROUNDEDRECTD34*%
%ADD35R,0.00800X0.02700*%
%ADD36R,0.05200X0.02200*%
%ADD37R,0.06299X0.13780*%
%ADD48R,0.13189X0.13189*%
%ADD60R,0.00394X0.00394*%
%ADD61R,0.00900X0.03400*%
%ADD63C,0.01575*%
%ADD64C,0.04882*%
%ADD65R,0.04882X0.04882*%
%ADD66O,0.07087X0.03543*%
%ADD67C,0.06024*%
%ADD68R,0.06024X0.06024*%
%ADD69R,0.05150X0.05150*%
%ADD70C,0.05150*%
%ADD71C,0.19685*%
D15*
X262440Y81350D02*
D03*
Y79775D02*
D03*
Y78200D02*
D03*
Y76625D02*
D03*
Y75050D02*
D03*
X254960D02*
D03*
Y76625D02*
D03*
Y78200D02*
D03*
Y79775D02*
D03*
Y81350D02*
D03*
D16*
X289300Y57024D02*
D03*
Y47576D02*
D03*
D17*
X279654Y64898D02*
D03*
Y39702D02*
D03*
D18*
X278768Y57418D02*
D03*
Y54859D02*
D03*
Y52300D02*
D03*
Y49741D02*
D03*
Y47182D02*
D03*
D19*
X247100Y69956D02*
D03*
Y64444D02*
D03*
X241200Y69956D02*
D03*
Y64444D02*
D03*
X247100Y75444D02*
D03*
Y80956D02*
D03*
X199438Y71604D02*
D03*
Y77116D02*
D03*
X232538Y77616D02*
D03*
Y72104D02*
D03*
X226638Y74772D02*
D03*
Y69260D02*
D03*
X247200Y8688D02*
D03*
Y14200D02*
D03*
X235100Y8644D02*
D03*
Y14156D02*
D03*
X133300Y25844D02*
D03*
Y31356D02*
D03*
X247300Y28256D02*
D03*
Y22744D02*
D03*
X143700Y25644D02*
D03*
Y31156D02*
D03*
X179500Y6144D02*
D03*
Y11656D02*
D03*
X235100Y28256D02*
D03*
Y22744D02*
D03*
X191600Y35156D02*
D03*
Y29644D02*
D03*
X267100Y140644D02*
D03*
Y146156D02*
D03*
X27800Y16956D02*
D03*
Y11444D02*
D03*
X27900Y140744D02*
D03*
Y146256D02*
D03*
D20*
X262572Y66638D02*
D03*
X258832D02*
D03*
X255091D02*
D03*
X262572Y56362D02*
D03*
X258832D02*
D03*
X255091D02*
D03*
D21*
X205300Y101100D02*
D03*
D22*
X200576Y107000D02*
D03*
X202150D02*
D03*
X203725D02*
D03*
X205300D02*
D03*
X206875D02*
D03*
X208450D02*
D03*
X210024D02*
D03*
Y95200D02*
D03*
X208450D02*
D03*
X206875D02*
D03*
X205300D02*
D03*
X203725D02*
D03*
X202150D02*
D03*
X200576D02*
D03*
D23*
X125990Y86510D02*
D03*
X131500D02*
D03*
Y81000D02*
D03*
X125990D02*
D03*
X120480D02*
D03*
Y86510D02*
D03*
Y92020D02*
D03*
X125990D02*
D03*
X131500D02*
D03*
D24*
X156390Y46150D02*
D03*
X151390D02*
D03*
X146390D02*
D03*
X141390D02*
D03*
X136390D02*
D03*
X131390D02*
D03*
X126390D02*
D03*
X121390D02*
D03*
X116390D02*
D03*
X111390D02*
D03*
X106390D02*
D03*
X101390D02*
D03*
X96390D02*
D03*
X91390D02*
D03*
Y115050D02*
D03*
X96390D02*
D03*
X101390D02*
D03*
X106390D02*
D03*
X111390D02*
D03*
X116390D02*
D03*
X121390D02*
D03*
X126390D02*
D03*
X131390D02*
D03*
X136390D02*
D03*
X141390D02*
D03*
X146390D02*
D03*
X151390D02*
D03*
X156390D02*
D03*
D25*
X86465Y58100D02*
D03*
Y63100D02*
D03*
Y68100D02*
D03*
Y73100D02*
D03*
Y78100D02*
D03*
Y83100D02*
D03*
Y88100D02*
D03*
Y93100D02*
D03*
Y98100D02*
D03*
Y103100D02*
D03*
D26*
X269300Y76100D02*
D03*
X274812D02*
D03*
X274756Y82000D02*
D03*
X269244D02*
D03*
X274756Y87900D02*
D03*
X269244D02*
D03*
X230856Y50800D02*
D03*
X225344D02*
D03*
X207656D02*
D03*
X202144D02*
D03*
X208482Y85560D02*
D03*
X213994D02*
D03*
X66756Y67000D02*
D03*
X61244D02*
D03*
X66756Y99000D02*
D03*
X61244D02*
D03*
X66756Y130000D02*
D03*
X61244D02*
D03*
X66756Y36000D02*
D03*
X61244D02*
D03*
X66756Y8000D02*
D03*
X61244D02*
D03*
X247556Y92700D02*
D03*
X242044D02*
D03*
X276644Y129800D02*
D03*
X282156D02*
D03*
X138988Y131800D02*
D03*
X144500D02*
D03*
X121500Y123900D02*
D03*
X115988D02*
D03*
X155300Y139900D02*
D03*
X160812D02*
D03*
X155300Y147600D02*
D03*
X160812D02*
D03*
X133556Y37100D02*
D03*
X128044D02*
D03*
X216644Y97600D02*
D03*
X222156D02*
D03*
X216644Y107200D02*
D03*
X222156D02*
D03*
X222156Y113100D02*
D03*
X216644D02*
D03*
X288156Y26700D02*
D03*
X282644D02*
D03*
X201544Y113100D02*
D03*
X207056D02*
D03*
X108744Y25200D02*
D03*
X114256D02*
D03*
X152100Y123800D02*
D03*
X157612D02*
D03*
X152100Y131800D02*
D03*
X157612D02*
D03*
X144400Y123800D02*
D03*
X138888D02*
D03*
X197444Y85600D02*
D03*
X202956D02*
D03*
D27*
X263160Y19963D02*
D03*
X270640D02*
D03*
X266900Y27837D02*
D03*
D28*
X182976Y36440D02*
D03*
Y28960D02*
D03*
X175024Y32700D02*
D03*
X196000Y9200D02*
D03*
X188047Y12940D02*
D03*
Y5460D02*
D03*
D29*
X271685Y37200D02*
D03*
X262315D02*
D03*
X271685Y43500D02*
D03*
X262315D02*
D03*
X274815Y122600D02*
D03*
X284185D02*
D03*
D30*
X224752Y43800D02*
D03*
X231248D02*
D03*
X201608D02*
D03*
X208104D02*
D03*
X241452Y99800D02*
D03*
X247948D02*
D03*
X115752Y131700D02*
D03*
X122248D02*
D03*
X167152Y139900D02*
D03*
X173648D02*
D03*
X167108Y147700D02*
D03*
X173604D02*
D03*
D31*
X208688Y14295D02*
D03*
Y16263D02*
D03*
Y18232D02*
D03*
Y20200D02*
D03*
Y22169D02*
D03*
Y24137D02*
D03*
Y26105D02*
D03*
X227512D02*
D03*
Y24137D02*
D03*
Y22169D02*
D03*
Y20200D02*
D03*
Y18232D02*
D03*
Y16263D02*
D03*
Y14295D02*
D03*
D32*
X212194Y29612D02*
D03*
X214163D02*
D03*
X216131D02*
D03*
X218100D02*
D03*
X220069D02*
D03*
X222037D02*
D03*
X224006D02*
D03*
Y10789D02*
D03*
X222037D02*
D03*
X220069D02*
D03*
X218100D02*
D03*
X216131D02*
D03*
X214163D02*
D03*
D33*
X212194D02*
D03*
D34*
X208500Y78500D02*
D03*
Y74760D02*
D03*
Y71020D02*
D03*
X218776Y78500D02*
D03*
Y74760D02*
D03*
Y71020D02*
D03*
D35*
X253941Y114900D02*
D03*
X256500D02*
D03*
X259059D02*
D03*
Y106700D02*
D03*
X256500D02*
D03*
X253941D02*
D03*
D36*
X71400Y112700D02*
D03*
Y105300D02*
D03*
X60600D02*
D03*
Y109000D02*
D03*
Y112700D02*
D03*
X71400Y143700D02*
D03*
Y136300D02*
D03*
X60600D02*
D03*
Y140000D02*
D03*
Y143700D02*
D03*
X71400Y49700D02*
D03*
Y42300D02*
D03*
X60600D02*
D03*
Y46000D02*
D03*
Y49700D02*
D03*
X71400Y80700D02*
D03*
Y73300D02*
D03*
X60600D02*
D03*
Y77000D02*
D03*
Y80700D02*
D03*
X71400Y21700D02*
D03*
Y14300D02*
D03*
X60600D02*
D03*
Y18000D02*
D03*
Y21700D02*
D03*
D37*
X241800Y149024D02*
D03*
Y126976D02*
D03*
X204000Y149024D02*
D03*
Y126976D02*
D03*
D48*
X218100Y20200D02*
D03*
D60*
X258700Y78200D02*
D03*
D61*
X253886Y110800D02*
D03*
D63*
X258700Y80000D02*
D03*
Y76400D02*
D03*
D64*
X49500Y124500D02*
D03*
Y114500D02*
D03*
Y104500D02*
D03*
Y94500D02*
D03*
Y84500D02*
D03*
Y74500D02*
D03*
Y64500D02*
D03*
Y54500D02*
D03*
Y44500D02*
D03*
D65*
Y34500D02*
D03*
D66*
X289300Y65292D02*
D03*
Y39308D02*
D03*
D67*
X106500Y15200D02*
D03*
X142500Y143500D02*
D03*
X106500D02*
D03*
D68*
X116500Y15200D02*
D03*
X132500Y143500D02*
D03*
X116500D02*
D03*
D69*
X270400Y100326D02*
D03*
D70*
Y108200D02*
D03*
D71*
X283000Y146000D02*
D03*
Y12000D02*
D03*
X12500D02*
D03*
Y146000D02*
D03*
M02*
