G04*
G04 #@! TF.GenerationSoftware,Altium Limited,Altium Designer,22.6.1 (34)*
G04*
G04 Layer_Color=32768*
%FSLAX25Y25*%
%MOIN*%
G70*
G04*
G04 #@! TF.SameCoordinates,BE1EFFB1-D3A5-4C51-9803-2DA18C35BCD8*
G04*
G04*
G04 #@! TF.FilePolarity,Positive*
G04*
G01*
G75*
%ADD10C,0.00500*%
%ADD13C,0.00394*%
D10*
X271247Y69628D02*
Y73172D01*
X264553D02*
X271247D01*
X264553Y69628D02*
Y73172D01*
Y69628D02*
X271247D01*
X279800Y75336D02*
Y71400D01*
Y75336D02*
X278113D01*
X277551Y75149D01*
X277363Y74961D01*
X277176Y74586D01*
Y74212D01*
X277363Y73837D01*
X277551Y73649D01*
X278113Y73462D01*
X279800D01*
X278488D02*
X277176Y71400D01*
X276295Y74586D02*
X275920Y74774D01*
X275358Y75336D01*
Y71400D01*
X271159Y74774D02*
X271347Y75149D01*
X271909Y75336D01*
X272284D01*
X272846Y75149D01*
X273221Y74586D01*
X273408Y73649D01*
Y72712D01*
X273221Y71962D01*
X272846Y71587D01*
X272284Y71400D01*
X272096D01*
X271534Y71587D01*
X271159Y71962D01*
X270972Y72525D01*
Y72712D01*
X271159Y73274D01*
X271534Y73649D01*
X272096Y73837D01*
X272284D01*
X272846Y73649D01*
X273221Y73274D01*
X273408Y72712D01*
D13*
X283245Y69530D02*
Y73270D01*
X276355Y69530D02*
Y73270D01*
X283245D01*
X276355Y69530D02*
X283245D01*
M02*
