G04*
G04 #@! TF.GenerationSoftware,Altium Limited,Altium Designer,22.6.1 (34)*
G04*
G04 Layer_Color=255*
%FSLAX25Y25*%
%MOIN*%
G70*
G04*
G04 #@! TF.SameCoordinates,BE1EFFB1-D3A5-4C51-9803-2DA18C35BCD8*
G04*
G04*
G04 #@! TF.FilePolarity,Positive*
G04*
G01*
G75*
%ADD26R,0.03150X0.03543*%
%ADD30R,0.03150X0.03150*%
%ADD63C,0.01575*%
%ADD64C,0.04882*%
%ADD65R,0.04882X0.04882*%
%ADD66O,0.07087X0.03543*%
%ADD67C,0.06024*%
%ADD68R,0.06024X0.06024*%
%ADD69R,0.05150X0.05150*%
%ADD70C,0.05150*%
%ADD71C,0.19685*%
D26*
X282556Y71400D02*
D03*
X277044D02*
D03*
D30*
X271148D02*
D03*
X264652D02*
D03*
D63*
X258700Y80000D02*
D03*
Y76400D02*
D03*
D64*
X49500Y124500D02*
D03*
Y114500D02*
D03*
Y104500D02*
D03*
Y94500D02*
D03*
Y84500D02*
D03*
Y74500D02*
D03*
Y64500D02*
D03*
Y54500D02*
D03*
Y44500D02*
D03*
D65*
Y34500D02*
D03*
D66*
X289300Y65292D02*
D03*
Y39308D02*
D03*
D67*
X106500Y15200D02*
D03*
X142500Y143500D02*
D03*
X106500D02*
D03*
D68*
X116500Y15200D02*
D03*
X132500Y143500D02*
D03*
X116500D02*
D03*
D69*
X270400Y100326D02*
D03*
D70*
Y108200D02*
D03*
D71*
X283000Y146000D02*
D03*
Y12000D02*
D03*
X12500D02*
D03*
Y146000D02*
D03*
M02*
