G04*
G04 #@! TF.GenerationSoftware,Altium Limited,Altium Designer,22.6.1 (34)*
G04*
G04 Layer_Physical_Order=3*
G04 Layer_Color=128*
%FSLAX25Y25*%
%MOIN*%
G70*
G04*
G04 #@! TF.SameCoordinates,BE1EFFB1-D3A5-4C51-9803-2DA18C35BCD8*
G04*
G04*
G04 #@! TF.FilePolarity,Negative*
G04*
G01*
G75*
%ADD62C,0.01000*%
%ADD75C,0.04000*%
%ADD76C,0.07504*%
%ADD77C,0.08016*%
%ADD78C,0.07150*%
%ADD79C,0.16205*%
%ADD80C,0.04984*%
%ADD81C,0.04787*%
%ADD82C,0.05181*%
G04:AMPARAMS|DCode=84|XSize=95.039mil|YSize=95.039mil|CornerRadius=0mil|HoleSize=0mil|Usage=FLASHONLY|Rotation=0.000|XOffset=0mil|YOffset=0mil|HoleType=Round|Shape=Relief|Width=10mil|Gap=10mil|Entries=4|*
%AMTHD84*
7,0,0,0.09504,0.07504,0.01000,45*
%
%ADD84THD84*%
%ADD85O,0.08724X0.05969*%
D62*
X295000Y37500D02*
Y157900D01*
X295100Y158000D01*
X278000D02*
X295100D01*
X294500Y37000D02*
X295000Y37500D01*
X278000Y90500D02*
Y158000D01*
X226000Y102000D02*
Y158000D01*
X238000Y37000D02*
X266500D01*
X226000Y158000D02*
X278000D01*
X187000Y60000D02*
Y102000D01*
X159000Y117000D02*
X187000D01*
Y102000D02*
X226000D01*
X187000D02*
Y117000D01*
X266500Y37000D02*
X294500D01*
X238000D02*
Y90500D01*
X159000Y44000D02*
Y117000D01*
Y44000D02*
X187000D01*
Y60000D01*
X238000Y90500D02*
X278000D01*
X187000Y60000D02*
X238000D01*
D75*
X0Y0D02*
Y157480D01*
X295276D01*
Y0D02*
Y157480D01*
X0Y0D02*
X295276D01*
D76*
X49500Y124500D02*
D03*
Y94500D02*
D03*
Y74500D02*
D03*
Y44500D02*
D03*
Y34500D02*
D03*
D77*
X106500Y15200D02*
D03*
X116500D02*
D03*
X142500Y143500D02*
D03*
X132500D02*
D03*
X106500D02*
D03*
X116500D02*
D03*
D78*
X270400Y100326D02*
D03*
Y108200D02*
D03*
D79*
X283000Y146000D02*
D03*
Y12000D02*
D03*
X12500D02*
D03*
Y146000D02*
D03*
D80*
X260700Y71500D02*
D03*
X223500Y103500D02*
D03*
X271000Y54237D02*
D03*
Y51678D02*
D03*
D81*
X258700Y80000D02*
D03*
Y76400D02*
D03*
X254600Y71000D02*
D03*
X265500Y77637D02*
D03*
X252500Y77500D02*
D03*
D82*
X190500Y85700D02*
D03*
X211261Y5261D02*
D03*
X215000Y17000D02*
D03*
X222000D02*
D03*
Y24000D02*
D03*
X215000D02*
D03*
X247014Y55314D02*
D03*
X150000Y142000D02*
D03*
X251812Y8688D02*
D03*
X207500Y102500D02*
D03*
X203000Y99500D02*
D03*
X207500D02*
D03*
X203000Y102500D02*
D03*
X251200Y99500D02*
D03*
X147000Y103350D02*
D03*
Y36900D02*
D03*
X263400Y25500D02*
D03*
X265400Y8300D02*
D03*
X265358Y14042D02*
D03*
X270400Y25460D02*
D03*
X137600Y20656D02*
D03*
X149800Y17200D02*
D03*
X201600Y21200D02*
D03*
Y17200D02*
D03*
X192000Y9200D02*
D03*
X103300Y25200D02*
D03*
X91500Y40000D02*
D03*
X163400Y119900D02*
D03*
D84*
X49500Y114500D02*
D03*
Y104500D02*
D03*
Y84500D02*
D03*
Y64500D02*
D03*
Y54500D02*
D03*
D85*
X289300Y65292D02*
D03*
Y39308D02*
D03*
M02*
